G04 #@! TF.GenerationSoftware,KiCad,Pcbnew,10.0.1-10.0.1~ubuntu25.10.1*
G04 #@! TF.CreationDate,2026-06-20T18:39:00+00:00*
G04 #@! TF.ProjectId,LoconetEsp32Craddle,4c6f636f-6e65-4744-9573-703332437261,0.0.1*
G04 #@! TF.SameCoordinates,Original*
G04 #@! TF.FileFunction,Copper,L2,Inr*
G04 #@! TF.FilePolarity,Positive*
%FSLAX46Y46*%
G04 Gerber Fmt 4.6, Leading zero omitted, Abs format (unit mm)*
G04 Created by KiCad (PCBNEW 10.0.1-10.0.1~ubuntu25.10.1) date 2026-06-20 18:39:00*
%MOMM*%
%LPD*%
G01*
G04 APERTURE LIST*
G04 #@! TA.AperFunction,ComponentPad*
%ADD10R,1.398000X1.398000*%
G04 #@! TD*
G04 #@! TA.AperFunction,ComponentPad*
%ADD11C,1.398000*%
G04 #@! TD*
G04 #@! TA.AperFunction,ComponentPad*
%ADD12C,5.700000*%
G04 #@! TD*
G04 #@! TA.AperFunction,ComponentPad*
%ADD13R,1.200000X2.000000*%
G04 #@! TD*
G04 #@! TA.AperFunction,ComponentPad*
%ADD14O,1.200000X2.000000*%
G04 #@! TD*
G04 #@! TA.AperFunction,ComponentPad*
%ADD15O,1.600000X2.000000*%
G04 #@! TD*
G04 #@! TA.AperFunction,ViaPad*
%ADD16C,0.800000*%
G04 #@! TD*
G04 APERTURE END LIST*
D10*
X43080000Y-90540000D03*
D11*
X41050000Y-89524000D03*
X43080000Y-88508000D03*
X41048000Y-87492000D03*
X43080000Y-86476000D03*
X41050000Y-85460000D03*
D10*
X43080000Y-104540000D03*
D11*
X41050000Y-103524000D03*
X43080000Y-102508000D03*
X41048000Y-101492000D03*
X43080000Y-100476000D03*
X41050000Y-99460000D03*
D12*
X35000000Y-65000000D03*
X35000000Y-115000000D03*
X120000000Y-115000000D03*
X120000000Y-54000000D03*
D13*
X77203440Y-53300000D03*
D14*
X74663440Y-53300000D03*
X72123440Y-53300000D03*
X69583440Y-53300000D03*
X67043440Y-53300000D03*
X64503440Y-53300000D03*
X61963440Y-53300000D03*
X59423440Y-53300000D03*
X56883440Y-53300000D03*
X54343440Y-53300000D03*
X51803440Y-53300000D03*
X49263440Y-53300000D03*
X46723440Y-53300000D03*
X44183440Y-53300000D03*
X41643440Y-53300000D03*
X39103440Y-53300000D03*
X36563440Y-53300000D03*
X34023440Y-53300000D03*
X31483440Y-53300000D03*
X31486160Y-78696320D03*
X34026160Y-78696320D03*
X36563440Y-78700000D03*
X39103440Y-78700000D03*
X41643440Y-78700000D03*
X44183440Y-78700000D03*
X46723440Y-78700000D03*
X49263440Y-78700000D03*
X51803440Y-78700000D03*
X54343440Y-78700000D03*
X56883440Y-78700000D03*
X59423440Y-78700000D03*
X61963440Y-78700000D03*
X64503440Y-78700000D03*
X67043440Y-78700000D03*
X69583440Y-78700000D03*
X72123440Y-78700000D03*
X74663440Y-78700000D03*
X77203440Y-78700000D03*
D15*
X104380000Y-61000000D03*
X106920000Y-61000000D03*
X109460000Y-61000000D03*
X112000000Y-61000000D03*
D16*
X65124500Y-112800000D03*
X106000000Y-116200000D03*
X63400000Y-103600000D03*
X107885706Y-108372500D03*
X50800000Y-110109000D03*
X102350000Y-94400000D03*
X57762000Y-103675000D03*
X104818500Y-109023500D03*
X62865000Y-106807000D03*
X114100000Y-94350000D03*
X60600000Y-116600000D03*
X114985000Y-110507000D03*
X107600000Y-87400000D03*
X109600000Y-90800000D03*
X93200000Y-109800000D03*
X121800000Y-101600000D03*
X120600000Y-104400000D03*
X119600000Y-107200000D03*
X100600000Y-108000000D03*
X94600000Y-103600000D03*
X51000000Y-98600000D03*
X51000000Y-97000000D03*
G04 #@! TA.AperFunction,Conductor*
G36*
X124916621Y-49045502D02*
G01*
X124963114Y-49099158D01*
X124974500Y-49151500D01*
X124974500Y-119848500D01*
X124954498Y-119916621D01*
X124900842Y-119963114D01*
X124848500Y-119974500D01*
X30151500Y-119974500D01*
X30083379Y-119954498D01*
X30036886Y-119900842D01*
X30025500Y-119848500D01*
X30025500Y-114835025D01*
X31642000Y-114835025D01*
X31642000Y-115164974D01*
X31674337Y-115493300D01*
X31674340Y-115493321D01*
X31738704Y-115816904D01*
X31738705Y-115816911D01*
X31834475Y-116132624D01*
X31834476Y-116132626D01*
X31960743Y-116437462D01*
X32116275Y-116728441D01*
X32299576Y-117002772D01*
X32452130Y-117188659D01*
X33703367Y-115937421D01*
X33779588Y-116042330D01*
X33957670Y-116220412D01*
X34062576Y-116296631D01*
X32811339Y-117547868D01*
X32997232Y-117700427D01*
X33271558Y-117883724D01*
X33562537Y-118039256D01*
X33867373Y-118165523D01*
X33867375Y-118165524D01*
X34183088Y-118261294D01*
X34183095Y-118261295D01*
X34506678Y-118325659D01*
X34506699Y-118325662D01*
X34835025Y-118357999D01*
X34835041Y-118358000D01*
X35164959Y-118358000D01*
X35164974Y-118357999D01*
X35493300Y-118325662D01*
X35493321Y-118325659D01*
X35816904Y-118261295D01*
X35816911Y-118261294D01*
X36132624Y-118165524D01*
X36132626Y-118165523D01*
X36437462Y-118039256D01*
X36728441Y-117883724D01*
X37002762Y-117700429D01*
X37002768Y-117700425D01*
X37188659Y-117547868D01*
X35937422Y-116296631D01*
X36042330Y-116220412D01*
X36220412Y-116042330D01*
X36296631Y-115937422D01*
X37547868Y-117188659D01*
X37700425Y-117002768D01*
X37700429Y-117002762D01*
X37883724Y-116728441D01*
X38000207Y-116510518D01*
X59691500Y-116510518D01*
X59691500Y-116689481D01*
X59726414Y-116865003D01*
X59743263Y-116905680D01*
X59794898Y-117030336D01*
X59894322Y-117179135D01*
X60020865Y-117305678D01*
X60169664Y-117405102D01*
X60335000Y-117473587D01*
X60510521Y-117508500D01*
X60510522Y-117508500D01*
X60689478Y-117508500D01*
X60689479Y-117508500D01*
X60865000Y-117473587D01*
X61030336Y-117405102D01*
X61179135Y-117305678D01*
X61305678Y-117179135D01*
X61405102Y-117030336D01*
X61473587Y-116865000D01*
X61508500Y-116689479D01*
X61508500Y-116510521D01*
X61473587Y-116335000D01*
X61405102Y-116169664D01*
X61405101Y-116169662D01*
X61405100Y-116169660D01*
X61365582Y-116110518D01*
X105091500Y-116110518D01*
X105091500Y-116289481D01*
X105107207Y-116368443D01*
X105126413Y-116465000D01*
X105194898Y-116630336D01*
X105294322Y-116779135D01*
X105420865Y-116905678D01*
X105569664Y-117005102D01*
X105735000Y-117073587D01*
X105910521Y-117108500D01*
X105910522Y-117108500D01*
X106089478Y-117108500D01*
X106089479Y-117108500D01*
X106265000Y-117073587D01*
X106430336Y-117005102D01*
X106579135Y-116905678D01*
X106705678Y-116779135D01*
X106805102Y-116630336D01*
X106873587Y-116465000D01*
X106908500Y-116289479D01*
X106908500Y-116110521D01*
X106873587Y-115935000D01*
X106805102Y-115769664D01*
X106705678Y-115620865D01*
X106579135Y-115494322D01*
X106430336Y-115394898D01*
X106313429Y-115346473D01*
X106265003Y-115326414D01*
X106265001Y-115326413D01*
X106265000Y-115326413D01*
X106176645Y-115308838D01*
X106089481Y-115291500D01*
X106089479Y-115291500D01*
X105910521Y-115291500D01*
X105910518Y-115291500D01*
X105779771Y-115317507D01*
X105735000Y-115326413D01*
X105734999Y-115326413D01*
X105734996Y-115326414D01*
X105569662Y-115394899D01*
X105420869Y-115494319D01*
X105420862Y-115494324D01*
X105294324Y-115620862D01*
X105294319Y-115620869D01*
X105194899Y-115769662D01*
X105126414Y-115934996D01*
X105091500Y-116110518D01*
X61365582Y-116110518D01*
X61320020Y-116042330D01*
X61305678Y-116020865D01*
X61179135Y-115894322D01*
X61030336Y-115794898D01*
X60913429Y-115746473D01*
X60865003Y-115726414D01*
X60865001Y-115726413D01*
X60865000Y-115726413D01*
X60776645Y-115708838D01*
X60689481Y-115691500D01*
X60689479Y-115691500D01*
X60510521Y-115691500D01*
X60510518Y-115691500D01*
X60379771Y-115717507D01*
X60335000Y-115726413D01*
X60334999Y-115726413D01*
X60334996Y-115726414D01*
X60169662Y-115794899D01*
X60020869Y-115894319D01*
X60020862Y-115894324D01*
X59894324Y-116020862D01*
X59894319Y-116020869D01*
X59794899Y-116169662D01*
X59726414Y-116334996D01*
X59691500Y-116510518D01*
X38000207Y-116510518D01*
X38035262Y-116444935D01*
X38035264Y-116444931D01*
X38039257Y-116437460D01*
X38165523Y-116132626D01*
X38165524Y-116132624D01*
X38261294Y-115816911D01*
X38261295Y-115816904D01*
X38325659Y-115493321D01*
X38325662Y-115493300D01*
X38357999Y-115164974D01*
X38358000Y-115164958D01*
X38358000Y-114835041D01*
X38357999Y-114835025D01*
X116642000Y-114835025D01*
X116642000Y-115164974D01*
X116674337Y-115493300D01*
X116674340Y-115493321D01*
X116738704Y-115816904D01*
X116738705Y-115816911D01*
X116834475Y-116132624D01*
X116834476Y-116132626D01*
X116960743Y-116437462D01*
X117116275Y-116728441D01*
X117299576Y-117002772D01*
X117452130Y-117188659D01*
X118703367Y-115937421D01*
X118779588Y-116042330D01*
X118957670Y-116220412D01*
X119062576Y-116296631D01*
X117811339Y-117547868D01*
X117997232Y-117700427D01*
X118271558Y-117883724D01*
X118562537Y-118039256D01*
X118867373Y-118165523D01*
X118867375Y-118165524D01*
X119183088Y-118261294D01*
X119183095Y-118261295D01*
X119506678Y-118325659D01*
X119506699Y-118325662D01*
X119835025Y-118357999D01*
X119835041Y-118358000D01*
X120164959Y-118358000D01*
X120164974Y-118357999D01*
X120493300Y-118325662D01*
X120493321Y-118325659D01*
X120816904Y-118261295D01*
X120816911Y-118261294D01*
X121132624Y-118165524D01*
X121132626Y-118165523D01*
X121437462Y-118039256D01*
X121728441Y-117883724D01*
X122002762Y-117700429D01*
X122002768Y-117700425D01*
X122188659Y-117547868D01*
X120937422Y-116296631D01*
X121042330Y-116220412D01*
X121220412Y-116042330D01*
X121296631Y-115937422D01*
X122547868Y-117188659D01*
X122700425Y-117002768D01*
X122700429Y-117002762D01*
X122883724Y-116728441D01*
X123039256Y-116437462D01*
X123165523Y-116132626D01*
X123165524Y-116132624D01*
X123261294Y-115816911D01*
X123261295Y-115816904D01*
X123325659Y-115493321D01*
X123325662Y-115493300D01*
X123357999Y-115164974D01*
X123358000Y-115164958D01*
X123358000Y-114835041D01*
X123357999Y-114835025D01*
X123325662Y-114506699D01*
X123325659Y-114506678D01*
X123261295Y-114183095D01*
X123261294Y-114183088D01*
X123165524Y-113867375D01*
X123165523Y-113867373D01*
X123039256Y-113562537D01*
X122883724Y-113271558D01*
X122700427Y-112997232D01*
X122547868Y-112811339D01*
X121296631Y-114062576D01*
X121220412Y-113957670D01*
X121042330Y-113779588D01*
X120937422Y-113703367D01*
X122188659Y-112452130D01*
X122188659Y-112452129D01*
X122002772Y-112299576D01*
X121728441Y-112116275D01*
X121437462Y-111960743D01*
X121132626Y-111834476D01*
X121132624Y-111834475D01*
X120816911Y-111738705D01*
X120816904Y-111738704D01*
X120493321Y-111674340D01*
X120493300Y-111674337D01*
X120164974Y-111642000D01*
X119835025Y-111642000D01*
X119506699Y-111674337D01*
X119506678Y-111674340D01*
X119183095Y-111738704D01*
X119183088Y-111738705D01*
X118867375Y-111834475D01*
X118867373Y-111834476D01*
X118562537Y-111960743D01*
X118271558Y-112116275D01*
X117997236Y-112299571D01*
X117997223Y-112299580D01*
X117811339Y-112452130D01*
X119062577Y-113703368D01*
X118957670Y-113779588D01*
X118779588Y-113957670D01*
X118703368Y-114062577D01*
X117452130Y-112811339D01*
X117299580Y-112997223D01*
X117299571Y-112997236D01*
X117116275Y-113271558D01*
X116960743Y-113562537D01*
X116834476Y-113867373D01*
X116834475Y-113867375D01*
X116738705Y-114183088D01*
X116738704Y-114183095D01*
X116674340Y-114506678D01*
X116674337Y-114506699D01*
X116642000Y-114835025D01*
X38357999Y-114835025D01*
X38325662Y-114506699D01*
X38325659Y-114506678D01*
X38261295Y-114183095D01*
X38261294Y-114183088D01*
X38165524Y-113867375D01*
X38165523Y-113867373D01*
X38039256Y-113562537D01*
X37883724Y-113271558D01*
X37700427Y-112997232D01*
X37547868Y-112811339D01*
X36296631Y-114062576D01*
X36220412Y-113957670D01*
X36042330Y-113779588D01*
X35937422Y-113703367D01*
X36930271Y-112710518D01*
X64216000Y-112710518D01*
X64216000Y-112710521D01*
X64216000Y-112889479D01*
X64250913Y-113065000D01*
X64319398Y-113230336D01*
X64418822Y-113379135D01*
X64545365Y-113505678D01*
X64694164Y-113605102D01*
X64859500Y-113673587D01*
X65035021Y-113708500D01*
X65035022Y-113708500D01*
X65213978Y-113708500D01*
X65213979Y-113708500D01*
X65389500Y-113673587D01*
X65554836Y-113605102D01*
X65703635Y-113505678D01*
X65830178Y-113379135D01*
X65929602Y-113230336D01*
X65998087Y-113065000D01*
X66033000Y-112889479D01*
X66033000Y-112710521D01*
X65998087Y-112535000D01*
X65929602Y-112369664D01*
X65830178Y-112220865D01*
X65703635Y-112094322D01*
X65554836Y-111994898D01*
X65437929Y-111946473D01*
X65389503Y-111926414D01*
X65389501Y-111926413D01*
X65389500Y-111926413D01*
X65301145Y-111908838D01*
X65213981Y-111891500D01*
X65213979Y-111891500D01*
X65035021Y-111891500D01*
X65035018Y-111891500D01*
X64904271Y-111917507D01*
X64859500Y-111926413D01*
X64859499Y-111926413D01*
X64859496Y-111926414D01*
X64694162Y-111994899D01*
X64545369Y-112094319D01*
X64545362Y-112094324D01*
X64418824Y-112220862D01*
X64418819Y-112220869D01*
X64319399Y-112369662D01*
X64250914Y-112534996D01*
X64216000Y-112710518D01*
X36930271Y-112710518D01*
X37188659Y-112452130D01*
X37188659Y-112452129D01*
X37002772Y-112299576D01*
X36728441Y-112116275D01*
X36437462Y-111960743D01*
X36132626Y-111834476D01*
X36132624Y-111834475D01*
X35816911Y-111738705D01*
X35816904Y-111738704D01*
X35493321Y-111674340D01*
X35493300Y-111674337D01*
X35164974Y-111642000D01*
X34835025Y-111642000D01*
X34506699Y-111674337D01*
X34506678Y-111674340D01*
X34183095Y-111738704D01*
X34183088Y-111738705D01*
X33867375Y-111834475D01*
X33867373Y-111834476D01*
X33562537Y-111960743D01*
X33271558Y-112116275D01*
X32997236Y-112299571D01*
X32997223Y-112299580D01*
X32811339Y-112452130D01*
X34062577Y-113703368D01*
X33957670Y-113779588D01*
X33779588Y-113957670D01*
X33703368Y-114062577D01*
X32452130Y-112811339D01*
X32299580Y-112997223D01*
X32299571Y-112997236D01*
X32116275Y-113271558D01*
X31960743Y-113562537D01*
X31834476Y-113867373D01*
X31834475Y-113867375D01*
X31738705Y-114183088D01*
X31738704Y-114183095D01*
X31674340Y-114506678D01*
X31674337Y-114506699D01*
X31642000Y-114835025D01*
X30025500Y-114835025D01*
X30025500Y-110019518D01*
X49891500Y-110019518D01*
X49891500Y-110198481D01*
X49897837Y-110230337D01*
X49926413Y-110374000D01*
X49994898Y-110539336D01*
X50094322Y-110688135D01*
X50220865Y-110814678D01*
X50369664Y-110914102D01*
X50535000Y-110982587D01*
X50710521Y-111017500D01*
X50710522Y-111017500D01*
X50889478Y-111017500D01*
X50889479Y-111017500D01*
X51065000Y-110982587D01*
X51230336Y-110914102D01*
X51379135Y-110814678D01*
X51505678Y-110688135D01*
X51605102Y-110539336D01*
X51673587Y-110374000D01*
X51708500Y-110198479D01*
X51708500Y-110019521D01*
X51673587Y-109844000D01*
X51667209Y-109828602D01*
X51635707Y-109752549D01*
X51635706Y-109752547D01*
X51618297Y-109710518D01*
X92291500Y-109710518D01*
X92291500Y-109889481D01*
X92326414Y-110065003D01*
X92331244Y-110076664D01*
X92394898Y-110230336D01*
X92494322Y-110379135D01*
X92620865Y-110505678D01*
X92769664Y-110605102D01*
X92935000Y-110673587D01*
X93110521Y-110708500D01*
X93110522Y-110708500D01*
X93289478Y-110708500D01*
X93289479Y-110708500D01*
X93465000Y-110673587D01*
X93630336Y-110605102D01*
X93779135Y-110505678D01*
X93867295Y-110417518D01*
X114076500Y-110417518D01*
X114076500Y-110596481D01*
X114078215Y-110605102D01*
X114111413Y-110772000D01*
X114179898Y-110937336D01*
X114279322Y-111086135D01*
X114405865Y-111212678D01*
X114554664Y-111312102D01*
X114720000Y-111380587D01*
X114895521Y-111415500D01*
X114895522Y-111415500D01*
X115074478Y-111415500D01*
X115074479Y-111415500D01*
X115250000Y-111380587D01*
X115415336Y-111312102D01*
X115564135Y-111212678D01*
X115690678Y-111086135D01*
X115790102Y-110937336D01*
X115858587Y-110772000D01*
X115893500Y-110596479D01*
X115893500Y-110417521D01*
X115858587Y-110242000D01*
X115790102Y-110076664D01*
X115690678Y-109927865D01*
X115564135Y-109801322D01*
X115415336Y-109701898D01*
X115298429Y-109653473D01*
X115250003Y-109633414D01*
X115250001Y-109633413D01*
X115250000Y-109633413D01*
X115161645Y-109615838D01*
X115074481Y-109598500D01*
X115074479Y-109598500D01*
X114895521Y-109598500D01*
X114895518Y-109598500D01*
X114764771Y-109624507D01*
X114720000Y-109633413D01*
X114719999Y-109633413D01*
X114719996Y-109633414D01*
X114554662Y-109701899D01*
X114405869Y-109801319D01*
X114405862Y-109801324D01*
X114279324Y-109927862D01*
X114279319Y-109927869D01*
X114179899Y-110076662D01*
X114111414Y-110241996D01*
X114076500Y-110417518D01*
X93867295Y-110417518D01*
X93905678Y-110379135D01*
X93909109Y-110374000D01*
X93930939Y-110341330D01*
X93930939Y-110341329D01*
X94005102Y-110230336D01*
X94073587Y-110065000D01*
X94108500Y-109889479D01*
X94108500Y-109710521D01*
X94073587Y-109535000D01*
X94005102Y-109369664D01*
X93905678Y-109220865D01*
X93779135Y-109094322D01*
X93630336Y-108994898D01*
X93483370Y-108934022D01*
X93483360Y-108934018D01*
X103910000Y-108934018D01*
X103910000Y-108934021D01*
X103910000Y-109112979D01*
X103943421Y-109281000D01*
X103944914Y-109288503D01*
X103964973Y-109336929D01*
X104013398Y-109453836D01*
X104112822Y-109602635D01*
X104239365Y-109729178D01*
X104388164Y-109828602D01*
X104553500Y-109897087D01*
X104729021Y-109932000D01*
X104729022Y-109932000D01*
X104907978Y-109932000D01*
X104907979Y-109932000D01*
X105083500Y-109897087D01*
X105248836Y-109828602D01*
X105397635Y-109729178D01*
X105524178Y-109602635D01*
X105623602Y-109453836D01*
X105692087Y-109288500D01*
X105727000Y-109112979D01*
X105727000Y-108934021D01*
X105692087Y-108758500D01*
X105623602Y-108593164D01*
X105524178Y-108444365D01*
X105397635Y-108317822D01*
X105345547Y-108283018D01*
X106977206Y-108283018D01*
X106977206Y-108283021D01*
X106977206Y-108461979D01*
X107012119Y-108637500D01*
X107080604Y-108802836D01*
X107180028Y-108951635D01*
X107306571Y-109078178D01*
X107455370Y-109177602D01*
X107620706Y-109246087D01*
X107796227Y-109281000D01*
X107796228Y-109281000D01*
X107975184Y-109281000D01*
X107975185Y-109281000D01*
X108150706Y-109246087D01*
X108316042Y-109177602D01*
X108464841Y-109078178D01*
X108591384Y-108951635D01*
X108690808Y-108802836D01*
X108759293Y-108637500D01*
X108794206Y-108461979D01*
X108794206Y-108283021D01*
X108759293Y-108107500D01*
X108690808Y-107942164D01*
X108591384Y-107793365D01*
X108464841Y-107666822D01*
X108316042Y-107567398D01*
X108183942Y-107512680D01*
X108150709Y-107498914D01*
X108150707Y-107498913D01*
X108150706Y-107498913D01*
X108062351Y-107481338D01*
X107975187Y-107464000D01*
X107975185Y-107464000D01*
X107796227Y-107464000D01*
X107796224Y-107464000D01*
X107665477Y-107490007D01*
X107620706Y-107498913D01*
X107620705Y-107498913D01*
X107620702Y-107498914D01*
X107455368Y-107567399D01*
X107306575Y-107666819D01*
X107306568Y-107666824D01*
X107180030Y-107793362D01*
X107180025Y-107793369D01*
X107080605Y-107942162D01*
X107012120Y-108107496D01*
X106977206Y-108283018D01*
X105345547Y-108283018D01*
X105248836Y-108218398D01*
X105131929Y-108169973D01*
X105083503Y-108149914D01*
X105083501Y-108149913D01*
X105083500Y-108149913D01*
X104995145Y-108132338D01*
X104907981Y-108115000D01*
X104907979Y-108115000D01*
X104729021Y-108115000D01*
X104729018Y-108115000D01*
X104598271Y-108141007D01*
X104553500Y-108149913D01*
X104553499Y-108149913D01*
X104553496Y-108149914D01*
X104388162Y-108218399D01*
X104239369Y-108317819D01*
X104239362Y-108317824D01*
X104112824Y-108444362D01*
X104112819Y-108444369D01*
X104013399Y-108593162D01*
X103944914Y-108758496D01*
X103910000Y-108934018D01*
X93483360Y-108934018D01*
X93465003Y-108926414D01*
X93465001Y-108926413D01*
X93465000Y-108926413D01*
X93376645Y-108908838D01*
X93289481Y-108891500D01*
X93289479Y-108891500D01*
X93110521Y-108891500D01*
X93110518Y-108891500D01*
X92979771Y-108917507D01*
X92935000Y-108926413D01*
X92934999Y-108926413D01*
X92934996Y-108926414D01*
X92769662Y-108994899D01*
X92620869Y-109094319D01*
X92620862Y-109094324D01*
X92494324Y-109220862D01*
X92494319Y-109220869D01*
X92394899Y-109369662D01*
X92326414Y-109534996D01*
X92291500Y-109710518D01*
X51618297Y-109710518D01*
X51605104Y-109678669D01*
X51605102Y-109678664D01*
X51574866Y-109633413D01*
X51505678Y-109529865D01*
X51379135Y-109403322D01*
X51230336Y-109303898D01*
X51090769Y-109246087D01*
X51065003Y-109235414D01*
X51065001Y-109235413D01*
X51065000Y-109235413D01*
X50976645Y-109217838D01*
X50889481Y-109200500D01*
X50889479Y-109200500D01*
X50710521Y-109200500D01*
X50710518Y-109200500D01*
X50608153Y-109220862D01*
X50535000Y-109235413D01*
X50534999Y-109235413D01*
X50534996Y-109235414D01*
X50369662Y-109303899D01*
X50220869Y-109403319D01*
X50220862Y-109403324D01*
X50094324Y-109529862D01*
X50094319Y-109529869D01*
X49994899Y-109678662D01*
X49926414Y-109843996D01*
X49891500Y-110019518D01*
X30025500Y-110019518D01*
X30025500Y-106633016D01*
X36024500Y-106633016D01*
X36024500Y-106891983D01*
X36058299Y-107148721D01*
X36058301Y-107148728D01*
X36125325Y-107398866D01*
X36224426Y-107638116D01*
X36224427Y-107638117D01*
X36224432Y-107638128D01*
X36353904Y-107862380D01*
X36353906Y-107862382D01*
X36353907Y-107862384D01*
X36415123Y-107942162D01*
X36511553Y-108067833D01*
X36511562Y-108067843D01*
X36694656Y-108250937D01*
X36694666Y-108250946D01*
X36694667Y-108250947D01*
X36712985Y-108265003D01*
X36900119Y-108408595D01*
X37124371Y-108538067D01*
X37124375Y-108538068D01*
X37124384Y-108538074D01*
X37363634Y-108637175D01*
X37613772Y-108704199D01*
X37613776Y-108704199D01*
X37613778Y-108704200D01*
X37679949Y-108712911D01*
X37870519Y-108738000D01*
X37870526Y-108738000D01*
X38129474Y-108738000D01*
X38129481Y-108738000D01*
X38375017Y-108705675D01*
X38386221Y-108704200D01*
X38386221Y-108704199D01*
X38386228Y-108704199D01*
X38636366Y-108637175D01*
X38875616Y-108538074D01*
X39099884Y-108408593D01*
X39305333Y-108250947D01*
X39488447Y-108067833D01*
X39609159Y-107910518D01*
X99691500Y-107910518D01*
X99691500Y-108089481D01*
X99695283Y-108108499D01*
X99717143Y-108218398D01*
X99726414Y-108265003D01*
X99733878Y-108283022D01*
X99794898Y-108430336D01*
X99894322Y-108579135D01*
X100020865Y-108705678D01*
X100169664Y-108805102D01*
X100335000Y-108873587D01*
X100510521Y-108908500D01*
X100510522Y-108908500D01*
X100689478Y-108908500D01*
X100689479Y-108908500D01*
X100865000Y-108873587D01*
X101030336Y-108805102D01*
X101179135Y-108705678D01*
X101305678Y-108579135D01*
X101405102Y-108430336D01*
X101473587Y-108265000D01*
X101508500Y-108089479D01*
X101508500Y-107910521D01*
X101473587Y-107735000D01*
X101405102Y-107569664D01*
X101305678Y-107420865D01*
X101179135Y-107294322D01*
X101030336Y-107194898D01*
X100918856Y-107148721D01*
X100865003Y-107126414D01*
X100865001Y-107126413D01*
X100865000Y-107126413D01*
X100785091Y-107110518D01*
X118691500Y-107110518D01*
X118691500Y-107289481D01*
X118708838Y-107376645D01*
X118726413Y-107465000D01*
X118794898Y-107630336D01*
X118894322Y-107779135D01*
X119020865Y-107905678D01*
X119169664Y-108005102D01*
X119335000Y-108073587D01*
X119510521Y-108108500D01*
X119510522Y-108108500D01*
X119689478Y-108108500D01*
X119689479Y-108108500D01*
X119865000Y-108073587D01*
X120030336Y-108005102D01*
X120179135Y-107905678D01*
X120305678Y-107779135D01*
X120405102Y-107630336D01*
X120473587Y-107465000D01*
X120508500Y-107289479D01*
X120508500Y-107110521D01*
X120473587Y-106935000D01*
X120405102Y-106769664D01*
X120305678Y-106620865D01*
X120179135Y-106494322D01*
X120030336Y-106394898D01*
X119913429Y-106346473D01*
X119865003Y-106326414D01*
X119865001Y-106326413D01*
X119865000Y-106326413D01*
X119776645Y-106308838D01*
X119689481Y-106291500D01*
X119689479Y-106291500D01*
X119510521Y-106291500D01*
X119510518Y-106291500D01*
X119379771Y-106317507D01*
X119335000Y-106326413D01*
X119334999Y-106326413D01*
X119334996Y-106326414D01*
X119169662Y-106394899D01*
X119020869Y-106494319D01*
X119020862Y-106494324D01*
X118894324Y-106620862D01*
X118894319Y-106620869D01*
X118794899Y-106769662D01*
X118726414Y-106934996D01*
X118691500Y-107110518D01*
X100785091Y-107110518D01*
X100776645Y-107108838D01*
X100689481Y-107091500D01*
X100689479Y-107091500D01*
X100510521Y-107091500D01*
X100510518Y-107091500D01*
X100379771Y-107117507D01*
X100335000Y-107126413D01*
X100334999Y-107126413D01*
X100334996Y-107126414D01*
X100169662Y-107194899D01*
X100020869Y-107294319D01*
X100020862Y-107294324D01*
X99894324Y-107420862D01*
X99894319Y-107420869D01*
X99794899Y-107569662D01*
X99726414Y-107734996D01*
X99691500Y-107910518D01*
X39609159Y-107910518D01*
X39646093Y-107862384D01*
X39775574Y-107638116D01*
X39874675Y-107398866D01*
X39941699Y-107148728D01*
X39975500Y-106891981D01*
X39975500Y-106717518D01*
X61956500Y-106717518D01*
X61956500Y-106717521D01*
X61956500Y-106896479D01*
X61991413Y-107072000D01*
X62059898Y-107237336D01*
X62159322Y-107386135D01*
X62285865Y-107512678D01*
X62434664Y-107612102D01*
X62600000Y-107680587D01*
X62775521Y-107715500D01*
X62775522Y-107715500D01*
X62954478Y-107715500D01*
X62954479Y-107715500D01*
X63130000Y-107680587D01*
X63295336Y-107612102D01*
X63444135Y-107512678D01*
X63570678Y-107386135D01*
X63670102Y-107237336D01*
X63738587Y-107072000D01*
X63773500Y-106896479D01*
X63773500Y-106717521D01*
X63738587Y-106542000D01*
X63670102Y-106376664D01*
X63570678Y-106227865D01*
X63444135Y-106101322D01*
X63295336Y-106001898D01*
X63178429Y-105953473D01*
X63130003Y-105933414D01*
X63130001Y-105933413D01*
X63130000Y-105933413D01*
X63041645Y-105915838D01*
X62954481Y-105898500D01*
X62954479Y-105898500D01*
X62775521Y-105898500D01*
X62775518Y-105898500D01*
X62644771Y-105924507D01*
X62600000Y-105933413D01*
X62599999Y-105933413D01*
X62599996Y-105933414D01*
X62434662Y-106001899D01*
X62285869Y-106101319D01*
X62285862Y-106101324D01*
X62159324Y-106227862D01*
X62159319Y-106227869D01*
X62059899Y-106376662D01*
X61991414Y-106541996D01*
X61956500Y-106717518D01*
X39975500Y-106717518D01*
X39975500Y-106633019D01*
X39941751Y-106376664D01*
X39941700Y-106376278D01*
X39941699Y-106376276D01*
X39941699Y-106376272D01*
X39874675Y-106126134D01*
X39775574Y-105886884D01*
X39775568Y-105886875D01*
X39775567Y-105886871D01*
X39646095Y-105662619D01*
X39488446Y-105457166D01*
X39488437Y-105457156D01*
X39305343Y-105274062D01*
X39305333Y-105274053D01*
X39099880Y-105116404D01*
X38875628Y-104986932D01*
X38875620Y-104986928D01*
X38875616Y-104986926D01*
X38636366Y-104887825D01*
X38421817Y-104830337D01*
X38386221Y-104820799D01*
X38129483Y-104787000D01*
X38129481Y-104787000D01*
X37870519Y-104787000D01*
X37870516Y-104787000D01*
X37613778Y-104820799D01*
X37363634Y-104887825D01*
X37143189Y-104979137D01*
X37124382Y-104986927D01*
X37124371Y-104986932D01*
X36900119Y-105116404D01*
X36694666Y-105274053D01*
X36694656Y-105274062D01*
X36511562Y-105457156D01*
X36511553Y-105457166D01*
X36353904Y-105662619D01*
X36224432Y-105886871D01*
X36224427Y-105886882D01*
X36224426Y-105886884D01*
X36176785Y-106001899D01*
X36125325Y-106126134D01*
X36058299Y-106376278D01*
X36024500Y-106633016D01*
X30025500Y-106633016D01*
X30025500Y-101396970D01*
X39840500Y-101396970D01*
X39840500Y-101587029D01*
X39870232Y-101774759D01*
X39902846Y-101875132D01*
X39928966Y-101955519D01*
X40015253Y-102124868D01*
X40015257Y-102124873D01*
X40015259Y-102124877D01*
X40070700Y-102201185D01*
X40126970Y-102278634D01*
X40126972Y-102278636D01*
X40126974Y-102278639D01*
X40261360Y-102413025D01*
X40261363Y-102413027D01*
X40261366Y-102413030D01*
X40388190Y-102505172D01*
X40403221Y-102518011D01*
X40969959Y-103084749D01*
X40878236Y-103109326D01*
X40776764Y-103167911D01*
X40693911Y-103250764D01*
X40635326Y-103352236D01*
X40610749Y-103443958D01*
X40034724Y-102867933D01*
X40017680Y-102891395D01*
X39931430Y-103060671D01*
X39931427Y-103060677D01*
X39872722Y-103241355D01*
X39843000Y-103429010D01*
X39843000Y-103618989D01*
X39872722Y-103806644D01*
X39931427Y-103987322D01*
X39931430Y-103987328D01*
X40017679Y-104156603D01*
X40017683Y-104156608D01*
X40034723Y-104180064D01*
X40610748Y-103604039D01*
X40635326Y-103695764D01*
X40693911Y-103797236D01*
X40776764Y-103880089D01*
X40878236Y-103938674D01*
X40969957Y-103963250D01*
X40393933Y-104539274D01*
X40417389Y-104556315D01*
X40417396Y-104556320D01*
X40586671Y-104642569D01*
X40586677Y-104642572D01*
X40767355Y-104701277D01*
X40955010Y-104731000D01*
X41144990Y-104731000D01*
X41332644Y-104701277D01*
X41513322Y-104642572D01*
X41513328Y-104642569D01*
X41687017Y-104554071D01*
X41687789Y-104555587D01*
X41749166Y-104538968D01*
X41816848Y-104560407D01*
X41862195Y-104615035D01*
X41872500Y-104664940D01*
X41872500Y-105287649D01*
X41879009Y-105348196D01*
X41879011Y-105348204D01*
X41930110Y-105485202D01*
X41930112Y-105485207D01*
X42017738Y-105602261D01*
X42134792Y-105689887D01*
X42134794Y-105689888D01*
X42134796Y-105689889D01*
X42193875Y-105711924D01*
X42271795Y-105740988D01*
X42271803Y-105740990D01*
X42332350Y-105747499D01*
X42332355Y-105747499D01*
X42332362Y-105747500D01*
X42332368Y-105747500D01*
X43827632Y-105747500D01*
X43827638Y-105747500D01*
X43827645Y-105747499D01*
X43827649Y-105747499D01*
X43888196Y-105740990D01*
X43888199Y-105740989D01*
X43888201Y-105740989D01*
X44025204Y-105689889D01*
X44061633Y-105662619D01*
X44142261Y-105602261D01*
X44229887Y-105485207D01*
X44229887Y-105485206D01*
X44229889Y-105485204D01*
X44280989Y-105348201D01*
X44285258Y-105308499D01*
X44287499Y-105287649D01*
X44287500Y-105287632D01*
X44287500Y-103792367D01*
X44287499Y-103792350D01*
X44280990Y-103731803D01*
X44280989Y-103731802D01*
X44280989Y-103731799D01*
X44229889Y-103594796D01*
X44229887Y-103594794D01*
X44229887Y-103594792D01*
X44222945Y-103585518D01*
X56853500Y-103585518D01*
X56853500Y-103764481D01*
X56870838Y-103851645D01*
X56888149Y-103938674D01*
X56888414Y-103940003D01*
X56900700Y-103969664D01*
X56956898Y-104105336D01*
X57056322Y-104254135D01*
X57182865Y-104380678D01*
X57331664Y-104480102D01*
X57497000Y-104548587D01*
X57672521Y-104583500D01*
X57672522Y-104583500D01*
X57851478Y-104583500D01*
X57851479Y-104583500D01*
X58027000Y-104548587D01*
X58192336Y-104480102D01*
X58341135Y-104380678D01*
X58467678Y-104254135D01*
X58567102Y-104105336D01*
X58635587Y-103940000D01*
X58670500Y-103764479D01*
X58670500Y-103585521D01*
X58655581Y-103510518D01*
X62491500Y-103510518D01*
X62491500Y-103689481D01*
X62503068Y-103747636D01*
X62526413Y-103865000D01*
X62594898Y-104030336D01*
X62694322Y-104179135D01*
X62820865Y-104305678D01*
X62969664Y-104405102D01*
X63135000Y-104473587D01*
X63310521Y-104508500D01*
X63310522Y-104508500D01*
X63489478Y-104508500D01*
X63489479Y-104508500D01*
X63665000Y-104473587D01*
X63830336Y-104405102D01*
X63979135Y-104305678D01*
X64105678Y-104179135D01*
X64205102Y-104030336D01*
X64273587Y-103865000D01*
X64308500Y-103689479D01*
X64308500Y-103510521D01*
X64308499Y-103510518D01*
X93691500Y-103510518D01*
X93691500Y-103689481D01*
X93703068Y-103747636D01*
X93726413Y-103865000D01*
X93794898Y-104030336D01*
X93894322Y-104179135D01*
X94020865Y-104305678D01*
X94169664Y-104405102D01*
X94335000Y-104473587D01*
X94510521Y-104508500D01*
X94510522Y-104508500D01*
X94689478Y-104508500D01*
X94689479Y-104508500D01*
X94865000Y-104473587D01*
X95030336Y-104405102D01*
X95171891Y-104310518D01*
X119691500Y-104310518D01*
X119691500Y-104489481D01*
X119704794Y-104556315D01*
X119721951Y-104642569D01*
X119726414Y-104665003D01*
X119746473Y-104713429D01*
X119794898Y-104830336D01*
X119894322Y-104979135D01*
X120020865Y-105105678D01*
X120169664Y-105205102D01*
X120335000Y-105273587D01*
X120510521Y-105308500D01*
X120510522Y-105308500D01*
X120689478Y-105308500D01*
X120689479Y-105308500D01*
X120865000Y-105273587D01*
X121030336Y-105205102D01*
X121179135Y-105105678D01*
X121305678Y-104979135D01*
X121405102Y-104830336D01*
X121473587Y-104665000D01*
X121508500Y-104489479D01*
X121508500Y-104310521D01*
X121473587Y-104135000D01*
X121405102Y-103969664D01*
X121305678Y-103820865D01*
X121179135Y-103694322D01*
X121030336Y-103594898D01*
X120913429Y-103546473D01*
X120865003Y-103526414D01*
X120865001Y-103526413D01*
X120865000Y-103526413D01*
X120776645Y-103508838D01*
X120689481Y-103491500D01*
X120689479Y-103491500D01*
X120510521Y-103491500D01*
X120510518Y-103491500D01*
X120379771Y-103517507D01*
X120335000Y-103526413D01*
X120334999Y-103526413D01*
X120334996Y-103526414D01*
X120203902Y-103580716D01*
X120169911Y-103594796D01*
X120169662Y-103594899D01*
X120020869Y-103694319D01*
X120020862Y-103694324D01*
X119894324Y-103820862D01*
X119894319Y-103820869D01*
X119794899Y-103969662D01*
X119726414Y-104134996D01*
X119691500Y-104310518D01*
X95171891Y-104310518D01*
X95179135Y-104305678D01*
X95305678Y-104179135D01*
X95405102Y-104030336D01*
X95473587Y-103865000D01*
X95508500Y-103689479D01*
X95508500Y-103510521D01*
X95473587Y-103335000D01*
X95405102Y-103169664D01*
X95305678Y-103020865D01*
X95179135Y-102894322D01*
X95030336Y-102794898D01*
X94913429Y-102746473D01*
X94865003Y-102726414D01*
X94865001Y-102726413D01*
X94865000Y-102726413D01*
X94776645Y-102708838D01*
X94689481Y-102691500D01*
X94689479Y-102691500D01*
X94510521Y-102691500D01*
X94510518Y-102691500D01*
X94379771Y-102717507D01*
X94335000Y-102726413D01*
X94334999Y-102726413D01*
X94334996Y-102726414D01*
X94238222Y-102766500D01*
X94179657Y-102790759D01*
X94169662Y-102794899D01*
X94020869Y-102894319D01*
X94020862Y-102894324D01*
X93894324Y-103020862D01*
X93894319Y-103020869D01*
X93794899Y-103169662D01*
X93726414Y-103334996D01*
X93726413Y-103334999D01*
X93726413Y-103335000D01*
X93720972Y-103362356D01*
X93691500Y-103510518D01*
X64308499Y-103510518D01*
X64273587Y-103335000D01*
X64205102Y-103169664D01*
X64105678Y-103020865D01*
X63979135Y-102894322D01*
X63830336Y-102794898D01*
X63713429Y-102746473D01*
X63665003Y-102726414D01*
X63665001Y-102726413D01*
X63665000Y-102726413D01*
X63576645Y-102708838D01*
X63489481Y-102691500D01*
X63489479Y-102691500D01*
X63310521Y-102691500D01*
X63310518Y-102691500D01*
X63179771Y-102717507D01*
X63135000Y-102726413D01*
X63134999Y-102726413D01*
X63134996Y-102726414D01*
X63038222Y-102766500D01*
X62979657Y-102790759D01*
X62969662Y-102794899D01*
X62820869Y-102894319D01*
X62820862Y-102894324D01*
X62694324Y-103020862D01*
X62694319Y-103020869D01*
X62594899Y-103169662D01*
X62526414Y-103334996D01*
X62526413Y-103334999D01*
X62526413Y-103335000D01*
X62520972Y-103362356D01*
X62491500Y-103510518D01*
X58655581Y-103510518D01*
X58635587Y-103410000D01*
X58567102Y-103244664D01*
X58467678Y-103095865D01*
X58341135Y-102969322D01*
X58192336Y-102869898D01*
X58075429Y-102821473D01*
X58027003Y-102801414D01*
X58027001Y-102801413D01*
X58027000Y-102801413D01*
X57938645Y-102783838D01*
X57851481Y-102766500D01*
X57851479Y-102766500D01*
X57672521Y-102766500D01*
X57672518Y-102766500D01*
X57550572Y-102790757D01*
X57497000Y-102801413D01*
X57496999Y-102801413D01*
X57496996Y-102801414D01*
X57331662Y-102869899D01*
X57182869Y-102969319D01*
X57182862Y-102969324D01*
X57056324Y-103095862D01*
X57056319Y-103095869D01*
X56956899Y-103244662D01*
X56888414Y-103409996D01*
X56853500Y-103585518D01*
X44222945Y-103585518D01*
X44142261Y-103477738D01*
X44064052Y-103419192D01*
X44021505Y-103362356D01*
X44016441Y-103291541D01*
X44037621Y-103244269D01*
X44112747Y-103140868D01*
X44199034Y-102971519D01*
X44257768Y-102790757D01*
X44287500Y-102603032D01*
X44287500Y-102412968D01*
X44257768Y-102225243D01*
X44199034Y-102044481D01*
X44112747Y-101875132D01*
X44001030Y-101721366D01*
X44001027Y-101721363D01*
X44001025Y-101721360D01*
X43879347Y-101599682D01*
X43879342Y-101599678D01*
X43866634Y-101586970D01*
X43761407Y-101510518D01*
X120891500Y-101510518D01*
X120891500Y-101689481D01*
X120908463Y-101774757D01*
X120926413Y-101865000D01*
X120994898Y-102030336D01*
X121094322Y-102179135D01*
X121220865Y-102305678D01*
X121369664Y-102405102D01*
X121535000Y-102473587D01*
X121710521Y-102508500D01*
X121710522Y-102508500D01*
X121889478Y-102508500D01*
X121889479Y-102508500D01*
X122065000Y-102473587D01*
X122230336Y-102405102D01*
X122379135Y-102305678D01*
X122505678Y-102179135D01*
X122605102Y-102030336D01*
X122673587Y-101865000D01*
X122708500Y-101689479D01*
X122708500Y-101510521D01*
X122673587Y-101335000D01*
X122605102Y-101169664D01*
X122505678Y-101020865D01*
X122379135Y-100894322D01*
X122230336Y-100794898D01*
X122109148Y-100744700D01*
X122065003Y-100726414D01*
X122065001Y-100726413D01*
X122065000Y-100726413D01*
X121959159Y-100705360D01*
X121889481Y-100691500D01*
X121889479Y-100691500D01*
X121710521Y-100691500D01*
X121710518Y-100691500D01*
X121579771Y-100717507D01*
X121535000Y-100726413D01*
X121534999Y-100726413D01*
X121534996Y-100726414D01*
X121369662Y-100794899D01*
X121220869Y-100894319D01*
X121220862Y-100894324D01*
X121094324Y-101020862D01*
X121094319Y-101020869D01*
X120994899Y-101169662D01*
X120926414Y-101334996D01*
X120891500Y-101510518D01*
X43761407Y-101510518D01*
X43746292Y-101499536D01*
X43745414Y-101498876D01*
X43745014Y-101498338D01*
X43732090Y-101487300D01*
X43160040Y-100915250D01*
X43251764Y-100890674D01*
X43353236Y-100832089D01*
X43436089Y-100749236D01*
X43494674Y-100647764D01*
X43519250Y-100556041D01*
X44095273Y-101132064D01*
X44095274Y-101132064D01*
X44112318Y-101108605D01*
X44198569Y-100939328D01*
X44198572Y-100939322D01*
X44257277Y-100758644D01*
X44287000Y-100570989D01*
X44287000Y-100381010D01*
X44257277Y-100193355D01*
X44198572Y-100012677D01*
X44198569Y-100012671D01*
X44112320Y-99843396D01*
X44112315Y-99843389D01*
X44095274Y-99819933D01*
X43519250Y-100395958D01*
X43494674Y-100304236D01*
X43436089Y-100202764D01*
X43353236Y-100119911D01*
X43251764Y-100061326D01*
X43160040Y-100036749D01*
X43736065Y-99460724D01*
X43712608Y-99443683D01*
X43712603Y-99443679D01*
X43543328Y-99357430D01*
X43543322Y-99357427D01*
X43362644Y-99298722D01*
X43174990Y-99269000D01*
X42985010Y-99269000D01*
X42797355Y-99298722D01*
X42616677Y-99357427D01*
X42616671Y-99357430D01*
X42447382Y-99443687D01*
X42446428Y-99444272D01*
X42446017Y-99444383D01*
X42442983Y-99445929D01*
X42442657Y-99445291D01*
X42377891Y-99462798D01*
X42310218Y-99441328D01*
X42264895Y-99386681D01*
X42256165Y-99356542D01*
X42227768Y-99177243D01*
X42169034Y-98996481D01*
X42082747Y-98827132D01*
X41971030Y-98673366D01*
X41971027Y-98673363D01*
X41971025Y-98673360D01*
X41836639Y-98538974D01*
X41836636Y-98538972D01*
X41836634Y-98538970D01*
X41759185Y-98482700D01*
X41682877Y-98427259D01*
X41682873Y-98427257D01*
X41682868Y-98427253D01*
X41513519Y-98340966D01*
X41513518Y-98340965D01*
X41513517Y-98340965D01*
X41332759Y-98282232D01*
X41238894Y-98267366D01*
X41145032Y-98252500D01*
X40954968Y-98252500D01*
X40879878Y-98264392D01*
X40767240Y-98282232D01*
X40586482Y-98340965D01*
X40501806Y-98384109D01*
X40417132Y-98427253D01*
X40417131Y-98427254D01*
X40417122Y-98427259D01*
X40263363Y-98538972D01*
X40263360Y-98538974D01*
X40128974Y-98673360D01*
X40128972Y-98673363D01*
X40017259Y-98827122D01*
X40017254Y-98827129D01*
X40017253Y-98827132D01*
X39997957Y-98865003D01*
X39930965Y-98996482D01*
X39872232Y-99177240D01*
X39857699Y-99269000D01*
X39843695Y-99357427D01*
X39842500Y-99364970D01*
X39842500Y-99555029D01*
X39872232Y-99742759D01*
X39904932Y-99843396D01*
X39930966Y-99923519D01*
X40017253Y-100092868D01*
X40017257Y-100092873D01*
X40017259Y-100092877D01*
X40072700Y-100169185D01*
X40128970Y-100246634D01*
X40128972Y-100246636D01*
X40128974Y-100246639D01*
X40266866Y-100384531D01*
X40265597Y-100385799D01*
X40300185Y-100438768D01*
X40300701Y-100509763D01*
X40264461Y-100567064D01*
X40264866Y-100567469D01*
X40263071Y-100569263D01*
X40262753Y-100569767D01*
X40261401Y-100570938D01*
X40261373Y-100570961D01*
X40126974Y-100705360D01*
X40126972Y-100705363D01*
X40015259Y-100859122D01*
X40015254Y-100859129D01*
X40015253Y-100859132D01*
X39997323Y-100894322D01*
X39928965Y-101028482D01*
X39870232Y-101209240D01*
X39870232Y-101209243D01*
X39841768Y-101388966D01*
X39840500Y-101396970D01*
X30025500Y-101396970D01*
X30025500Y-97108016D01*
X36024500Y-97108016D01*
X36024500Y-97366983D01*
X36058299Y-97623721D01*
X36058301Y-97623728D01*
X36125325Y-97873866D01*
X36224426Y-98113116D01*
X36224427Y-98113117D01*
X36224432Y-98113128D01*
X36353904Y-98337380D01*
X36511553Y-98542833D01*
X36511562Y-98542843D01*
X36694656Y-98725937D01*
X36694666Y-98725946D01*
X36694667Y-98725947D01*
X36826534Y-98827132D01*
X36900119Y-98883595D01*
X37124371Y-99013067D01*
X37124375Y-99013068D01*
X37124384Y-99013074D01*
X37363634Y-99112175D01*
X37613772Y-99179199D01*
X37613776Y-99179199D01*
X37613778Y-99179200D01*
X37679949Y-99187911D01*
X37870519Y-99213000D01*
X37870526Y-99213000D01*
X38129474Y-99213000D01*
X38129481Y-99213000D01*
X38361514Y-99182452D01*
X38386221Y-99179200D01*
X38386221Y-99179199D01*
X38386228Y-99179199D01*
X38636366Y-99112175D01*
X38875616Y-99013074D01*
X39099884Y-98883593D01*
X39305333Y-98725947D01*
X39488447Y-98542833D01*
X39646093Y-98337384D01*
X39775574Y-98113116D01*
X39874675Y-97873866D01*
X39941699Y-97623728D01*
X39975500Y-97366981D01*
X39975500Y-97108019D01*
X39963092Y-97013774D01*
X39950850Y-96920777D01*
X39949499Y-96910518D01*
X50091500Y-96910518D01*
X50091500Y-97089481D01*
X50095189Y-97108026D01*
X50126413Y-97265000D01*
X50194898Y-97430336D01*
X50294322Y-97579135D01*
X50294324Y-97579137D01*
X50425242Y-97710055D01*
X50423434Y-97711862D01*
X50457098Y-97761319D01*
X50458974Y-97832291D01*
X50424493Y-97889196D01*
X50425242Y-97889945D01*
X50422191Y-97892995D01*
X50422182Y-97893011D01*
X50422137Y-97893049D01*
X50294324Y-98020862D01*
X50294319Y-98020869D01*
X50194899Y-98169662D01*
X50126414Y-98334996D01*
X50126413Y-98334999D01*
X50126413Y-98335000D01*
X50125226Y-98340966D01*
X50091500Y-98510518D01*
X50091500Y-98689481D01*
X50098754Y-98725947D01*
X50118880Y-98827131D01*
X50126414Y-98865003D01*
X50134115Y-98883595D01*
X50194898Y-99030336D01*
X50294322Y-99179135D01*
X50420865Y-99305678D01*
X50569664Y-99405102D01*
X50735000Y-99473587D01*
X50910521Y-99508500D01*
X50910522Y-99508500D01*
X51089478Y-99508500D01*
X51089479Y-99508500D01*
X51265000Y-99473587D01*
X51430336Y-99405102D01*
X51579135Y-99305678D01*
X51705678Y-99179135D01*
X51805102Y-99030336D01*
X51873587Y-98865000D01*
X51908500Y-98689479D01*
X51908500Y-98510521D01*
X51873587Y-98335000D01*
X51805102Y-98169664D01*
X51705678Y-98020865D01*
X51579135Y-97894322D01*
X51579134Y-97894321D01*
X51574757Y-97889944D01*
X51576574Y-97888126D01*
X51542925Y-97838750D01*
X51541007Y-97767779D01*
X51575492Y-97710791D01*
X51574757Y-97710056D01*
X51577747Y-97707065D01*
X51577764Y-97707038D01*
X51577846Y-97706966D01*
X51579131Y-97705680D01*
X51579135Y-97705678D01*
X51705678Y-97579135D01*
X51805102Y-97430336D01*
X51873587Y-97265000D01*
X51908500Y-97089479D01*
X51908500Y-96910521D01*
X51873587Y-96735000D01*
X51805102Y-96569664D01*
X51705678Y-96420865D01*
X51579135Y-96294322D01*
X51430336Y-96194898D01*
X51313429Y-96146473D01*
X51265003Y-96126414D01*
X51265001Y-96126413D01*
X51265000Y-96126413D01*
X51176645Y-96108838D01*
X51089481Y-96091500D01*
X51089479Y-96091500D01*
X50910521Y-96091500D01*
X50910518Y-96091500D01*
X50779771Y-96117507D01*
X50735000Y-96126413D01*
X50734999Y-96126413D01*
X50734996Y-96126414D01*
X50569662Y-96194899D01*
X50420869Y-96294319D01*
X50420862Y-96294324D01*
X50294324Y-96420862D01*
X50294319Y-96420869D01*
X50194899Y-96569662D01*
X50126414Y-96734996D01*
X50091500Y-96910518D01*
X39949499Y-96910518D01*
X39941700Y-96851279D01*
X39941699Y-96851278D01*
X39941699Y-96851272D01*
X39874675Y-96601134D01*
X39775574Y-96361884D01*
X39775568Y-96361875D01*
X39775567Y-96361871D01*
X39646095Y-96137619D01*
X39637496Y-96126413D01*
X39488447Y-95932167D01*
X39488446Y-95932166D01*
X39488437Y-95932156D01*
X39305343Y-95749062D01*
X39305333Y-95749053D01*
X39099880Y-95591404D01*
X38875628Y-95461932D01*
X38875620Y-95461928D01*
X38875616Y-95461926D01*
X38636366Y-95362825D01*
X38386228Y-95295801D01*
X38386221Y-95295799D01*
X38129483Y-95262000D01*
X38129481Y-95262000D01*
X37870519Y-95262000D01*
X37870516Y-95262000D01*
X37613778Y-95295799D01*
X37363634Y-95362825D01*
X37124382Y-95461927D01*
X37124371Y-95461932D01*
X36900119Y-95591404D01*
X36694666Y-95749053D01*
X36694656Y-95749062D01*
X36511562Y-95932156D01*
X36511553Y-95932166D01*
X36353904Y-96137619D01*
X36224432Y-96361871D01*
X36224427Y-96361882D01*
X36224426Y-96361884D01*
X36199995Y-96420865D01*
X36125325Y-96601134D01*
X36058299Y-96851278D01*
X36024500Y-97108016D01*
X30025500Y-97108016D01*
X30025500Y-92633016D01*
X36024500Y-92633016D01*
X36024500Y-92891983D01*
X36058299Y-93148721D01*
X36058301Y-93148728D01*
X36125325Y-93398866D01*
X36224426Y-93638116D01*
X36224427Y-93638117D01*
X36224432Y-93638128D01*
X36353904Y-93862380D01*
X36511553Y-94067833D01*
X36511562Y-94067843D01*
X36694656Y-94250937D01*
X36694666Y-94250946D01*
X36694667Y-94250947D01*
X36707145Y-94260522D01*
X36900119Y-94408595D01*
X37124371Y-94538067D01*
X37124375Y-94538068D01*
X37124384Y-94538074D01*
X37363634Y-94637175D01*
X37613772Y-94704199D01*
X37613776Y-94704199D01*
X37613778Y-94704200D01*
X37679949Y-94712911D01*
X37870519Y-94738000D01*
X37870526Y-94738000D01*
X38129474Y-94738000D01*
X38129481Y-94738000D01*
X38361514Y-94707452D01*
X38386221Y-94704200D01*
X38386221Y-94704199D01*
X38386228Y-94704199D01*
X38636366Y-94637175D01*
X38875616Y-94538074D01*
X39099884Y-94408593D01*
X39227698Y-94310518D01*
X101441500Y-94310518D01*
X101441500Y-94489481D01*
X101451166Y-94538074D01*
X101476413Y-94665000D01*
X101544898Y-94830336D01*
X101644322Y-94979135D01*
X101770865Y-95105678D01*
X101919664Y-95205102D01*
X102085000Y-95273587D01*
X102260521Y-95308500D01*
X102260522Y-95308500D01*
X102439478Y-95308500D01*
X102439479Y-95308500D01*
X102615000Y-95273587D01*
X102780336Y-95205102D01*
X102929135Y-95105678D01*
X103055678Y-94979135D01*
X103155102Y-94830336D01*
X103223587Y-94665000D01*
X103258500Y-94489479D01*
X103258500Y-94310521D01*
X103248554Y-94260521D01*
X103248553Y-94260518D01*
X113191500Y-94260518D01*
X113191500Y-94439481D01*
X113201446Y-94489481D01*
X113226413Y-94615000D01*
X113294898Y-94780336D01*
X113394322Y-94929135D01*
X113520865Y-95055678D01*
X113669664Y-95155102D01*
X113835000Y-95223587D01*
X114010521Y-95258500D01*
X114010522Y-95258500D01*
X114189478Y-95258500D01*
X114189479Y-95258500D01*
X114365000Y-95223587D01*
X114530336Y-95155102D01*
X114679135Y-95055678D01*
X114805678Y-94929135D01*
X114905102Y-94780336D01*
X114973587Y-94615000D01*
X115008500Y-94439479D01*
X115008500Y-94260521D01*
X114973587Y-94085000D01*
X114905102Y-93919664D01*
X114805678Y-93770865D01*
X114679135Y-93644322D01*
X114530336Y-93544898D01*
X114401423Y-93491500D01*
X114365003Y-93476414D01*
X114365001Y-93476413D01*
X114365000Y-93476413D01*
X114276645Y-93458838D01*
X114189481Y-93441500D01*
X114189479Y-93441500D01*
X114010521Y-93441500D01*
X114010518Y-93441500D01*
X113879771Y-93467507D01*
X113835000Y-93476413D01*
X113834999Y-93476413D01*
X113834996Y-93476414D01*
X113669662Y-93544899D01*
X113520869Y-93644319D01*
X113520862Y-93644324D01*
X113394324Y-93770862D01*
X113394319Y-93770869D01*
X113294899Y-93919662D01*
X113226414Y-94084996D01*
X113191500Y-94260518D01*
X103248553Y-94260518D01*
X103245520Y-94245270D01*
X103223587Y-94135000D01*
X103155102Y-93969664D01*
X103055678Y-93820865D01*
X102929135Y-93694322D01*
X102780336Y-93594898D01*
X102659626Y-93544898D01*
X102615003Y-93526414D01*
X102615001Y-93526413D01*
X102615000Y-93526413D01*
X102526645Y-93508838D01*
X102439481Y-93491500D01*
X102439479Y-93491500D01*
X102260521Y-93491500D01*
X102260518Y-93491500D01*
X102129771Y-93517507D01*
X102085000Y-93526413D01*
X102084999Y-93526413D01*
X102084996Y-93526414D01*
X101919662Y-93594899D01*
X101770869Y-93694319D01*
X101770862Y-93694324D01*
X101644324Y-93820862D01*
X101644319Y-93820869D01*
X101544899Y-93969662D01*
X101476414Y-94134996D01*
X101441500Y-94310518D01*
X39227698Y-94310518D01*
X39305333Y-94250947D01*
X39305343Y-94250937D01*
X39341045Y-94215236D01*
X39488437Y-94067843D01*
X39488447Y-94067833D01*
X39646093Y-93862384D01*
X39775574Y-93638116D01*
X39874675Y-93398866D01*
X39941699Y-93148728D01*
X39975500Y-92891981D01*
X39975500Y-92633019D01*
X39941699Y-92376272D01*
X39874675Y-92126134D01*
X39775574Y-91886884D01*
X39775568Y-91886875D01*
X39775567Y-91886871D01*
X39646095Y-91662619D01*
X39601959Y-91605100D01*
X39488447Y-91457167D01*
X39488446Y-91457166D01*
X39488437Y-91457156D01*
X39305343Y-91274062D01*
X39305333Y-91274053D01*
X39099880Y-91116404D01*
X38875628Y-90986932D01*
X38875620Y-90986928D01*
X38875616Y-90986926D01*
X38636366Y-90887825D01*
X38386228Y-90820801D01*
X38386221Y-90820799D01*
X38129483Y-90787000D01*
X38129481Y-90787000D01*
X37870519Y-90787000D01*
X37870516Y-90787000D01*
X37613778Y-90820799D01*
X37363634Y-90887825D01*
X37124382Y-90986927D01*
X37124371Y-90986932D01*
X36900119Y-91116404D01*
X36694666Y-91274053D01*
X36694656Y-91274062D01*
X36511562Y-91457156D01*
X36511553Y-91457166D01*
X36353904Y-91662619D01*
X36224432Y-91886871D01*
X36224427Y-91886882D01*
X36125325Y-92126134D01*
X36058299Y-92376278D01*
X36024500Y-92633016D01*
X30025500Y-92633016D01*
X30025500Y-87396970D01*
X39840500Y-87396970D01*
X39840500Y-87587029D01*
X39870232Y-87774759D01*
X39902846Y-87875132D01*
X39928966Y-87955519D01*
X40015253Y-88124868D01*
X40015257Y-88124873D01*
X40015259Y-88124877D01*
X40070700Y-88201185D01*
X40126970Y-88278634D01*
X40126972Y-88278636D01*
X40126974Y-88278639D01*
X40261360Y-88413025D01*
X40261363Y-88413027D01*
X40261366Y-88413030D01*
X40388190Y-88505172D01*
X40403221Y-88518011D01*
X40969959Y-89084749D01*
X40878236Y-89109326D01*
X40776764Y-89167911D01*
X40693911Y-89250764D01*
X40635326Y-89352236D01*
X40610749Y-89443958D01*
X40034724Y-88867933D01*
X40017680Y-88891395D01*
X39931430Y-89060671D01*
X39931427Y-89060677D01*
X39872722Y-89241355D01*
X39843000Y-89429010D01*
X39843000Y-89618989D01*
X39872722Y-89806644D01*
X39931427Y-89987322D01*
X39931430Y-89987328D01*
X40017679Y-90156603D01*
X40017683Y-90156608D01*
X40034723Y-90180064D01*
X40610748Y-89604039D01*
X40635326Y-89695764D01*
X40693911Y-89797236D01*
X40776764Y-89880089D01*
X40878236Y-89938674D01*
X40969957Y-89963250D01*
X40393933Y-90539274D01*
X40417389Y-90556315D01*
X40417396Y-90556320D01*
X40586671Y-90642569D01*
X40586677Y-90642572D01*
X40767355Y-90701277D01*
X40955010Y-90731000D01*
X41144990Y-90731000D01*
X41332644Y-90701277D01*
X41513322Y-90642572D01*
X41513328Y-90642569D01*
X41687017Y-90554071D01*
X41687789Y-90555587D01*
X41749166Y-90538968D01*
X41816848Y-90560407D01*
X41862195Y-90615035D01*
X41872500Y-90664940D01*
X41872500Y-91287649D01*
X41879009Y-91348196D01*
X41879011Y-91348204D01*
X41930110Y-91485202D01*
X41930112Y-91485207D01*
X42017738Y-91602261D01*
X42134792Y-91689887D01*
X42134794Y-91689888D01*
X42134796Y-91689889D01*
X42184691Y-91708499D01*
X42271795Y-91740988D01*
X42271803Y-91740990D01*
X42332350Y-91747499D01*
X42332355Y-91747499D01*
X42332362Y-91747500D01*
X42332368Y-91747500D01*
X43827632Y-91747500D01*
X43827638Y-91747500D01*
X43827645Y-91747499D01*
X43827649Y-91747499D01*
X43888196Y-91740990D01*
X43888199Y-91740989D01*
X43888201Y-91740989D01*
X44025204Y-91689889D01*
X44061633Y-91662619D01*
X44142261Y-91602261D01*
X44229887Y-91485207D01*
X44229887Y-91485206D01*
X44229889Y-91485204D01*
X44280989Y-91348201D01*
X44287500Y-91287638D01*
X44287500Y-90710518D01*
X108691500Y-90710518D01*
X108691500Y-90710521D01*
X108691500Y-90889479D01*
X108726413Y-91065000D01*
X108794898Y-91230336D01*
X108894322Y-91379135D01*
X109020865Y-91505678D01*
X109169664Y-91605102D01*
X109335000Y-91673587D01*
X109510521Y-91708500D01*
X109510522Y-91708500D01*
X109689478Y-91708500D01*
X109689479Y-91708500D01*
X109865000Y-91673587D01*
X110030336Y-91605102D01*
X110179135Y-91505678D01*
X110305678Y-91379135D01*
X110405102Y-91230336D01*
X110473587Y-91065000D01*
X110508500Y-90889479D01*
X110508500Y-90710521D01*
X110473587Y-90535000D01*
X110405102Y-90369664D01*
X110305678Y-90220865D01*
X110179135Y-90094322D01*
X110030336Y-89994898D01*
X109913429Y-89946473D01*
X109865003Y-89926414D01*
X109865001Y-89926413D01*
X109865000Y-89926413D01*
X109776645Y-89908838D01*
X109689481Y-89891500D01*
X109689479Y-89891500D01*
X109510521Y-89891500D01*
X109510518Y-89891500D01*
X109379771Y-89917507D01*
X109335000Y-89926413D01*
X109334999Y-89926413D01*
X109334996Y-89926414D01*
X109203902Y-89980716D01*
X109187940Y-89987328D01*
X109169662Y-89994899D01*
X109020869Y-90094319D01*
X109020862Y-90094324D01*
X108894324Y-90220862D01*
X108894319Y-90220869D01*
X108794899Y-90369662D01*
X108726414Y-90534996D01*
X108691500Y-90710518D01*
X44287500Y-90710518D01*
X44287500Y-89792362D01*
X44282692Y-89747636D01*
X44280990Y-89731803D01*
X44280988Y-89731795D01*
X44251924Y-89653875D01*
X44229889Y-89594796D01*
X44229888Y-89594794D01*
X44229887Y-89594792D01*
X44142261Y-89477738D01*
X44064052Y-89419192D01*
X44021505Y-89362356D01*
X44016441Y-89291541D01*
X44037621Y-89244269D01*
X44112747Y-89140868D01*
X44199034Y-88971519D01*
X44257768Y-88790757D01*
X44287500Y-88603032D01*
X44287500Y-88412968D01*
X44257768Y-88225243D01*
X44199034Y-88044481D01*
X44112747Y-87875132D01*
X44001030Y-87721366D01*
X44001027Y-87721363D01*
X44001025Y-87721360D01*
X43866639Y-87586974D01*
X43866636Y-87586972D01*
X43866634Y-87586970D01*
X43747124Y-87500141D01*
X43732090Y-87487300D01*
X43555308Y-87310518D01*
X106691500Y-87310518D01*
X106691500Y-87489481D01*
X106708838Y-87576645D01*
X106726413Y-87665000D01*
X106794898Y-87830336D01*
X106894322Y-87979135D01*
X107020865Y-88105678D01*
X107169664Y-88205102D01*
X107335000Y-88273587D01*
X107510521Y-88308500D01*
X107510522Y-88308500D01*
X107689478Y-88308500D01*
X107689479Y-88308500D01*
X107865000Y-88273587D01*
X108030336Y-88205102D01*
X108179135Y-88105678D01*
X108305678Y-87979135D01*
X108405102Y-87830336D01*
X108473587Y-87665000D01*
X108508500Y-87489479D01*
X108508500Y-87310521D01*
X108473587Y-87135000D01*
X108405102Y-86969664D01*
X108305678Y-86820865D01*
X108179135Y-86694322D01*
X108030336Y-86594898D01*
X107884729Y-86534585D01*
X107865003Y-86526414D01*
X107865001Y-86526413D01*
X107865000Y-86526413D01*
X107776645Y-86508838D01*
X107689481Y-86491500D01*
X107689479Y-86491500D01*
X107510521Y-86491500D01*
X107510518Y-86491500D01*
X107379771Y-86517507D01*
X107335000Y-86526413D01*
X107334999Y-86526413D01*
X107334996Y-86526414D01*
X107169662Y-86594899D01*
X107020869Y-86694319D01*
X107020862Y-86694324D01*
X106894324Y-86820862D01*
X106894319Y-86820869D01*
X106794899Y-86969662D01*
X106726414Y-87134996D01*
X106691500Y-87310518D01*
X43555308Y-87310518D01*
X43160040Y-86915250D01*
X43251764Y-86890674D01*
X43353236Y-86832089D01*
X43436089Y-86749236D01*
X43494674Y-86647764D01*
X43519250Y-86556041D01*
X44095273Y-87132064D01*
X44095274Y-87132064D01*
X44112318Y-87108605D01*
X44198569Y-86939328D01*
X44198572Y-86939322D01*
X44257277Y-86758644D01*
X44287000Y-86570989D01*
X44287000Y-86381010D01*
X44257277Y-86193355D01*
X44198572Y-86012677D01*
X44198569Y-86012671D01*
X44112320Y-85843396D01*
X44112315Y-85843389D01*
X44095274Y-85819933D01*
X43519250Y-86395958D01*
X43494674Y-86304236D01*
X43436089Y-86202764D01*
X43353236Y-86119911D01*
X43251764Y-86061326D01*
X43160040Y-86036749D01*
X43736065Y-85460724D01*
X43712608Y-85443683D01*
X43712603Y-85443679D01*
X43543328Y-85357430D01*
X43543322Y-85357427D01*
X43362644Y-85298722D01*
X43174990Y-85269000D01*
X42985010Y-85269000D01*
X42797355Y-85298722D01*
X42616677Y-85357427D01*
X42616671Y-85357430D01*
X42447382Y-85443687D01*
X42446428Y-85444272D01*
X42446017Y-85444383D01*
X42442983Y-85445929D01*
X42442657Y-85445291D01*
X42377891Y-85462798D01*
X42310218Y-85441328D01*
X42264895Y-85386681D01*
X42256165Y-85356542D01*
X42227768Y-85177243D01*
X42169034Y-84996481D01*
X42082747Y-84827132D01*
X41971030Y-84673366D01*
X41971027Y-84673363D01*
X41971025Y-84673360D01*
X41836639Y-84538974D01*
X41836636Y-84538972D01*
X41836634Y-84538970D01*
X41759185Y-84482700D01*
X41682877Y-84427259D01*
X41682873Y-84427257D01*
X41682868Y-84427253D01*
X41513519Y-84340966D01*
X41513518Y-84340965D01*
X41513517Y-84340965D01*
X41332759Y-84282232D01*
X41238894Y-84267366D01*
X41145032Y-84252500D01*
X40954968Y-84252500D01*
X40879878Y-84264392D01*
X40767240Y-84282232D01*
X40586482Y-84340965D01*
X40501806Y-84384109D01*
X40417132Y-84427253D01*
X40417131Y-84427254D01*
X40417122Y-84427259D01*
X40263363Y-84538972D01*
X40263360Y-84538974D01*
X40128974Y-84673360D01*
X40128972Y-84673363D01*
X40017259Y-84827122D01*
X40017254Y-84827131D01*
X39930965Y-84996482D01*
X39872232Y-85177240D01*
X39857699Y-85269000D01*
X39843695Y-85357427D01*
X39842500Y-85364970D01*
X39842500Y-85555029D01*
X39872232Y-85742759D01*
X39904932Y-85843396D01*
X39930966Y-85923519D01*
X40017253Y-86092868D01*
X40017257Y-86092873D01*
X40017259Y-86092877D01*
X40072700Y-86169185D01*
X40128970Y-86246634D01*
X40128972Y-86246636D01*
X40128974Y-86246639D01*
X40266866Y-86384531D01*
X40265597Y-86385799D01*
X40300185Y-86438768D01*
X40300701Y-86509763D01*
X40264461Y-86567064D01*
X40264866Y-86567469D01*
X40263071Y-86569263D01*
X40262753Y-86569767D01*
X40261401Y-86570938D01*
X40261373Y-86570961D01*
X40126974Y-86705360D01*
X40126972Y-86705363D01*
X40015259Y-86859122D01*
X40015254Y-86859131D01*
X39928965Y-87028482D01*
X39870232Y-87209240D01*
X39854191Y-87310522D01*
X39841768Y-87388966D01*
X39840500Y-87396970D01*
X30025500Y-87396970D01*
X30025500Y-83108016D01*
X36024500Y-83108016D01*
X36024500Y-83366983D01*
X36058299Y-83623721D01*
X36058301Y-83623728D01*
X36125325Y-83873866D01*
X36224426Y-84113116D01*
X36224427Y-84113117D01*
X36224432Y-84113128D01*
X36353904Y-84337380D01*
X36511553Y-84542833D01*
X36511562Y-84542843D01*
X36694656Y-84725937D01*
X36694666Y-84725946D01*
X36694667Y-84725947D01*
X36826534Y-84827132D01*
X36900119Y-84883595D01*
X37124371Y-85013067D01*
X37124375Y-85013068D01*
X37124384Y-85013074D01*
X37363634Y-85112175D01*
X37613772Y-85179199D01*
X37613776Y-85179199D01*
X37613778Y-85179200D01*
X37679949Y-85187911D01*
X37870519Y-85213000D01*
X37870526Y-85213000D01*
X38129474Y-85213000D01*
X38129481Y-85213000D01*
X38361514Y-85182452D01*
X38386221Y-85179200D01*
X38386221Y-85179199D01*
X38386228Y-85179199D01*
X38636366Y-85112175D01*
X38875616Y-85013074D01*
X39099884Y-84883593D01*
X39305333Y-84725947D01*
X39488447Y-84542833D01*
X39646093Y-84337384D01*
X39775574Y-84113116D01*
X39874675Y-83873866D01*
X39941699Y-83623728D01*
X39975500Y-83366981D01*
X39975500Y-83108019D01*
X39941699Y-82851272D01*
X39874675Y-82601134D01*
X39775574Y-82361884D01*
X39775568Y-82361875D01*
X39775567Y-82361871D01*
X39646095Y-82137619D01*
X39488446Y-81932166D01*
X39488437Y-81932156D01*
X39305343Y-81749062D01*
X39305333Y-81749053D01*
X39099880Y-81591404D01*
X38875628Y-81461932D01*
X38875620Y-81461928D01*
X38875616Y-81461926D01*
X38636366Y-81362825D01*
X38386228Y-81295801D01*
X38386221Y-81295799D01*
X38129483Y-81262000D01*
X38129481Y-81262000D01*
X37870519Y-81262000D01*
X37870516Y-81262000D01*
X37613778Y-81295799D01*
X37363634Y-81362825D01*
X37124382Y-81461927D01*
X37124371Y-81461932D01*
X36900119Y-81591404D01*
X36694666Y-81749053D01*
X36694656Y-81749062D01*
X36511562Y-81932156D01*
X36511553Y-81932166D01*
X36353904Y-82137619D01*
X36224432Y-82361871D01*
X36224427Y-82361882D01*
X36125325Y-82601134D01*
X36058299Y-82851278D01*
X36024500Y-83108016D01*
X30025500Y-83108016D01*
X30025500Y-78209079D01*
X30377660Y-78209079D01*
X30377660Y-79183561D01*
X30404955Y-79355894D01*
X30458872Y-79521836D01*
X30538086Y-79677301D01*
X30640643Y-79818459D01*
X30640645Y-79818461D01*
X30640647Y-79818464D01*
X30764015Y-79941832D01*
X30764018Y-79941834D01*
X30764021Y-79941837D01*
X30905179Y-80044394D01*
X31060644Y-80123608D01*
X31226586Y-80177525D01*
X31398919Y-80204820D01*
X31398922Y-80204820D01*
X31573398Y-80204820D01*
X31573401Y-80204820D01*
X31745734Y-80177525D01*
X31911676Y-80123608D01*
X32067141Y-80044394D01*
X32208299Y-79941837D01*
X32331677Y-79818459D01*
X32434234Y-79677301D01*
X32513448Y-79521836D01*
X32567365Y-79355894D01*
X32594660Y-79183561D01*
X32594660Y-78209079D01*
X32917660Y-78209079D01*
X32917660Y-79183561D01*
X32944955Y-79355894D01*
X32998872Y-79521836D01*
X33078086Y-79677301D01*
X33180643Y-79818459D01*
X33180645Y-79818461D01*
X33180647Y-79818464D01*
X33304015Y-79941832D01*
X33304018Y-79941834D01*
X33304021Y-79941837D01*
X33445179Y-80044394D01*
X33600644Y-80123608D01*
X33766586Y-80177525D01*
X33938919Y-80204820D01*
X33938922Y-80204820D01*
X34113398Y-80204820D01*
X34113401Y-80204820D01*
X34285734Y-80177525D01*
X34451676Y-80123608D01*
X34607141Y-80044394D01*
X34748299Y-79941837D01*
X34871677Y-79818459D01*
X34974234Y-79677301D01*
X35053448Y-79521836D01*
X35107365Y-79355894D01*
X35134660Y-79183561D01*
X35134660Y-78212759D01*
X35454940Y-78212759D01*
X35454940Y-79187241D01*
X35482235Y-79359574D01*
X35482236Y-79359577D01*
X35534956Y-79521837D01*
X35536152Y-79525516D01*
X35615366Y-79680981D01*
X35717923Y-79822139D01*
X35717925Y-79822141D01*
X35717927Y-79822144D01*
X35841295Y-79945512D01*
X35841298Y-79945514D01*
X35841301Y-79945517D01*
X35982459Y-80048074D01*
X36137924Y-80127288D01*
X36303866Y-80181205D01*
X36476199Y-80208500D01*
X36476202Y-80208500D01*
X36650678Y-80208500D01*
X36650681Y-80208500D01*
X36823014Y-80181205D01*
X36988956Y-80127288D01*
X37144421Y-80048074D01*
X37285579Y-79945517D01*
X37408957Y-79822139D01*
X37511514Y-79680981D01*
X37590728Y-79525516D01*
X37644645Y-79359574D01*
X37671940Y-79187241D01*
X37671940Y-78212759D01*
X37994940Y-78212759D01*
X37994940Y-79187241D01*
X38022235Y-79359574D01*
X38022236Y-79359577D01*
X38074956Y-79521837D01*
X38076152Y-79525516D01*
X38155366Y-79680981D01*
X38257923Y-79822139D01*
X38257925Y-79822141D01*
X38257927Y-79822144D01*
X38381295Y-79945512D01*
X38381298Y-79945514D01*
X38381301Y-79945517D01*
X38522459Y-80048074D01*
X38677924Y-80127288D01*
X38843866Y-80181205D01*
X39016199Y-80208500D01*
X39016202Y-80208500D01*
X39190678Y-80208500D01*
X39190681Y-80208500D01*
X39363014Y-80181205D01*
X39528956Y-80127288D01*
X39684421Y-80048074D01*
X39825579Y-79945517D01*
X39948957Y-79822139D01*
X40051514Y-79680981D01*
X40130728Y-79525516D01*
X40184645Y-79359574D01*
X40211940Y-79187241D01*
X40211940Y-78212759D01*
X40534940Y-78212759D01*
X40534940Y-79187241D01*
X40562235Y-79359574D01*
X40562236Y-79359577D01*
X40614956Y-79521837D01*
X40616152Y-79525516D01*
X40695366Y-79680981D01*
X40797923Y-79822139D01*
X40797925Y-79822141D01*
X40797927Y-79822144D01*
X40921295Y-79945512D01*
X40921298Y-79945514D01*
X40921301Y-79945517D01*
X41062459Y-80048074D01*
X41217924Y-80127288D01*
X41383866Y-80181205D01*
X41556199Y-80208500D01*
X41556202Y-80208500D01*
X41730678Y-80208500D01*
X41730681Y-80208500D01*
X41903014Y-80181205D01*
X42068956Y-80127288D01*
X42224421Y-80048074D01*
X42365579Y-79945517D01*
X42488957Y-79822139D01*
X42591514Y-79680981D01*
X42670728Y-79525516D01*
X42724645Y-79359574D01*
X42751940Y-79187241D01*
X42751940Y-78212759D01*
X43074940Y-78212759D01*
X43074940Y-79187241D01*
X43102235Y-79359574D01*
X43102236Y-79359577D01*
X43154956Y-79521837D01*
X43156152Y-79525516D01*
X43235366Y-79680981D01*
X43337923Y-79822139D01*
X43337925Y-79822141D01*
X43337927Y-79822144D01*
X43461295Y-79945512D01*
X43461298Y-79945514D01*
X43461301Y-79945517D01*
X43602459Y-80048074D01*
X43757924Y-80127288D01*
X43923866Y-80181205D01*
X44096199Y-80208500D01*
X44096202Y-80208500D01*
X44270678Y-80208500D01*
X44270681Y-80208500D01*
X44443014Y-80181205D01*
X44608956Y-80127288D01*
X44764421Y-80048074D01*
X44905579Y-79945517D01*
X45028957Y-79822139D01*
X45131514Y-79680981D01*
X45210728Y-79525516D01*
X45264645Y-79359574D01*
X45291940Y-79187241D01*
X45291940Y-78212759D01*
X45614940Y-78212759D01*
X45614940Y-79187241D01*
X45642235Y-79359574D01*
X45642236Y-79359577D01*
X45694956Y-79521837D01*
X45696152Y-79525516D01*
X45775366Y-79680981D01*
X45877923Y-79822139D01*
X45877925Y-79822141D01*
X45877927Y-79822144D01*
X46001295Y-79945512D01*
X46001298Y-79945514D01*
X46001301Y-79945517D01*
X46142459Y-80048074D01*
X46297924Y-80127288D01*
X46463866Y-80181205D01*
X46636199Y-80208500D01*
X46636202Y-80208500D01*
X46810678Y-80208500D01*
X46810681Y-80208500D01*
X46983014Y-80181205D01*
X47148956Y-80127288D01*
X47304421Y-80048074D01*
X47445579Y-79945517D01*
X47568957Y-79822139D01*
X47671514Y-79680981D01*
X47750728Y-79525516D01*
X47804645Y-79359574D01*
X47831940Y-79187241D01*
X47831940Y-78212759D01*
X48154940Y-78212759D01*
X48154940Y-79187241D01*
X48182235Y-79359574D01*
X48182236Y-79359577D01*
X48234956Y-79521837D01*
X48236152Y-79525516D01*
X48315366Y-79680981D01*
X48417923Y-79822139D01*
X48417925Y-79822141D01*
X48417927Y-79822144D01*
X48541295Y-79945512D01*
X48541298Y-79945514D01*
X48541301Y-79945517D01*
X48682459Y-80048074D01*
X48837924Y-80127288D01*
X49003866Y-80181205D01*
X49176199Y-80208500D01*
X49176202Y-80208500D01*
X49350678Y-80208500D01*
X49350681Y-80208500D01*
X49523014Y-80181205D01*
X49688956Y-80127288D01*
X49844421Y-80048074D01*
X49985579Y-79945517D01*
X50108957Y-79822139D01*
X50211514Y-79680981D01*
X50290728Y-79525516D01*
X50344645Y-79359574D01*
X50371940Y-79187241D01*
X50371940Y-78212759D01*
X50694940Y-78212759D01*
X50694940Y-79187241D01*
X50722235Y-79359574D01*
X50722236Y-79359577D01*
X50774956Y-79521837D01*
X50776152Y-79525516D01*
X50855366Y-79680981D01*
X50957923Y-79822139D01*
X50957925Y-79822141D01*
X50957927Y-79822144D01*
X51081295Y-79945512D01*
X51081298Y-79945514D01*
X51081301Y-79945517D01*
X51222459Y-80048074D01*
X51377924Y-80127288D01*
X51543866Y-80181205D01*
X51716199Y-80208500D01*
X51716202Y-80208500D01*
X51890678Y-80208500D01*
X51890681Y-80208500D01*
X52063014Y-80181205D01*
X52228956Y-80127288D01*
X52384421Y-80048074D01*
X52525579Y-79945517D01*
X52648957Y-79822139D01*
X52751514Y-79680981D01*
X52830728Y-79525516D01*
X52884645Y-79359574D01*
X52911940Y-79187241D01*
X52911940Y-78212759D01*
X53234940Y-78212759D01*
X53234940Y-79187241D01*
X53262235Y-79359574D01*
X53262236Y-79359577D01*
X53314956Y-79521837D01*
X53316152Y-79525516D01*
X53395366Y-79680981D01*
X53497923Y-79822139D01*
X53497925Y-79822141D01*
X53497927Y-79822144D01*
X53621295Y-79945512D01*
X53621298Y-79945514D01*
X53621301Y-79945517D01*
X53762459Y-80048074D01*
X53917924Y-80127288D01*
X54083866Y-80181205D01*
X54256199Y-80208500D01*
X54256202Y-80208500D01*
X54430678Y-80208500D01*
X54430681Y-80208500D01*
X54603014Y-80181205D01*
X54768956Y-80127288D01*
X54924421Y-80048074D01*
X55065579Y-79945517D01*
X55188957Y-79822139D01*
X55291514Y-79680981D01*
X55370728Y-79525516D01*
X55424645Y-79359574D01*
X55451940Y-79187241D01*
X55451940Y-78212759D01*
X55774940Y-78212759D01*
X55774940Y-79187241D01*
X55802235Y-79359574D01*
X55802236Y-79359577D01*
X55854956Y-79521837D01*
X55856152Y-79525516D01*
X55935366Y-79680981D01*
X56037923Y-79822139D01*
X56037925Y-79822141D01*
X56037927Y-79822144D01*
X56161295Y-79945512D01*
X56161298Y-79945514D01*
X56161301Y-79945517D01*
X56302459Y-80048074D01*
X56457924Y-80127288D01*
X56623866Y-80181205D01*
X56796199Y-80208500D01*
X56796202Y-80208500D01*
X56970678Y-80208500D01*
X56970681Y-80208500D01*
X57143014Y-80181205D01*
X57308956Y-80127288D01*
X57464421Y-80048074D01*
X57605579Y-79945517D01*
X57728957Y-79822139D01*
X57831514Y-79680981D01*
X57910728Y-79525516D01*
X57964645Y-79359574D01*
X57991940Y-79187241D01*
X57991940Y-78212759D01*
X58314940Y-78212759D01*
X58314940Y-79187241D01*
X58342235Y-79359574D01*
X58342236Y-79359577D01*
X58394956Y-79521837D01*
X58396152Y-79525516D01*
X58475366Y-79680981D01*
X58577923Y-79822139D01*
X58577925Y-79822141D01*
X58577927Y-79822144D01*
X58701295Y-79945512D01*
X58701298Y-79945514D01*
X58701301Y-79945517D01*
X58842459Y-80048074D01*
X58997924Y-80127288D01*
X59163866Y-80181205D01*
X59336199Y-80208500D01*
X59336202Y-80208500D01*
X59510678Y-80208500D01*
X59510681Y-80208500D01*
X59683014Y-80181205D01*
X59848956Y-80127288D01*
X60004421Y-80048074D01*
X60145579Y-79945517D01*
X60268957Y-79822139D01*
X60371514Y-79680981D01*
X60450728Y-79525516D01*
X60504645Y-79359574D01*
X60531940Y-79187241D01*
X60531940Y-78212802D01*
X60855440Y-78212802D01*
X60855440Y-78446000D01*
X61651754Y-78446000D01*
X61643360Y-78454394D01*
X61590699Y-78545606D01*
X61563440Y-78647339D01*
X61563440Y-78752661D01*
X61590699Y-78854394D01*
X61643360Y-78945606D01*
X61651754Y-78954000D01*
X60855440Y-78954000D01*
X60855440Y-79187197D01*
X60882724Y-79359462D01*
X60936614Y-79525319D01*
X60936617Y-79525325D01*
X61015796Y-79680721D01*
X61118307Y-79821815D01*
X61118309Y-79821818D01*
X61241621Y-79945130D01*
X61241624Y-79945132D01*
X61382718Y-80047643D01*
X61538114Y-80126822D01*
X61538120Y-80126825D01*
X61703974Y-80180714D01*
X61709440Y-80181580D01*
X61709440Y-79011686D01*
X61717834Y-79020080D01*
X61809046Y-79072741D01*
X61910779Y-79100000D01*
X62016101Y-79100000D01*
X62117834Y-79072741D01*
X62209046Y-79020080D01*
X62217440Y-79011686D01*
X62217440Y-80181580D01*
X62222905Y-80180714D01*
X62388759Y-80126825D01*
X62388765Y-80126822D01*
X62544161Y-80047643D01*
X62685255Y-79945132D01*
X62685258Y-79945130D01*
X62808570Y-79821818D01*
X62808572Y-79821815D01*
X62911083Y-79680721D01*
X62990262Y-79525325D01*
X62990265Y-79525319D01*
X63044155Y-79359462D01*
X63071440Y-79187197D01*
X63071440Y-78954000D01*
X62275126Y-78954000D01*
X62283520Y-78945606D01*
X62336181Y-78854394D01*
X62363440Y-78752661D01*
X62363440Y-78647339D01*
X62336181Y-78545606D01*
X62283520Y-78454394D01*
X62275126Y-78446000D01*
X63071440Y-78446000D01*
X63071440Y-78212802D01*
X63071433Y-78212759D01*
X63394940Y-78212759D01*
X63394940Y-79187241D01*
X63422235Y-79359574D01*
X63422236Y-79359577D01*
X63474956Y-79521837D01*
X63476152Y-79525516D01*
X63555366Y-79680981D01*
X63657923Y-79822139D01*
X63657925Y-79822141D01*
X63657927Y-79822144D01*
X63781295Y-79945512D01*
X63781298Y-79945514D01*
X63781301Y-79945517D01*
X63922459Y-80048074D01*
X64077924Y-80127288D01*
X64243866Y-80181205D01*
X64416199Y-80208500D01*
X64416202Y-80208500D01*
X64590678Y-80208500D01*
X64590681Y-80208500D01*
X64763014Y-80181205D01*
X64928956Y-80127288D01*
X65084421Y-80048074D01*
X65225579Y-79945517D01*
X65348957Y-79822139D01*
X65451514Y-79680981D01*
X65530728Y-79525516D01*
X65584645Y-79359574D01*
X65611940Y-79187241D01*
X65611940Y-78212759D01*
X65934940Y-78212759D01*
X65934940Y-79187241D01*
X65962235Y-79359574D01*
X65962236Y-79359577D01*
X66014956Y-79521837D01*
X66016152Y-79525516D01*
X66095366Y-79680981D01*
X66197923Y-79822139D01*
X66197925Y-79822141D01*
X66197927Y-79822144D01*
X66321295Y-79945512D01*
X66321298Y-79945514D01*
X66321301Y-79945517D01*
X66462459Y-80048074D01*
X66617924Y-80127288D01*
X66783866Y-80181205D01*
X66956199Y-80208500D01*
X66956202Y-80208500D01*
X67130678Y-80208500D01*
X67130681Y-80208500D01*
X67303014Y-80181205D01*
X67468956Y-80127288D01*
X67624421Y-80048074D01*
X67765579Y-79945517D01*
X67888957Y-79822139D01*
X67991514Y-79680981D01*
X68070728Y-79525516D01*
X68124645Y-79359574D01*
X68151940Y-79187241D01*
X68151940Y-78212759D01*
X68474940Y-78212759D01*
X68474940Y-79187241D01*
X68502235Y-79359574D01*
X68502236Y-79359577D01*
X68554956Y-79521837D01*
X68556152Y-79525516D01*
X68635366Y-79680981D01*
X68737923Y-79822139D01*
X68737925Y-79822141D01*
X68737927Y-79822144D01*
X68861295Y-79945512D01*
X68861298Y-79945514D01*
X68861301Y-79945517D01*
X69002459Y-80048074D01*
X69157924Y-80127288D01*
X69323866Y-80181205D01*
X69496199Y-80208500D01*
X69496202Y-80208500D01*
X69670678Y-80208500D01*
X69670681Y-80208500D01*
X69843014Y-80181205D01*
X70008956Y-80127288D01*
X70164421Y-80048074D01*
X70305579Y-79945517D01*
X70428957Y-79822139D01*
X70531514Y-79680981D01*
X70610728Y-79525516D01*
X70664645Y-79359574D01*
X70691940Y-79187241D01*
X70691940Y-78212759D01*
X71014940Y-78212759D01*
X71014940Y-79187241D01*
X71042235Y-79359574D01*
X71042236Y-79359577D01*
X71094956Y-79521837D01*
X71096152Y-79525516D01*
X71175366Y-79680981D01*
X71277923Y-79822139D01*
X71277925Y-79822141D01*
X71277927Y-79822144D01*
X71401295Y-79945512D01*
X71401298Y-79945514D01*
X71401301Y-79945517D01*
X71542459Y-80048074D01*
X71697924Y-80127288D01*
X71863866Y-80181205D01*
X72036199Y-80208500D01*
X72036202Y-80208500D01*
X72210678Y-80208500D01*
X72210681Y-80208500D01*
X72383014Y-80181205D01*
X72548956Y-80127288D01*
X72704421Y-80048074D01*
X72845579Y-79945517D01*
X72968957Y-79822139D01*
X73071514Y-79680981D01*
X73150728Y-79525516D01*
X73204645Y-79359574D01*
X73231940Y-79187241D01*
X73231940Y-78212759D01*
X73554940Y-78212759D01*
X73554940Y-79187241D01*
X73582235Y-79359574D01*
X73582236Y-79359577D01*
X73634956Y-79521837D01*
X73636152Y-79525516D01*
X73715366Y-79680981D01*
X73817923Y-79822139D01*
X73817925Y-79822141D01*
X73817927Y-79822144D01*
X73941295Y-79945512D01*
X73941298Y-79945514D01*
X73941301Y-79945517D01*
X74082459Y-80048074D01*
X74237924Y-80127288D01*
X74403866Y-80181205D01*
X74576199Y-80208500D01*
X74576202Y-80208500D01*
X74750678Y-80208500D01*
X74750681Y-80208500D01*
X74923014Y-80181205D01*
X75088956Y-80127288D01*
X75244421Y-80048074D01*
X75385579Y-79945517D01*
X75508957Y-79822139D01*
X75611514Y-79680981D01*
X75690728Y-79525516D01*
X75744645Y-79359574D01*
X75771940Y-79187241D01*
X75771940Y-78212802D01*
X76095440Y-78212802D01*
X76095440Y-78446000D01*
X76891754Y-78446000D01*
X76883360Y-78454394D01*
X76830699Y-78545606D01*
X76803440Y-78647339D01*
X76803440Y-78752661D01*
X76830699Y-78854394D01*
X76883360Y-78945606D01*
X76891754Y-78954000D01*
X76095440Y-78954000D01*
X76095440Y-79187197D01*
X76122724Y-79359462D01*
X76176614Y-79525319D01*
X76176617Y-79525325D01*
X76255796Y-79680721D01*
X76358307Y-79821815D01*
X76358309Y-79821818D01*
X76481621Y-79945130D01*
X76481624Y-79945132D01*
X76622718Y-80047643D01*
X76778114Y-80126822D01*
X76778120Y-80126825D01*
X76943974Y-80180714D01*
X76949440Y-80181580D01*
X76949440Y-79011686D01*
X76957834Y-79020080D01*
X77049046Y-79072741D01*
X77150779Y-79100000D01*
X77256101Y-79100000D01*
X77357834Y-79072741D01*
X77449046Y-79020080D01*
X77457440Y-79011686D01*
X77457440Y-80181580D01*
X77462905Y-80180714D01*
X77628759Y-80126825D01*
X77628765Y-80126822D01*
X77784161Y-80047643D01*
X77925255Y-79945132D01*
X77925258Y-79945130D01*
X78048570Y-79821818D01*
X78048572Y-79821815D01*
X78151083Y-79680721D01*
X78230262Y-79525325D01*
X78230265Y-79525319D01*
X78284155Y-79359462D01*
X78311440Y-79187197D01*
X78311440Y-78954000D01*
X77515126Y-78954000D01*
X77523520Y-78945606D01*
X77576181Y-78854394D01*
X77603440Y-78752661D01*
X77603440Y-78647339D01*
X77576181Y-78545606D01*
X77523520Y-78454394D01*
X77515126Y-78446000D01*
X78311440Y-78446000D01*
X78311440Y-78212802D01*
X78284155Y-78040537D01*
X78230265Y-77874680D01*
X78230262Y-77874674D01*
X78151083Y-77719278D01*
X78048572Y-77578184D01*
X78048570Y-77578181D01*
X77925258Y-77454869D01*
X77925255Y-77454867D01*
X77784161Y-77352356D01*
X77628765Y-77273177D01*
X77628759Y-77273174D01*
X77462901Y-77219284D01*
X77462889Y-77219281D01*
X77457440Y-77218417D01*
X77457440Y-78388314D01*
X77449046Y-78379920D01*
X77357834Y-78327259D01*
X77256101Y-78300000D01*
X77150779Y-78300000D01*
X77049046Y-78327259D01*
X76957834Y-78379920D01*
X76949440Y-78388314D01*
X76949440Y-77218417D01*
X76943990Y-77219281D01*
X76943978Y-77219284D01*
X76778120Y-77273174D01*
X76778114Y-77273177D01*
X76622718Y-77352356D01*
X76481624Y-77454867D01*
X76481621Y-77454869D01*
X76358309Y-77578181D01*
X76358307Y-77578184D01*
X76255796Y-77719278D01*
X76176617Y-77874674D01*
X76176614Y-77874680D01*
X76122724Y-78040537D01*
X76095440Y-78212802D01*
X75771940Y-78212802D01*
X75771940Y-78212759D01*
X75744645Y-78040426D01*
X75690728Y-77874484D01*
X75611514Y-77719019D01*
X75508957Y-77577861D01*
X75508954Y-77577858D01*
X75508952Y-77577855D01*
X75385584Y-77454487D01*
X75385581Y-77454485D01*
X75385579Y-77454483D01*
X75244421Y-77351926D01*
X75088956Y-77272712D01*
X75088953Y-77272711D01*
X75088951Y-77272710D01*
X74923017Y-77218796D01*
X74923014Y-77218795D01*
X74750681Y-77191500D01*
X74576199Y-77191500D01*
X74403866Y-77218795D01*
X74403863Y-77218795D01*
X74403862Y-77218796D01*
X74237928Y-77272710D01*
X74237922Y-77272713D01*
X74082455Y-77351928D01*
X73941298Y-77454485D01*
X73941295Y-77454487D01*
X73817927Y-77577855D01*
X73817925Y-77577858D01*
X73715368Y-77719015D01*
X73636153Y-77874482D01*
X73636150Y-77874488D01*
X73582236Y-78040422D01*
X73582235Y-78040426D01*
X73554940Y-78212759D01*
X73231940Y-78212759D01*
X73204645Y-78040426D01*
X73150728Y-77874484D01*
X73071514Y-77719019D01*
X72968957Y-77577861D01*
X72968954Y-77577858D01*
X72968952Y-77577855D01*
X72845584Y-77454487D01*
X72845581Y-77454485D01*
X72845579Y-77454483D01*
X72704421Y-77351926D01*
X72548956Y-77272712D01*
X72548953Y-77272711D01*
X72548951Y-77272710D01*
X72383017Y-77218796D01*
X72383014Y-77218795D01*
X72210681Y-77191500D01*
X72036199Y-77191500D01*
X71863866Y-77218795D01*
X71863863Y-77218795D01*
X71863862Y-77218796D01*
X71697928Y-77272710D01*
X71697922Y-77272713D01*
X71542455Y-77351928D01*
X71401298Y-77454485D01*
X71401295Y-77454487D01*
X71277927Y-77577855D01*
X71277925Y-77577858D01*
X71175368Y-77719015D01*
X71096153Y-77874482D01*
X71096150Y-77874488D01*
X71042236Y-78040422D01*
X71042235Y-78040426D01*
X71014940Y-78212759D01*
X70691940Y-78212759D01*
X70664645Y-78040426D01*
X70610728Y-77874484D01*
X70531514Y-77719019D01*
X70428957Y-77577861D01*
X70428954Y-77577858D01*
X70428952Y-77577855D01*
X70305584Y-77454487D01*
X70305581Y-77454485D01*
X70305579Y-77454483D01*
X70164421Y-77351926D01*
X70008956Y-77272712D01*
X70008953Y-77272711D01*
X70008951Y-77272710D01*
X69843017Y-77218796D01*
X69843014Y-77218795D01*
X69670681Y-77191500D01*
X69496199Y-77191500D01*
X69323866Y-77218795D01*
X69323863Y-77218795D01*
X69323862Y-77218796D01*
X69157928Y-77272710D01*
X69157922Y-77272713D01*
X69002455Y-77351928D01*
X68861298Y-77454485D01*
X68861295Y-77454487D01*
X68737927Y-77577855D01*
X68737925Y-77577858D01*
X68635368Y-77719015D01*
X68556153Y-77874482D01*
X68556150Y-77874488D01*
X68502236Y-78040422D01*
X68502235Y-78040426D01*
X68474940Y-78212759D01*
X68151940Y-78212759D01*
X68124645Y-78040426D01*
X68070728Y-77874484D01*
X67991514Y-77719019D01*
X67888957Y-77577861D01*
X67888954Y-77577858D01*
X67888952Y-77577855D01*
X67765584Y-77454487D01*
X67765581Y-77454485D01*
X67765579Y-77454483D01*
X67624421Y-77351926D01*
X67468956Y-77272712D01*
X67468953Y-77272711D01*
X67468951Y-77272710D01*
X67303017Y-77218796D01*
X67303014Y-77218795D01*
X67130681Y-77191500D01*
X66956199Y-77191500D01*
X66783866Y-77218795D01*
X66783863Y-77218795D01*
X66783862Y-77218796D01*
X66617928Y-77272710D01*
X66617922Y-77272713D01*
X66462455Y-77351928D01*
X66321298Y-77454485D01*
X66321295Y-77454487D01*
X66197927Y-77577855D01*
X66197925Y-77577858D01*
X66095368Y-77719015D01*
X66016153Y-77874482D01*
X66016150Y-77874488D01*
X65962236Y-78040422D01*
X65962235Y-78040426D01*
X65934940Y-78212759D01*
X65611940Y-78212759D01*
X65584645Y-78040426D01*
X65530728Y-77874484D01*
X65451514Y-77719019D01*
X65348957Y-77577861D01*
X65348954Y-77577858D01*
X65348952Y-77577855D01*
X65225584Y-77454487D01*
X65225581Y-77454485D01*
X65225579Y-77454483D01*
X65084421Y-77351926D01*
X64928956Y-77272712D01*
X64928953Y-77272711D01*
X64928951Y-77272710D01*
X64763017Y-77218796D01*
X64763014Y-77218795D01*
X64590681Y-77191500D01*
X64416199Y-77191500D01*
X64243866Y-77218795D01*
X64243863Y-77218795D01*
X64243862Y-77218796D01*
X64077928Y-77272710D01*
X64077922Y-77272713D01*
X63922455Y-77351928D01*
X63781298Y-77454485D01*
X63781295Y-77454487D01*
X63657927Y-77577855D01*
X63657925Y-77577858D01*
X63555368Y-77719015D01*
X63476153Y-77874482D01*
X63476150Y-77874488D01*
X63422236Y-78040422D01*
X63422235Y-78040426D01*
X63394940Y-78212759D01*
X63071433Y-78212759D01*
X63044155Y-78040537D01*
X62990265Y-77874680D01*
X62990262Y-77874674D01*
X62911083Y-77719278D01*
X62808572Y-77578184D01*
X62808570Y-77578181D01*
X62685258Y-77454869D01*
X62685255Y-77454867D01*
X62544161Y-77352356D01*
X62388765Y-77273177D01*
X62388759Y-77273174D01*
X62222901Y-77219284D01*
X62222889Y-77219281D01*
X62217440Y-77218417D01*
X62217440Y-78388314D01*
X62209046Y-78379920D01*
X62117834Y-78327259D01*
X62016101Y-78300000D01*
X61910779Y-78300000D01*
X61809046Y-78327259D01*
X61717834Y-78379920D01*
X61709440Y-78388314D01*
X61709440Y-77218417D01*
X61703990Y-77219281D01*
X61703978Y-77219284D01*
X61538120Y-77273174D01*
X61538114Y-77273177D01*
X61382718Y-77352356D01*
X61241624Y-77454867D01*
X61241621Y-77454869D01*
X61118309Y-77578181D01*
X61118307Y-77578184D01*
X61015796Y-77719278D01*
X60936617Y-77874674D01*
X60936614Y-77874680D01*
X60882724Y-78040537D01*
X60855440Y-78212802D01*
X60531940Y-78212802D01*
X60531940Y-78212759D01*
X60504645Y-78040426D01*
X60450728Y-77874484D01*
X60371514Y-77719019D01*
X60268957Y-77577861D01*
X60268954Y-77577858D01*
X60268952Y-77577855D01*
X60145584Y-77454487D01*
X60145581Y-77454485D01*
X60145579Y-77454483D01*
X60004421Y-77351926D01*
X59848956Y-77272712D01*
X59848953Y-77272711D01*
X59848951Y-77272710D01*
X59683017Y-77218796D01*
X59683014Y-77218795D01*
X59510681Y-77191500D01*
X59336199Y-77191500D01*
X59163866Y-77218795D01*
X59163863Y-77218795D01*
X59163862Y-77218796D01*
X58997928Y-77272710D01*
X58997922Y-77272713D01*
X58842455Y-77351928D01*
X58701298Y-77454485D01*
X58701295Y-77454487D01*
X58577927Y-77577855D01*
X58577925Y-77577858D01*
X58475368Y-77719015D01*
X58396153Y-77874482D01*
X58396150Y-77874488D01*
X58342236Y-78040422D01*
X58342235Y-78040426D01*
X58314940Y-78212759D01*
X57991940Y-78212759D01*
X57964645Y-78040426D01*
X57910728Y-77874484D01*
X57831514Y-77719019D01*
X57728957Y-77577861D01*
X57728954Y-77577858D01*
X57728952Y-77577855D01*
X57605584Y-77454487D01*
X57605581Y-77454485D01*
X57605579Y-77454483D01*
X57464421Y-77351926D01*
X57308956Y-77272712D01*
X57308953Y-77272711D01*
X57308951Y-77272710D01*
X57143017Y-77218796D01*
X57143014Y-77218795D01*
X56970681Y-77191500D01*
X56796199Y-77191500D01*
X56623866Y-77218795D01*
X56623863Y-77218795D01*
X56623862Y-77218796D01*
X56457928Y-77272710D01*
X56457922Y-77272713D01*
X56302455Y-77351928D01*
X56161298Y-77454485D01*
X56161295Y-77454487D01*
X56037927Y-77577855D01*
X56037925Y-77577858D01*
X55935368Y-77719015D01*
X55856153Y-77874482D01*
X55856150Y-77874488D01*
X55802236Y-78040422D01*
X55802235Y-78040426D01*
X55774940Y-78212759D01*
X55451940Y-78212759D01*
X55424645Y-78040426D01*
X55370728Y-77874484D01*
X55291514Y-77719019D01*
X55188957Y-77577861D01*
X55188954Y-77577858D01*
X55188952Y-77577855D01*
X55065584Y-77454487D01*
X55065581Y-77454485D01*
X55065579Y-77454483D01*
X54924421Y-77351926D01*
X54768956Y-77272712D01*
X54768953Y-77272711D01*
X54768951Y-77272710D01*
X54603017Y-77218796D01*
X54603014Y-77218795D01*
X54430681Y-77191500D01*
X54256199Y-77191500D01*
X54083866Y-77218795D01*
X54083863Y-77218795D01*
X54083862Y-77218796D01*
X53917928Y-77272710D01*
X53917922Y-77272713D01*
X53762455Y-77351928D01*
X53621298Y-77454485D01*
X53621295Y-77454487D01*
X53497927Y-77577855D01*
X53497925Y-77577858D01*
X53395368Y-77719015D01*
X53316153Y-77874482D01*
X53316150Y-77874488D01*
X53262236Y-78040422D01*
X53262235Y-78040426D01*
X53234940Y-78212759D01*
X52911940Y-78212759D01*
X52884645Y-78040426D01*
X52830728Y-77874484D01*
X52751514Y-77719019D01*
X52648957Y-77577861D01*
X52648954Y-77577858D01*
X52648952Y-77577855D01*
X52525584Y-77454487D01*
X52525581Y-77454485D01*
X52525579Y-77454483D01*
X52384421Y-77351926D01*
X52228956Y-77272712D01*
X52228953Y-77272711D01*
X52228951Y-77272710D01*
X52063017Y-77218796D01*
X52063014Y-77218795D01*
X51890681Y-77191500D01*
X51716199Y-77191500D01*
X51543866Y-77218795D01*
X51543863Y-77218795D01*
X51543862Y-77218796D01*
X51377928Y-77272710D01*
X51377922Y-77272713D01*
X51222455Y-77351928D01*
X51081298Y-77454485D01*
X51081295Y-77454487D01*
X50957927Y-77577855D01*
X50957925Y-77577858D01*
X50855368Y-77719015D01*
X50776153Y-77874482D01*
X50776150Y-77874488D01*
X50722236Y-78040422D01*
X50722235Y-78040426D01*
X50694940Y-78212759D01*
X50371940Y-78212759D01*
X50344645Y-78040426D01*
X50290728Y-77874484D01*
X50211514Y-77719019D01*
X50108957Y-77577861D01*
X50108954Y-77577858D01*
X50108952Y-77577855D01*
X49985584Y-77454487D01*
X49985581Y-77454485D01*
X49985579Y-77454483D01*
X49844421Y-77351926D01*
X49688956Y-77272712D01*
X49688953Y-77272711D01*
X49688951Y-77272710D01*
X49523017Y-77218796D01*
X49523014Y-77218795D01*
X49350681Y-77191500D01*
X49176199Y-77191500D01*
X49003866Y-77218795D01*
X49003863Y-77218795D01*
X49003862Y-77218796D01*
X48837928Y-77272710D01*
X48837922Y-77272713D01*
X48682455Y-77351928D01*
X48541298Y-77454485D01*
X48541295Y-77454487D01*
X48417927Y-77577855D01*
X48417925Y-77577858D01*
X48315368Y-77719015D01*
X48236153Y-77874482D01*
X48236150Y-77874488D01*
X48182236Y-78040422D01*
X48182235Y-78040426D01*
X48154940Y-78212759D01*
X47831940Y-78212759D01*
X47804645Y-78040426D01*
X47750728Y-77874484D01*
X47671514Y-77719019D01*
X47568957Y-77577861D01*
X47568954Y-77577858D01*
X47568952Y-77577855D01*
X47445584Y-77454487D01*
X47445581Y-77454485D01*
X47445579Y-77454483D01*
X47304421Y-77351926D01*
X47148956Y-77272712D01*
X47148953Y-77272711D01*
X47148951Y-77272710D01*
X46983017Y-77218796D01*
X46983014Y-77218795D01*
X46810681Y-77191500D01*
X46636199Y-77191500D01*
X46463866Y-77218795D01*
X46463863Y-77218795D01*
X46463862Y-77218796D01*
X46297928Y-77272710D01*
X46297922Y-77272713D01*
X46142455Y-77351928D01*
X46001298Y-77454485D01*
X46001295Y-77454487D01*
X45877927Y-77577855D01*
X45877925Y-77577858D01*
X45775368Y-77719015D01*
X45696153Y-77874482D01*
X45696150Y-77874488D01*
X45642236Y-78040422D01*
X45642235Y-78040426D01*
X45614940Y-78212759D01*
X45291940Y-78212759D01*
X45264645Y-78040426D01*
X45210728Y-77874484D01*
X45131514Y-77719019D01*
X45028957Y-77577861D01*
X45028954Y-77577858D01*
X45028952Y-77577855D01*
X44905584Y-77454487D01*
X44905581Y-77454485D01*
X44905579Y-77454483D01*
X44764421Y-77351926D01*
X44608956Y-77272712D01*
X44608953Y-77272711D01*
X44608951Y-77272710D01*
X44443017Y-77218796D01*
X44443014Y-77218795D01*
X44270681Y-77191500D01*
X44096199Y-77191500D01*
X43923866Y-77218795D01*
X43923863Y-77218795D01*
X43923862Y-77218796D01*
X43757928Y-77272710D01*
X43757922Y-77272713D01*
X43602455Y-77351928D01*
X43461298Y-77454485D01*
X43461295Y-77454487D01*
X43337927Y-77577855D01*
X43337925Y-77577858D01*
X43235368Y-77719015D01*
X43156153Y-77874482D01*
X43156150Y-77874488D01*
X43102236Y-78040422D01*
X43102235Y-78040426D01*
X43074940Y-78212759D01*
X42751940Y-78212759D01*
X42724645Y-78040426D01*
X42670728Y-77874484D01*
X42591514Y-77719019D01*
X42488957Y-77577861D01*
X42488954Y-77577858D01*
X42488952Y-77577855D01*
X42365584Y-77454487D01*
X42365581Y-77454485D01*
X42365579Y-77454483D01*
X42224421Y-77351926D01*
X42068956Y-77272712D01*
X42068953Y-77272711D01*
X42068951Y-77272710D01*
X41903017Y-77218796D01*
X41903014Y-77218795D01*
X41730681Y-77191500D01*
X41556199Y-77191500D01*
X41383866Y-77218795D01*
X41383863Y-77218795D01*
X41383862Y-77218796D01*
X41217928Y-77272710D01*
X41217922Y-77272713D01*
X41062455Y-77351928D01*
X40921298Y-77454485D01*
X40921295Y-77454487D01*
X40797927Y-77577855D01*
X40797925Y-77577858D01*
X40695368Y-77719015D01*
X40616153Y-77874482D01*
X40616150Y-77874488D01*
X40562236Y-78040422D01*
X40562235Y-78040426D01*
X40534940Y-78212759D01*
X40211940Y-78212759D01*
X40184645Y-78040426D01*
X40130728Y-77874484D01*
X40051514Y-77719019D01*
X39948957Y-77577861D01*
X39948954Y-77577858D01*
X39948952Y-77577855D01*
X39825584Y-77454487D01*
X39825581Y-77454485D01*
X39825579Y-77454483D01*
X39684421Y-77351926D01*
X39528956Y-77272712D01*
X39528953Y-77272711D01*
X39528951Y-77272710D01*
X39363017Y-77218796D01*
X39363014Y-77218795D01*
X39190681Y-77191500D01*
X39016199Y-77191500D01*
X38843866Y-77218795D01*
X38843863Y-77218795D01*
X38843862Y-77218796D01*
X38677928Y-77272710D01*
X38677922Y-77272713D01*
X38522455Y-77351928D01*
X38381298Y-77454485D01*
X38381295Y-77454487D01*
X38257927Y-77577855D01*
X38257925Y-77577858D01*
X38155368Y-77719015D01*
X38076153Y-77874482D01*
X38076150Y-77874488D01*
X38022236Y-78040422D01*
X38022235Y-78040426D01*
X37994940Y-78212759D01*
X37671940Y-78212759D01*
X37644645Y-78040426D01*
X37590728Y-77874484D01*
X37511514Y-77719019D01*
X37408957Y-77577861D01*
X37408954Y-77577858D01*
X37408952Y-77577855D01*
X37285584Y-77454487D01*
X37285581Y-77454485D01*
X37285579Y-77454483D01*
X37144421Y-77351926D01*
X36988956Y-77272712D01*
X36988953Y-77272711D01*
X36988951Y-77272710D01*
X36823017Y-77218796D01*
X36823014Y-77218795D01*
X36650681Y-77191500D01*
X36476199Y-77191500D01*
X36303866Y-77218795D01*
X36303863Y-77218795D01*
X36303862Y-77218796D01*
X36137928Y-77272710D01*
X36137922Y-77272713D01*
X35982455Y-77351928D01*
X35841298Y-77454485D01*
X35841295Y-77454487D01*
X35717927Y-77577855D01*
X35717925Y-77577858D01*
X35615368Y-77719015D01*
X35536153Y-77874482D01*
X35536150Y-77874488D01*
X35482236Y-78040422D01*
X35482235Y-78040426D01*
X35454940Y-78212759D01*
X35134660Y-78212759D01*
X35134660Y-78209079D01*
X35107365Y-78036746D01*
X35053448Y-77870804D01*
X34974234Y-77715339D01*
X34871677Y-77574181D01*
X34871674Y-77574178D01*
X34871672Y-77574175D01*
X34748304Y-77450807D01*
X34748301Y-77450805D01*
X34748299Y-77450803D01*
X34607141Y-77348246D01*
X34451676Y-77269032D01*
X34451673Y-77269031D01*
X34451671Y-77269030D01*
X34285737Y-77215116D01*
X34285734Y-77215115D01*
X34113401Y-77187820D01*
X33938919Y-77187820D01*
X33766586Y-77215115D01*
X33766583Y-77215115D01*
X33766582Y-77215116D01*
X33600648Y-77269030D01*
X33600642Y-77269033D01*
X33445175Y-77348248D01*
X33304018Y-77450805D01*
X33304015Y-77450807D01*
X33180647Y-77574175D01*
X33180645Y-77574178D01*
X33078088Y-77715335D01*
X32998873Y-77870802D01*
X32998870Y-77870808D01*
X32944956Y-78036742D01*
X32944955Y-78036746D01*
X32917660Y-78209079D01*
X32594660Y-78209079D01*
X32567365Y-78036746D01*
X32513448Y-77870804D01*
X32434234Y-77715339D01*
X32331677Y-77574181D01*
X32331674Y-77574178D01*
X32331672Y-77574175D01*
X32208304Y-77450807D01*
X32208301Y-77450805D01*
X32208299Y-77450803D01*
X32067141Y-77348246D01*
X31911676Y-77269032D01*
X31911673Y-77269031D01*
X31911671Y-77269030D01*
X31745737Y-77215116D01*
X31745734Y-77215115D01*
X31573401Y-77187820D01*
X31398919Y-77187820D01*
X31226586Y-77215115D01*
X31226583Y-77215115D01*
X31226582Y-77215116D01*
X31060648Y-77269030D01*
X31060642Y-77269033D01*
X30905175Y-77348248D01*
X30764018Y-77450805D01*
X30764015Y-77450807D01*
X30640647Y-77574175D01*
X30640645Y-77574178D01*
X30538088Y-77715335D01*
X30458873Y-77870802D01*
X30458870Y-77870808D01*
X30404956Y-78036742D01*
X30404955Y-78036746D01*
X30377660Y-78209079D01*
X30025500Y-78209079D01*
X30025500Y-64835025D01*
X31642000Y-64835025D01*
X31642000Y-65164974D01*
X31674337Y-65493300D01*
X31674340Y-65493321D01*
X31738704Y-65816904D01*
X31738705Y-65816911D01*
X31834475Y-66132624D01*
X31834476Y-66132626D01*
X31960743Y-66437462D01*
X32116275Y-66728441D01*
X32299576Y-67002772D01*
X32452130Y-67188659D01*
X33703367Y-65937421D01*
X33779588Y-66042330D01*
X33957670Y-66220412D01*
X34062576Y-66296631D01*
X32811339Y-67547868D01*
X32997232Y-67700427D01*
X33271558Y-67883724D01*
X33562537Y-68039256D01*
X33867373Y-68165523D01*
X33867375Y-68165524D01*
X34183088Y-68261294D01*
X34183095Y-68261295D01*
X34506678Y-68325659D01*
X34506699Y-68325662D01*
X34835025Y-68357999D01*
X34835041Y-68358000D01*
X35164959Y-68358000D01*
X35164974Y-68357999D01*
X35493300Y-68325662D01*
X35493321Y-68325659D01*
X35816904Y-68261295D01*
X35816911Y-68261294D01*
X36132624Y-68165524D01*
X36132626Y-68165523D01*
X36437462Y-68039256D01*
X36728441Y-67883724D01*
X37002762Y-67700429D01*
X37002768Y-67700425D01*
X37188659Y-67547868D01*
X35937422Y-66296631D01*
X36042330Y-66220412D01*
X36220412Y-66042330D01*
X36296631Y-65937422D01*
X37547868Y-67188659D01*
X37700425Y-67002768D01*
X37700429Y-67002762D01*
X37883724Y-66728441D01*
X38039256Y-66437462D01*
X38165523Y-66132626D01*
X38165524Y-66132624D01*
X38261294Y-65816911D01*
X38261295Y-65816904D01*
X38325659Y-65493321D01*
X38325662Y-65493300D01*
X38357999Y-65164974D01*
X38358000Y-65164958D01*
X38358000Y-64835041D01*
X38357999Y-64835025D01*
X38325662Y-64506699D01*
X38325659Y-64506678D01*
X38261295Y-64183095D01*
X38261294Y-64183088D01*
X38165524Y-63867375D01*
X38165523Y-63867373D01*
X38039256Y-63562537D01*
X37883724Y-63271558D01*
X37700427Y-62997232D01*
X37547868Y-62811339D01*
X36296631Y-64062576D01*
X36220412Y-63957670D01*
X36042330Y-63779588D01*
X35937422Y-63703367D01*
X37188659Y-62452130D01*
X37188659Y-62452129D01*
X37002772Y-62299576D01*
X36728441Y-62116275D01*
X36437462Y-61960743D01*
X36132626Y-61834476D01*
X36132624Y-61834475D01*
X35816911Y-61738705D01*
X35816904Y-61738704D01*
X35493321Y-61674340D01*
X35493300Y-61674337D01*
X35164974Y-61642000D01*
X34835025Y-61642000D01*
X34506699Y-61674337D01*
X34506678Y-61674340D01*
X34183095Y-61738704D01*
X34183088Y-61738705D01*
X33867375Y-61834475D01*
X33867373Y-61834476D01*
X33562537Y-61960743D01*
X33271558Y-62116275D01*
X32997236Y-62299571D01*
X32997223Y-62299580D01*
X32811339Y-62452130D01*
X34062577Y-63703368D01*
X33957670Y-63779588D01*
X33779588Y-63957670D01*
X33703368Y-64062577D01*
X32452130Y-62811339D01*
X32299580Y-62997223D01*
X32299571Y-62997236D01*
X32116275Y-63271558D01*
X31960743Y-63562537D01*
X31834476Y-63867373D01*
X31834475Y-63867375D01*
X31738705Y-64183088D01*
X31738704Y-64183095D01*
X31674340Y-64506678D01*
X31674337Y-64506699D01*
X31642000Y-64835025D01*
X30025500Y-64835025D01*
X30025500Y-60697061D01*
X103072000Y-60697061D01*
X103072000Y-60746000D01*
X103949297Y-60746000D01*
X103914075Y-60807007D01*
X103880000Y-60934174D01*
X103880000Y-61065826D01*
X103914075Y-61192993D01*
X103949297Y-61254000D01*
X103072000Y-61254000D01*
X103072000Y-61302938D01*
X103104208Y-61506296D01*
X103167826Y-61702093D01*
X103167829Y-61702099D01*
X103261300Y-61885545D01*
X103382315Y-62052107D01*
X103382317Y-62052110D01*
X103527889Y-62197682D01*
X103527892Y-62197684D01*
X103694454Y-62318699D01*
X103877900Y-62412170D01*
X103877906Y-62412173D01*
X104073705Y-62475791D01*
X104073717Y-62475794D01*
X104125999Y-62484074D01*
X104126000Y-62484074D01*
X104126000Y-61430702D01*
X104187007Y-61465925D01*
X104314174Y-61500000D01*
X104445826Y-61500000D01*
X104572993Y-61465925D01*
X104634000Y-61430702D01*
X104634000Y-62484074D01*
X104686282Y-62475794D01*
X104686294Y-62475791D01*
X104882093Y-62412173D01*
X104882099Y-62412170D01*
X105065545Y-62318699D01*
X105232107Y-62197684D01*
X105232110Y-62197682D01*
X105377682Y-62052110D01*
X105377684Y-62052107D01*
X105498699Y-61885545D01*
X105537453Y-61809488D01*
X105586201Y-61757873D01*
X105655116Y-61740807D01*
X105722318Y-61763708D01*
X105761985Y-61809486D01*
X105800871Y-61885803D01*
X105921932Y-62052430D01*
X105921934Y-62052432D01*
X105921936Y-62052435D01*
X106067564Y-62198063D01*
X106067567Y-62198065D01*
X106067570Y-62198068D01*
X106234197Y-62319129D01*
X106417710Y-62412634D01*
X106613592Y-62476280D01*
X106817019Y-62508500D01*
X106817022Y-62508500D01*
X107022978Y-62508500D01*
X107022981Y-62508500D01*
X107226408Y-62476280D01*
X107422290Y-62412634D01*
X107605803Y-62319129D01*
X107772430Y-62198068D01*
X107918068Y-62052430D01*
X108039129Y-61885803D01*
X108077734Y-61810034D01*
X108126481Y-61758422D01*
X108195396Y-61741356D01*
X108262598Y-61764257D01*
X108302264Y-61810034D01*
X108340871Y-61885803D01*
X108461932Y-62052430D01*
X108461934Y-62052432D01*
X108461936Y-62052435D01*
X108607564Y-62198063D01*
X108607567Y-62198065D01*
X108607570Y-62198068D01*
X108774197Y-62319129D01*
X108957710Y-62412634D01*
X109153592Y-62476280D01*
X109357019Y-62508500D01*
X109357022Y-62508500D01*
X109562978Y-62508500D01*
X109562981Y-62508500D01*
X109766408Y-62476280D01*
X109962290Y-62412634D01*
X110145803Y-62319129D01*
X110312430Y-62198068D01*
X110458068Y-62052430D01*
X110579129Y-61885803D01*
X110617734Y-61810034D01*
X110666481Y-61758422D01*
X110735396Y-61741356D01*
X110802598Y-61764257D01*
X110842264Y-61810034D01*
X110880871Y-61885803D01*
X111001932Y-62052430D01*
X111001934Y-62052432D01*
X111001936Y-62052435D01*
X111147564Y-62198063D01*
X111147567Y-62198065D01*
X111147570Y-62198068D01*
X111314197Y-62319129D01*
X111497710Y-62412634D01*
X111693592Y-62476280D01*
X111897019Y-62508500D01*
X111897022Y-62508500D01*
X112102978Y-62508500D01*
X112102981Y-62508500D01*
X112306408Y-62476280D01*
X112502290Y-62412634D01*
X112685803Y-62319129D01*
X112852430Y-62198068D01*
X112998068Y-62052430D01*
X113119129Y-61885803D01*
X113212634Y-61702290D01*
X113276280Y-61506408D01*
X113308500Y-61302981D01*
X113308500Y-60697019D01*
X113276280Y-60493592D01*
X113212634Y-60297710D01*
X113119129Y-60114197D01*
X112998068Y-59947570D01*
X112998065Y-59947567D01*
X112998063Y-59947564D01*
X112852435Y-59801936D01*
X112852432Y-59801934D01*
X112852430Y-59801932D01*
X112726999Y-59710802D01*
X112685806Y-59680873D01*
X112685805Y-59680872D01*
X112685803Y-59680871D01*
X112502290Y-59587366D01*
X112502287Y-59587365D01*
X112502285Y-59587364D01*
X112306412Y-59523721D01*
X112306410Y-59523720D01*
X112306408Y-59523720D01*
X112102981Y-59491500D01*
X111897019Y-59491500D01*
X111693592Y-59523720D01*
X111693590Y-59523720D01*
X111693587Y-59523721D01*
X111497714Y-59587364D01*
X111497708Y-59587367D01*
X111314193Y-59680873D01*
X111147567Y-59801934D01*
X111147564Y-59801936D01*
X111001936Y-59947564D01*
X111001934Y-59947567D01*
X110880873Y-60114193D01*
X110842267Y-60189962D01*
X110793518Y-60241577D01*
X110724603Y-60258643D01*
X110657402Y-60235742D01*
X110617733Y-60189962D01*
X110579129Y-60114197D01*
X110458068Y-59947570D01*
X110458065Y-59947567D01*
X110458063Y-59947564D01*
X110312435Y-59801936D01*
X110312432Y-59801934D01*
X110312430Y-59801932D01*
X110186999Y-59710802D01*
X110145806Y-59680873D01*
X110145805Y-59680872D01*
X110145803Y-59680871D01*
X109962290Y-59587366D01*
X109962287Y-59587365D01*
X109962285Y-59587364D01*
X109766412Y-59523721D01*
X109766410Y-59523720D01*
X109766408Y-59523720D01*
X109562981Y-59491500D01*
X109357019Y-59491500D01*
X109153592Y-59523720D01*
X109153590Y-59523720D01*
X109153587Y-59523721D01*
X108957714Y-59587364D01*
X108957708Y-59587367D01*
X108774193Y-59680873D01*
X108607567Y-59801934D01*
X108607564Y-59801936D01*
X108461936Y-59947564D01*
X108461934Y-59947567D01*
X108340873Y-60114193D01*
X108302267Y-60189962D01*
X108253518Y-60241577D01*
X108184603Y-60258643D01*
X108117402Y-60235742D01*
X108077733Y-60189962D01*
X108039129Y-60114197D01*
X107918068Y-59947570D01*
X107918065Y-59947567D01*
X107918063Y-59947564D01*
X107772435Y-59801936D01*
X107772432Y-59801934D01*
X107772430Y-59801932D01*
X107646999Y-59710802D01*
X107605806Y-59680873D01*
X107605805Y-59680872D01*
X107605803Y-59680871D01*
X107422290Y-59587366D01*
X107422287Y-59587365D01*
X107422285Y-59587364D01*
X107226412Y-59523721D01*
X107226410Y-59523720D01*
X107226408Y-59523720D01*
X107022981Y-59491500D01*
X106817019Y-59491500D01*
X106613592Y-59523720D01*
X106613590Y-59523720D01*
X106613587Y-59523721D01*
X106417714Y-59587364D01*
X106417708Y-59587367D01*
X106234193Y-59680873D01*
X106067567Y-59801934D01*
X106067564Y-59801936D01*
X105921936Y-59947564D01*
X105921934Y-59947567D01*
X105800872Y-60114193D01*
X105761987Y-60190511D01*
X105713238Y-60242126D01*
X105644323Y-60259192D01*
X105577122Y-60236291D01*
X105537453Y-60190511D01*
X105498700Y-60114455D01*
X105377684Y-59947892D01*
X105377682Y-59947889D01*
X105232110Y-59802317D01*
X105232107Y-59802315D01*
X105065545Y-59681300D01*
X104882099Y-59587829D01*
X104882093Y-59587826D01*
X104686294Y-59524208D01*
X104686296Y-59524208D01*
X104634000Y-59515925D01*
X104634000Y-60569297D01*
X104572993Y-60534075D01*
X104445826Y-60500000D01*
X104314174Y-60500000D01*
X104187007Y-60534075D01*
X104126000Y-60569297D01*
X104126000Y-59515925D01*
X104073704Y-59524208D01*
X103877906Y-59587826D01*
X103877900Y-59587829D01*
X103694454Y-59681300D01*
X103527892Y-59802315D01*
X103527889Y-59802317D01*
X103382317Y-59947889D01*
X103382315Y-59947892D01*
X103261300Y-60114454D01*
X103167829Y-60297900D01*
X103167826Y-60297906D01*
X103104208Y-60493703D01*
X103072000Y-60697061D01*
X30025500Y-60697061D01*
X30025500Y-52812759D01*
X30374940Y-52812759D01*
X30374940Y-53787241D01*
X30402235Y-53959574D01*
X30456152Y-54125516D01*
X30535366Y-54280981D01*
X30637923Y-54422139D01*
X30637925Y-54422141D01*
X30637927Y-54422144D01*
X30761295Y-54545512D01*
X30761298Y-54545514D01*
X30761301Y-54545517D01*
X30902459Y-54648074D01*
X31057924Y-54727288D01*
X31223866Y-54781205D01*
X31396199Y-54808500D01*
X31396202Y-54808500D01*
X31570678Y-54808500D01*
X31570681Y-54808500D01*
X31743014Y-54781205D01*
X31908956Y-54727288D01*
X32064421Y-54648074D01*
X32205579Y-54545517D01*
X32328957Y-54422139D01*
X32431514Y-54280981D01*
X32510728Y-54125516D01*
X32564645Y-53959574D01*
X32591940Y-53787241D01*
X32591940Y-52812759D01*
X32914940Y-52812759D01*
X32914940Y-53787241D01*
X32942235Y-53959574D01*
X32996152Y-54125516D01*
X33075366Y-54280981D01*
X33177923Y-54422139D01*
X33177925Y-54422141D01*
X33177927Y-54422144D01*
X33301295Y-54545512D01*
X33301298Y-54545514D01*
X33301301Y-54545517D01*
X33442459Y-54648074D01*
X33597924Y-54727288D01*
X33763866Y-54781205D01*
X33936199Y-54808500D01*
X33936202Y-54808500D01*
X34110678Y-54808500D01*
X34110681Y-54808500D01*
X34283014Y-54781205D01*
X34448956Y-54727288D01*
X34604421Y-54648074D01*
X34745579Y-54545517D01*
X34868957Y-54422139D01*
X34971514Y-54280981D01*
X35050728Y-54125516D01*
X35104645Y-53959574D01*
X35131940Y-53787241D01*
X35131940Y-52812759D01*
X35454940Y-52812759D01*
X35454940Y-53787241D01*
X35482235Y-53959574D01*
X35536152Y-54125516D01*
X35615366Y-54280981D01*
X35717923Y-54422139D01*
X35717925Y-54422141D01*
X35717927Y-54422144D01*
X35841295Y-54545512D01*
X35841298Y-54545514D01*
X35841301Y-54545517D01*
X35982459Y-54648074D01*
X36137924Y-54727288D01*
X36303866Y-54781205D01*
X36476199Y-54808500D01*
X36476202Y-54808500D01*
X36650678Y-54808500D01*
X36650681Y-54808500D01*
X36823014Y-54781205D01*
X36988956Y-54727288D01*
X37144421Y-54648074D01*
X37285579Y-54545517D01*
X37408957Y-54422139D01*
X37511514Y-54280981D01*
X37590728Y-54125516D01*
X37644645Y-53959574D01*
X37671940Y-53787241D01*
X37671940Y-52812759D01*
X37994940Y-52812759D01*
X37994940Y-53787241D01*
X38022235Y-53959574D01*
X38076152Y-54125516D01*
X38155366Y-54280981D01*
X38257923Y-54422139D01*
X38257925Y-54422141D01*
X38257927Y-54422144D01*
X38381295Y-54545512D01*
X38381298Y-54545514D01*
X38381301Y-54545517D01*
X38522459Y-54648074D01*
X38677924Y-54727288D01*
X38843866Y-54781205D01*
X39016199Y-54808500D01*
X39016202Y-54808500D01*
X39190678Y-54808500D01*
X39190681Y-54808500D01*
X39363014Y-54781205D01*
X39528956Y-54727288D01*
X39684421Y-54648074D01*
X39825579Y-54545517D01*
X39948957Y-54422139D01*
X40051514Y-54280981D01*
X40130728Y-54125516D01*
X40184645Y-53959574D01*
X40211940Y-53787241D01*
X40211940Y-52812759D01*
X40534940Y-52812759D01*
X40534940Y-53787241D01*
X40562235Y-53959574D01*
X40616152Y-54125516D01*
X40695366Y-54280981D01*
X40797923Y-54422139D01*
X40797925Y-54422141D01*
X40797927Y-54422144D01*
X40921295Y-54545512D01*
X40921298Y-54545514D01*
X40921301Y-54545517D01*
X41062459Y-54648074D01*
X41217924Y-54727288D01*
X41383866Y-54781205D01*
X41556199Y-54808500D01*
X41556202Y-54808500D01*
X41730678Y-54808500D01*
X41730681Y-54808500D01*
X41903014Y-54781205D01*
X42068956Y-54727288D01*
X42224421Y-54648074D01*
X42365579Y-54545517D01*
X42488957Y-54422139D01*
X42591514Y-54280981D01*
X42670728Y-54125516D01*
X42724645Y-53959574D01*
X42751940Y-53787241D01*
X42751940Y-52812802D01*
X43075440Y-52812802D01*
X43075440Y-53046000D01*
X43871754Y-53046000D01*
X43863360Y-53054394D01*
X43810699Y-53145606D01*
X43783440Y-53247339D01*
X43783440Y-53352661D01*
X43810699Y-53454394D01*
X43863360Y-53545606D01*
X43871754Y-53554000D01*
X43075440Y-53554000D01*
X43075440Y-53787197D01*
X43102724Y-53959462D01*
X43156614Y-54125319D01*
X43156617Y-54125325D01*
X43235796Y-54280721D01*
X43338307Y-54421815D01*
X43338309Y-54421818D01*
X43461621Y-54545130D01*
X43461624Y-54545132D01*
X43602718Y-54647643D01*
X43758114Y-54726822D01*
X43758120Y-54726825D01*
X43923974Y-54780714D01*
X43929440Y-54781580D01*
X43929440Y-53611686D01*
X43937834Y-53620080D01*
X44029046Y-53672741D01*
X44130779Y-53700000D01*
X44236101Y-53700000D01*
X44337834Y-53672741D01*
X44429046Y-53620080D01*
X44437440Y-53611686D01*
X44437440Y-54781580D01*
X44442905Y-54780714D01*
X44608759Y-54726825D01*
X44608765Y-54726822D01*
X44764161Y-54647643D01*
X44905255Y-54545132D01*
X44905258Y-54545130D01*
X45028570Y-54421818D01*
X45028572Y-54421815D01*
X45131083Y-54280721D01*
X45210262Y-54125325D01*
X45210265Y-54125319D01*
X45264155Y-53959462D01*
X45291440Y-53787197D01*
X45291440Y-53554000D01*
X44495126Y-53554000D01*
X44503520Y-53545606D01*
X44556181Y-53454394D01*
X44583440Y-53352661D01*
X44583440Y-53247339D01*
X44556181Y-53145606D01*
X44503520Y-53054394D01*
X44495126Y-53046000D01*
X45291440Y-53046000D01*
X45291440Y-52812802D01*
X45291433Y-52812759D01*
X45614940Y-52812759D01*
X45614940Y-53787241D01*
X45642235Y-53959574D01*
X45696152Y-54125516D01*
X45775366Y-54280981D01*
X45877923Y-54422139D01*
X45877925Y-54422141D01*
X45877927Y-54422144D01*
X46001295Y-54545512D01*
X46001298Y-54545514D01*
X46001301Y-54545517D01*
X46142459Y-54648074D01*
X46297924Y-54727288D01*
X46463866Y-54781205D01*
X46636199Y-54808500D01*
X46636202Y-54808500D01*
X46810678Y-54808500D01*
X46810681Y-54808500D01*
X46983014Y-54781205D01*
X47148956Y-54727288D01*
X47304421Y-54648074D01*
X47445579Y-54545517D01*
X47568957Y-54422139D01*
X47671514Y-54280981D01*
X47750728Y-54125516D01*
X47804645Y-53959574D01*
X47831940Y-53787241D01*
X47831940Y-52812759D01*
X48154940Y-52812759D01*
X48154940Y-53787241D01*
X48182235Y-53959574D01*
X48236152Y-54125516D01*
X48315366Y-54280981D01*
X48417923Y-54422139D01*
X48417925Y-54422141D01*
X48417927Y-54422144D01*
X48541295Y-54545512D01*
X48541298Y-54545514D01*
X48541301Y-54545517D01*
X48682459Y-54648074D01*
X48837924Y-54727288D01*
X49003866Y-54781205D01*
X49176199Y-54808500D01*
X49176202Y-54808500D01*
X49350678Y-54808500D01*
X49350681Y-54808500D01*
X49523014Y-54781205D01*
X49688956Y-54727288D01*
X49844421Y-54648074D01*
X49985579Y-54545517D01*
X50108957Y-54422139D01*
X50211514Y-54280981D01*
X50290728Y-54125516D01*
X50344645Y-53959574D01*
X50371940Y-53787241D01*
X50371940Y-52812759D01*
X50694940Y-52812759D01*
X50694940Y-53787241D01*
X50722235Y-53959574D01*
X50776152Y-54125516D01*
X50855366Y-54280981D01*
X50957923Y-54422139D01*
X50957925Y-54422141D01*
X50957927Y-54422144D01*
X51081295Y-54545512D01*
X51081298Y-54545514D01*
X51081301Y-54545517D01*
X51222459Y-54648074D01*
X51377924Y-54727288D01*
X51543866Y-54781205D01*
X51716199Y-54808500D01*
X51716202Y-54808500D01*
X51890678Y-54808500D01*
X51890681Y-54808500D01*
X52063014Y-54781205D01*
X52228956Y-54727288D01*
X52384421Y-54648074D01*
X52525579Y-54545517D01*
X52648957Y-54422139D01*
X52751514Y-54280981D01*
X52830728Y-54125516D01*
X52884645Y-53959574D01*
X52911940Y-53787241D01*
X52911940Y-52812759D01*
X53234940Y-52812759D01*
X53234940Y-53787241D01*
X53262235Y-53959574D01*
X53316152Y-54125516D01*
X53395366Y-54280981D01*
X53497923Y-54422139D01*
X53497925Y-54422141D01*
X53497927Y-54422144D01*
X53621295Y-54545512D01*
X53621298Y-54545514D01*
X53621301Y-54545517D01*
X53762459Y-54648074D01*
X53917924Y-54727288D01*
X54083866Y-54781205D01*
X54256199Y-54808500D01*
X54256202Y-54808500D01*
X54430678Y-54808500D01*
X54430681Y-54808500D01*
X54603014Y-54781205D01*
X54768956Y-54727288D01*
X54924421Y-54648074D01*
X55065579Y-54545517D01*
X55188957Y-54422139D01*
X55291514Y-54280981D01*
X55370728Y-54125516D01*
X55424645Y-53959574D01*
X55451940Y-53787241D01*
X55451940Y-52812759D01*
X55774940Y-52812759D01*
X55774940Y-53787241D01*
X55802235Y-53959574D01*
X55856152Y-54125516D01*
X55935366Y-54280981D01*
X56037923Y-54422139D01*
X56037925Y-54422141D01*
X56037927Y-54422144D01*
X56161295Y-54545512D01*
X56161298Y-54545514D01*
X56161301Y-54545517D01*
X56302459Y-54648074D01*
X56457924Y-54727288D01*
X56623866Y-54781205D01*
X56796199Y-54808500D01*
X56796202Y-54808500D01*
X56970678Y-54808500D01*
X56970681Y-54808500D01*
X57143014Y-54781205D01*
X57308956Y-54727288D01*
X57464421Y-54648074D01*
X57605579Y-54545517D01*
X57728957Y-54422139D01*
X57831514Y-54280981D01*
X57910728Y-54125516D01*
X57964645Y-53959574D01*
X57991940Y-53787241D01*
X57991940Y-52812759D01*
X58314940Y-52812759D01*
X58314940Y-53787241D01*
X58342235Y-53959574D01*
X58396152Y-54125516D01*
X58475366Y-54280981D01*
X58577923Y-54422139D01*
X58577925Y-54422141D01*
X58577927Y-54422144D01*
X58701295Y-54545512D01*
X58701298Y-54545514D01*
X58701301Y-54545517D01*
X58842459Y-54648074D01*
X58997924Y-54727288D01*
X59163866Y-54781205D01*
X59336199Y-54808500D01*
X59336202Y-54808500D01*
X59510678Y-54808500D01*
X59510681Y-54808500D01*
X59683014Y-54781205D01*
X59848956Y-54727288D01*
X60004421Y-54648074D01*
X60145579Y-54545517D01*
X60268957Y-54422139D01*
X60371514Y-54280981D01*
X60450728Y-54125516D01*
X60504645Y-53959574D01*
X60531940Y-53787241D01*
X60531940Y-52812759D01*
X60854940Y-52812759D01*
X60854940Y-53787241D01*
X60882235Y-53959574D01*
X60936152Y-54125516D01*
X61015366Y-54280981D01*
X61117923Y-54422139D01*
X61117925Y-54422141D01*
X61117927Y-54422144D01*
X61241295Y-54545512D01*
X61241298Y-54545514D01*
X61241301Y-54545517D01*
X61382459Y-54648074D01*
X61537924Y-54727288D01*
X61703866Y-54781205D01*
X61876199Y-54808500D01*
X61876202Y-54808500D01*
X62050678Y-54808500D01*
X62050681Y-54808500D01*
X62223014Y-54781205D01*
X62388956Y-54727288D01*
X62544421Y-54648074D01*
X62685579Y-54545517D01*
X62808957Y-54422139D01*
X62911514Y-54280981D01*
X62990728Y-54125516D01*
X63044645Y-53959574D01*
X63071940Y-53787241D01*
X63071940Y-52812759D01*
X63394940Y-52812759D01*
X63394940Y-53787241D01*
X63422235Y-53959574D01*
X63476152Y-54125516D01*
X63555366Y-54280981D01*
X63657923Y-54422139D01*
X63657925Y-54422141D01*
X63657927Y-54422144D01*
X63781295Y-54545512D01*
X63781298Y-54545514D01*
X63781301Y-54545517D01*
X63922459Y-54648074D01*
X64077924Y-54727288D01*
X64243866Y-54781205D01*
X64416199Y-54808500D01*
X64416202Y-54808500D01*
X64590678Y-54808500D01*
X64590681Y-54808500D01*
X64763014Y-54781205D01*
X64928956Y-54727288D01*
X65084421Y-54648074D01*
X65225579Y-54545517D01*
X65348957Y-54422139D01*
X65451514Y-54280981D01*
X65530728Y-54125516D01*
X65584645Y-53959574D01*
X65611940Y-53787241D01*
X65611940Y-52812759D01*
X65934940Y-52812759D01*
X65934940Y-53787241D01*
X65962235Y-53959574D01*
X66016152Y-54125516D01*
X66095366Y-54280981D01*
X66197923Y-54422139D01*
X66197925Y-54422141D01*
X66197927Y-54422144D01*
X66321295Y-54545512D01*
X66321298Y-54545514D01*
X66321301Y-54545517D01*
X66462459Y-54648074D01*
X66617924Y-54727288D01*
X66783866Y-54781205D01*
X66956199Y-54808500D01*
X66956202Y-54808500D01*
X67130678Y-54808500D01*
X67130681Y-54808500D01*
X67303014Y-54781205D01*
X67468956Y-54727288D01*
X67624421Y-54648074D01*
X67765579Y-54545517D01*
X67888957Y-54422139D01*
X67991514Y-54280981D01*
X68070728Y-54125516D01*
X68124645Y-53959574D01*
X68151940Y-53787241D01*
X68151940Y-52812759D01*
X68474940Y-52812759D01*
X68474940Y-53787241D01*
X68502235Y-53959574D01*
X68556152Y-54125516D01*
X68635366Y-54280981D01*
X68737923Y-54422139D01*
X68737925Y-54422141D01*
X68737927Y-54422144D01*
X68861295Y-54545512D01*
X68861298Y-54545514D01*
X68861301Y-54545517D01*
X69002459Y-54648074D01*
X69157924Y-54727288D01*
X69323866Y-54781205D01*
X69496199Y-54808500D01*
X69496202Y-54808500D01*
X69670678Y-54808500D01*
X69670681Y-54808500D01*
X69843014Y-54781205D01*
X70008956Y-54727288D01*
X70164421Y-54648074D01*
X70305579Y-54545517D01*
X70428957Y-54422139D01*
X70531514Y-54280981D01*
X70610728Y-54125516D01*
X70664645Y-53959574D01*
X70691940Y-53787241D01*
X70691940Y-52812759D01*
X71014940Y-52812759D01*
X71014940Y-53787241D01*
X71042235Y-53959574D01*
X71096152Y-54125516D01*
X71175366Y-54280981D01*
X71277923Y-54422139D01*
X71277925Y-54422141D01*
X71277927Y-54422144D01*
X71401295Y-54545512D01*
X71401298Y-54545514D01*
X71401301Y-54545517D01*
X71542459Y-54648074D01*
X71697924Y-54727288D01*
X71863866Y-54781205D01*
X72036199Y-54808500D01*
X72036202Y-54808500D01*
X72210678Y-54808500D01*
X72210681Y-54808500D01*
X72383014Y-54781205D01*
X72548956Y-54727288D01*
X72704421Y-54648074D01*
X72845579Y-54545517D01*
X72968957Y-54422139D01*
X73071514Y-54280981D01*
X73150728Y-54125516D01*
X73204645Y-53959574D01*
X73231940Y-53787241D01*
X73231940Y-52812759D01*
X73554940Y-52812759D01*
X73554940Y-53787241D01*
X73582235Y-53959574D01*
X73636152Y-54125516D01*
X73715366Y-54280981D01*
X73817923Y-54422139D01*
X73817925Y-54422141D01*
X73817927Y-54422144D01*
X73941295Y-54545512D01*
X73941298Y-54545514D01*
X73941301Y-54545517D01*
X74082459Y-54648074D01*
X74237924Y-54727288D01*
X74403866Y-54781205D01*
X74576199Y-54808500D01*
X74576202Y-54808500D01*
X74750678Y-54808500D01*
X74750681Y-54808500D01*
X74923014Y-54781205D01*
X75088956Y-54727288D01*
X75244421Y-54648074D01*
X75385579Y-54545517D01*
X75508957Y-54422139D01*
X75611514Y-54280981D01*
X75690728Y-54125516D01*
X75744645Y-53959574D01*
X75771940Y-53787241D01*
X75771940Y-52812759D01*
X75744645Y-52640426D01*
X75690728Y-52474484D01*
X75611514Y-52319019D01*
X75611512Y-52319016D01*
X75611511Y-52319014D01*
X75562350Y-52251350D01*
X76094940Y-52251350D01*
X76094940Y-54348649D01*
X76101449Y-54409196D01*
X76101451Y-54409204D01*
X76152550Y-54546202D01*
X76152552Y-54546207D01*
X76240178Y-54663261D01*
X76357232Y-54750887D01*
X76357234Y-54750888D01*
X76357236Y-54750889D01*
X76416315Y-54772924D01*
X76494235Y-54801988D01*
X76494243Y-54801990D01*
X76554790Y-54808499D01*
X76554795Y-54808499D01*
X76554802Y-54808500D01*
X76554808Y-54808500D01*
X77852072Y-54808500D01*
X77852078Y-54808500D01*
X77852085Y-54808499D01*
X77852089Y-54808499D01*
X77912636Y-54801990D01*
X77912639Y-54801989D01*
X77912641Y-54801989D01*
X78049644Y-54750889D01*
X78166701Y-54663261D01*
X78178393Y-54647643D01*
X78254327Y-54546207D01*
X78254327Y-54546206D01*
X78254329Y-54546204D01*
X78305429Y-54409201D01*
X78310804Y-54359210D01*
X78311939Y-54348649D01*
X78311940Y-54348632D01*
X78311940Y-53835025D01*
X116642000Y-53835025D01*
X116642000Y-54164974D01*
X116674337Y-54493300D01*
X116674340Y-54493321D01*
X116738704Y-54816904D01*
X116738705Y-54816911D01*
X116834475Y-55132624D01*
X116834476Y-55132626D01*
X116960743Y-55437462D01*
X117116275Y-55728441D01*
X117299576Y-56002772D01*
X117452130Y-56188659D01*
X118703367Y-54937421D01*
X118779588Y-55042330D01*
X118957670Y-55220412D01*
X119062576Y-55296631D01*
X117811339Y-56547868D01*
X117997232Y-56700427D01*
X118271558Y-56883724D01*
X118562537Y-57039256D01*
X118867373Y-57165523D01*
X118867375Y-57165524D01*
X119183088Y-57261294D01*
X119183095Y-57261295D01*
X119506678Y-57325659D01*
X119506699Y-57325662D01*
X119835025Y-57357999D01*
X119835041Y-57358000D01*
X120164959Y-57358000D01*
X120164974Y-57357999D01*
X120493300Y-57325662D01*
X120493321Y-57325659D01*
X120816904Y-57261295D01*
X120816911Y-57261294D01*
X121132624Y-57165524D01*
X121132626Y-57165523D01*
X121437462Y-57039256D01*
X121728441Y-56883724D01*
X122002762Y-56700429D01*
X122002768Y-56700425D01*
X122188659Y-56547868D01*
X120937422Y-55296631D01*
X121042330Y-55220412D01*
X121220412Y-55042330D01*
X121296631Y-54937422D01*
X122547868Y-56188659D01*
X122700425Y-56002768D01*
X122700429Y-56002762D01*
X122883724Y-55728441D01*
X123039256Y-55437462D01*
X123165523Y-55132626D01*
X123165524Y-55132624D01*
X123261294Y-54816911D01*
X123261295Y-54816904D01*
X123325659Y-54493321D01*
X123325662Y-54493300D01*
X123357999Y-54164974D01*
X123358000Y-54164958D01*
X123358000Y-53835041D01*
X123357999Y-53835025D01*
X123325662Y-53506699D01*
X123325659Y-53506678D01*
X123261295Y-53183095D01*
X123261294Y-53183088D01*
X123165524Y-52867375D01*
X123165523Y-52867373D01*
X123039256Y-52562537D01*
X122883724Y-52271558D01*
X122700427Y-51997232D01*
X122547868Y-51811339D01*
X121296631Y-53062576D01*
X121220412Y-52957670D01*
X121042330Y-52779588D01*
X120937422Y-52703367D01*
X122188659Y-51452130D01*
X122188659Y-51452129D01*
X122002772Y-51299576D01*
X121728441Y-51116275D01*
X121437462Y-50960743D01*
X121132626Y-50834476D01*
X121132624Y-50834475D01*
X120816911Y-50738705D01*
X120816904Y-50738704D01*
X120493321Y-50674340D01*
X120493300Y-50674337D01*
X120164974Y-50642000D01*
X119835025Y-50642000D01*
X119506699Y-50674337D01*
X119506678Y-50674340D01*
X119183095Y-50738704D01*
X119183088Y-50738705D01*
X118867375Y-50834475D01*
X118867373Y-50834476D01*
X118562537Y-50960743D01*
X118271558Y-51116275D01*
X117997236Y-51299571D01*
X117997223Y-51299580D01*
X117811339Y-51452130D01*
X119062577Y-52703368D01*
X118957670Y-52779588D01*
X118779588Y-52957670D01*
X118703368Y-53062577D01*
X117452130Y-51811339D01*
X117299580Y-51997223D01*
X117299571Y-51997236D01*
X117116275Y-52271558D01*
X116960743Y-52562537D01*
X116834476Y-52867373D01*
X116834475Y-52867375D01*
X116738705Y-53183088D01*
X116738704Y-53183095D01*
X116674340Y-53506678D01*
X116674337Y-53506699D01*
X116642000Y-53835025D01*
X78311940Y-53835025D01*
X78311940Y-52251367D01*
X78311939Y-52251350D01*
X78305430Y-52190803D01*
X78305428Y-52190795D01*
X78254728Y-52054867D01*
X78254329Y-52053796D01*
X78254328Y-52053794D01*
X78254327Y-52053792D01*
X78166701Y-51936738D01*
X78049647Y-51849112D01*
X78049642Y-51849110D01*
X77912644Y-51798011D01*
X77912636Y-51798009D01*
X77852089Y-51791500D01*
X77852078Y-51791500D01*
X76554802Y-51791500D01*
X76554790Y-51791500D01*
X76494243Y-51798009D01*
X76494235Y-51798011D01*
X76357237Y-51849110D01*
X76357232Y-51849112D01*
X76240178Y-51936738D01*
X76152552Y-52053792D01*
X76152550Y-52053797D01*
X76101451Y-52190795D01*
X76101449Y-52190803D01*
X76094940Y-52251350D01*
X75562350Y-52251350D01*
X75508957Y-52177861D01*
X75508954Y-52177858D01*
X75508952Y-52177855D01*
X75385584Y-52054487D01*
X75385581Y-52054485D01*
X75385579Y-52054483D01*
X75244421Y-51951926D01*
X75088956Y-51872712D01*
X75088953Y-51872711D01*
X75088951Y-51872710D01*
X74923017Y-51818796D01*
X74923014Y-51818795D01*
X74750681Y-51791500D01*
X74576199Y-51791500D01*
X74403866Y-51818795D01*
X74403863Y-51818795D01*
X74403862Y-51818796D01*
X74237928Y-51872710D01*
X74237922Y-51872713D01*
X74082455Y-51951928D01*
X73941298Y-52054485D01*
X73941295Y-52054487D01*
X73817927Y-52177855D01*
X73817925Y-52177858D01*
X73715368Y-52319015D01*
X73636153Y-52474482D01*
X73636150Y-52474488D01*
X73582236Y-52640422D01*
X73582235Y-52640426D01*
X73554940Y-52812759D01*
X73231940Y-52812759D01*
X73204645Y-52640426D01*
X73150728Y-52474484D01*
X73071514Y-52319019D01*
X72968957Y-52177861D01*
X72968954Y-52177858D01*
X72968952Y-52177855D01*
X72845584Y-52054487D01*
X72845581Y-52054485D01*
X72845579Y-52054483D01*
X72704421Y-51951926D01*
X72548956Y-51872712D01*
X72548953Y-51872711D01*
X72548951Y-51872710D01*
X72383017Y-51818796D01*
X72383014Y-51818795D01*
X72210681Y-51791500D01*
X72036199Y-51791500D01*
X71863866Y-51818795D01*
X71863863Y-51818795D01*
X71863862Y-51818796D01*
X71697928Y-51872710D01*
X71697922Y-51872713D01*
X71542455Y-51951928D01*
X71401298Y-52054485D01*
X71401295Y-52054487D01*
X71277927Y-52177855D01*
X71277925Y-52177858D01*
X71175368Y-52319015D01*
X71096153Y-52474482D01*
X71096150Y-52474488D01*
X71042236Y-52640422D01*
X71042235Y-52640426D01*
X71014940Y-52812759D01*
X70691940Y-52812759D01*
X70664645Y-52640426D01*
X70610728Y-52474484D01*
X70531514Y-52319019D01*
X70428957Y-52177861D01*
X70428954Y-52177858D01*
X70428952Y-52177855D01*
X70305584Y-52054487D01*
X70305581Y-52054485D01*
X70305579Y-52054483D01*
X70164421Y-51951926D01*
X70008956Y-51872712D01*
X70008953Y-51872711D01*
X70008951Y-51872710D01*
X69843017Y-51818796D01*
X69843014Y-51818795D01*
X69670681Y-51791500D01*
X69496199Y-51791500D01*
X69323866Y-51818795D01*
X69323863Y-51818795D01*
X69323862Y-51818796D01*
X69157928Y-51872710D01*
X69157922Y-51872713D01*
X69002455Y-51951928D01*
X68861298Y-52054485D01*
X68861295Y-52054487D01*
X68737927Y-52177855D01*
X68737925Y-52177858D01*
X68635368Y-52319015D01*
X68556153Y-52474482D01*
X68556150Y-52474488D01*
X68502236Y-52640422D01*
X68502235Y-52640426D01*
X68474940Y-52812759D01*
X68151940Y-52812759D01*
X68124645Y-52640426D01*
X68070728Y-52474484D01*
X67991514Y-52319019D01*
X67888957Y-52177861D01*
X67888954Y-52177858D01*
X67888952Y-52177855D01*
X67765584Y-52054487D01*
X67765581Y-52054485D01*
X67765579Y-52054483D01*
X67624421Y-51951926D01*
X67468956Y-51872712D01*
X67468953Y-51872711D01*
X67468951Y-51872710D01*
X67303017Y-51818796D01*
X67303014Y-51818795D01*
X67130681Y-51791500D01*
X66956199Y-51791500D01*
X66783866Y-51818795D01*
X66783863Y-51818795D01*
X66783862Y-51818796D01*
X66617928Y-51872710D01*
X66617922Y-51872713D01*
X66462455Y-51951928D01*
X66321298Y-52054485D01*
X66321295Y-52054487D01*
X66197927Y-52177855D01*
X66197925Y-52177858D01*
X66095368Y-52319015D01*
X66016153Y-52474482D01*
X66016150Y-52474488D01*
X65962236Y-52640422D01*
X65962235Y-52640426D01*
X65934940Y-52812759D01*
X65611940Y-52812759D01*
X65584645Y-52640426D01*
X65530728Y-52474484D01*
X65451514Y-52319019D01*
X65348957Y-52177861D01*
X65348954Y-52177858D01*
X65348952Y-52177855D01*
X65225584Y-52054487D01*
X65225581Y-52054485D01*
X65225579Y-52054483D01*
X65084421Y-51951926D01*
X64928956Y-51872712D01*
X64928953Y-51872711D01*
X64928951Y-51872710D01*
X64763017Y-51818796D01*
X64763014Y-51818795D01*
X64590681Y-51791500D01*
X64416199Y-51791500D01*
X64243866Y-51818795D01*
X64243863Y-51818795D01*
X64243862Y-51818796D01*
X64077928Y-51872710D01*
X64077922Y-51872713D01*
X63922455Y-51951928D01*
X63781298Y-52054485D01*
X63781295Y-52054487D01*
X63657927Y-52177855D01*
X63657925Y-52177858D01*
X63555368Y-52319015D01*
X63476153Y-52474482D01*
X63476150Y-52474488D01*
X63422236Y-52640422D01*
X63422235Y-52640426D01*
X63394940Y-52812759D01*
X63071940Y-52812759D01*
X63044645Y-52640426D01*
X62990728Y-52474484D01*
X62911514Y-52319019D01*
X62808957Y-52177861D01*
X62808954Y-52177858D01*
X62808952Y-52177855D01*
X62685584Y-52054487D01*
X62685581Y-52054485D01*
X62685579Y-52054483D01*
X62544421Y-51951926D01*
X62388956Y-51872712D01*
X62388953Y-51872711D01*
X62388951Y-51872710D01*
X62223017Y-51818796D01*
X62223014Y-51818795D01*
X62050681Y-51791500D01*
X61876199Y-51791500D01*
X61703866Y-51818795D01*
X61703863Y-51818795D01*
X61703862Y-51818796D01*
X61537928Y-51872710D01*
X61537922Y-51872713D01*
X61382455Y-51951928D01*
X61241298Y-52054485D01*
X61241295Y-52054487D01*
X61117927Y-52177855D01*
X61117925Y-52177858D01*
X61015368Y-52319015D01*
X60936153Y-52474482D01*
X60936150Y-52474488D01*
X60882236Y-52640422D01*
X60882235Y-52640426D01*
X60854940Y-52812759D01*
X60531940Y-52812759D01*
X60504645Y-52640426D01*
X60450728Y-52474484D01*
X60371514Y-52319019D01*
X60268957Y-52177861D01*
X60268954Y-52177858D01*
X60268952Y-52177855D01*
X60145584Y-52054487D01*
X60145581Y-52054485D01*
X60145579Y-52054483D01*
X60004421Y-51951926D01*
X59848956Y-51872712D01*
X59848953Y-51872711D01*
X59848951Y-51872710D01*
X59683017Y-51818796D01*
X59683014Y-51818795D01*
X59510681Y-51791500D01*
X59336199Y-51791500D01*
X59163866Y-51818795D01*
X59163863Y-51818795D01*
X59163862Y-51818796D01*
X58997928Y-51872710D01*
X58997922Y-51872713D01*
X58842455Y-51951928D01*
X58701298Y-52054485D01*
X58701295Y-52054487D01*
X58577927Y-52177855D01*
X58577925Y-52177858D01*
X58475368Y-52319015D01*
X58396153Y-52474482D01*
X58396150Y-52474488D01*
X58342236Y-52640422D01*
X58342235Y-52640426D01*
X58314940Y-52812759D01*
X57991940Y-52812759D01*
X57964645Y-52640426D01*
X57910728Y-52474484D01*
X57831514Y-52319019D01*
X57728957Y-52177861D01*
X57728954Y-52177858D01*
X57728952Y-52177855D01*
X57605584Y-52054487D01*
X57605581Y-52054485D01*
X57605579Y-52054483D01*
X57464421Y-51951926D01*
X57308956Y-51872712D01*
X57308953Y-51872711D01*
X57308951Y-51872710D01*
X57143017Y-51818796D01*
X57143014Y-51818795D01*
X56970681Y-51791500D01*
X56796199Y-51791500D01*
X56623866Y-51818795D01*
X56623863Y-51818795D01*
X56623862Y-51818796D01*
X56457928Y-51872710D01*
X56457922Y-51872713D01*
X56302455Y-51951928D01*
X56161298Y-52054485D01*
X56161295Y-52054487D01*
X56037927Y-52177855D01*
X56037925Y-52177858D01*
X55935368Y-52319015D01*
X55856153Y-52474482D01*
X55856150Y-52474488D01*
X55802236Y-52640422D01*
X55802235Y-52640426D01*
X55774940Y-52812759D01*
X55451940Y-52812759D01*
X55424645Y-52640426D01*
X55370728Y-52474484D01*
X55291514Y-52319019D01*
X55188957Y-52177861D01*
X55188954Y-52177858D01*
X55188952Y-52177855D01*
X55065584Y-52054487D01*
X55065581Y-52054485D01*
X55065579Y-52054483D01*
X54924421Y-51951926D01*
X54768956Y-51872712D01*
X54768953Y-51872711D01*
X54768951Y-51872710D01*
X54603017Y-51818796D01*
X54603014Y-51818795D01*
X54430681Y-51791500D01*
X54256199Y-51791500D01*
X54083866Y-51818795D01*
X54083863Y-51818795D01*
X54083862Y-51818796D01*
X53917928Y-51872710D01*
X53917922Y-51872713D01*
X53762455Y-51951928D01*
X53621298Y-52054485D01*
X53621295Y-52054487D01*
X53497927Y-52177855D01*
X53497925Y-52177858D01*
X53395368Y-52319015D01*
X53316153Y-52474482D01*
X53316150Y-52474488D01*
X53262236Y-52640422D01*
X53262235Y-52640426D01*
X53234940Y-52812759D01*
X52911940Y-52812759D01*
X52884645Y-52640426D01*
X52830728Y-52474484D01*
X52751514Y-52319019D01*
X52648957Y-52177861D01*
X52648954Y-52177858D01*
X52648952Y-52177855D01*
X52525584Y-52054487D01*
X52525581Y-52054485D01*
X52525579Y-52054483D01*
X52384421Y-51951926D01*
X52228956Y-51872712D01*
X52228953Y-51872711D01*
X52228951Y-51872710D01*
X52063017Y-51818796D01*
X52063014Y-51818795D01*
X51890681Y-51791500D01*
X51716199Y-51791500D01*
X51543866Y-51818795D01*
X51543863Y-51818795D01*
X51543862Y-51818796D01*
X51377928Y-51872710D01*
X51377922Y-51872713D01*
X51222455Y-51951928D01*
X51081298Y-52054485D01*
X51081295Y-52054487D01*
X50957927Y-52177855D01*
X50957925Y-52177858D01*
X50855368Y-52319015D01*
X50776153Y-52474482D01*
X50776150Y-52474488D01*
X50722236Y-52640422D01*
X50722235Y-52640426D01*
X50694940Y-52812759D01*
X50371940Y-52812759D01*
X50344645Y-52640426D01*
X50290728Y-52474484D01*
X50211514Y-52319019D01*
X50108957Y-52177861D01*
X50108954Y-52177858D01*
X50108952Y-52177855D01*
X49985584Y-52054487D01*
X49985581Y-52054485D01*
X49985579Y-52054483D01*
X49844421Y-51951926D01*
X49688956Y-51872712D01*
X49688953Y-51872711D01*
X49688951Y-51872710D01*
X49523017Y-51818796D01*
X49523014Y-51818795D01*
X49350681Y-51791500D01*
X49176199Y-51791500D01*
X49003866Y-51818795D01*
X49003863Y-51818795D01*
X49003862Y-51818796D01*
X48837928Y-51872710D01*
X48837922Y-51872713D01*
X48682455Y-51951928D01*
X48541298Y-52054485D01*
X48541295Y-52054487D01*
X48417927Y-52177855D01*
X48417925Y-52177858D01*
X48315368Y-52319015D01*
X48236153Y-52474482D01*
X48236150Y-52474488D01*
X48182236Y-52640422D01*
X48182235Y-52640426D01*
X48154940Y-52812759D01*
X47831940Y-52812759D01*
X47804645Y-52640426D01*
X47750728Y-52474484D01*
X47671514Y-52319019D01*
X47568957Y-52177861D01*
X47568954Y-52177858D01*
X47568952Y-52177855D01*
X47445584Y-52054487D01*
X47445581Y-52054485D01*
X47445579Y-52054483D01*
X47304421Y-51951926D01*
X47148956Y-51872712D01*
X47148953Y-51872711D01*
X47148951Y-51872710D01*
X46983017Y-51818796D01*
X46983014Y-51818795D01*
X46810681Y-51791500D01*
X46636199Y-51791500D01*
X46463866Y-51818795D01*
X46463863Y-51818795D01*
X46463862Y-51818796D01*
X46297928Y-51872710D01*
X46297922Y-51872713D01*
X46142455Y-51951928D01*
X46001298Y-52054485D01*
X46001295Y-52054487D01*
X45877927Y-52177855D01*
X45877925Y-52177858D01*
X45775368Y-52319015D01*
X45696153Y-52474482D01*
X45696150Y-52474488D01*
X45642236Y-52640422D01*
X45642235Y-52640426D01*
X45614940Y-52812759D01*
X45291433Y-52812759D01*
X45264155Y-52640537D01*
X45210265Y-52474680D01*
X45210262Y-52474674D01*
X45131083Y-52319278D01*
X45028572Y-52178184D01*
X45028570Y-52178181D01*
X44905258Y-52054869D01*
X44905255Y-52054867D01*
X44764161Y-51952356D01*
X44608765Y-51873177D01*
X44608759Y-51873174D01*
X44442901Y-51819284D01*
X44442889Y-51819281D01*
X44437440Y-51818417D01*
X44437440Y-52988314D01*
X44429046Y-52979920D01*
X44337834Y-52927259D01*
X44236101Y-52900000D01*
X44130779Y-52900000D01*
X44029046Y-52927259D01*
X43937834Y-52979920D01*
X43929440Y-52988314D01*
X43929440Y-51818417D01*
X43923990Y-51819281D01*
X43923978Y-51819284D01*
X43758120Y-51873174D01*
X43758114Y-51873177D01*
X43602718Y-51952356D01*
X43461624Y-52054867D01*
X43461621Y-52054869D01*
X43338309Y-52178181D01*
X43338307Y-52178184D01*
X43235796Y-52319278D01*
X43156617Y-52474674D01*
X43156614Y-52474680D01*
X43102724Y-52640537D01*
X43075440Y-52812802D01*
X42751940Y-52812802D01*
X42751940Y-52812759D01*
X42724645Y-52640426D01*
X42670728Y-52474484D01*
X42591514Y-52319019D01*
X42488957Y-52177861D01*
X42488954Y-52177858D01*
X42488952Y-52177855D01*
X42365584Y-52054487D01*
X42365581Y-52054485D01*
X42365579Y-52054483D01*
X42224421Y-51951926D01*
X42068956Y-51872712D01*
X42068953Y-51872711D01*
X42068951Y-51872710D01*
X41903017Y-51818796D01*
X41903014Y-51818795D01*
X41730681Y-51791500D01*
X41556199Y-51791500D01*
X41383866Y-51818795D01*
X41383863Y-51818795D01*
X41383862Y-51818796D01*
X41217928Y-51872710D01*
X41217922Y-51872713D01*
X41062455Y-51951928D01*
X40921298Y-52054485D01*
X40921295Y-52054487D01*
X40797927Y-52177855D01*
X40797925Y-52177858D01*
X40695368Y-52319015D01*
X40616153Y-52474482D01*
X40616150Y-52474488D01*
X40562236Y-52640422D01*
X40562235Y-52640426D01*
X40534940Y-52812759D01*
X40211940Y-52812759D01*
X40184645Y-52640426D01*
X40130728Y-52474484D01*
X40051514Y-52319019D01*
X39948957Y-52177861D01*
X39948954Y-52177858D01*
X39948952Y-52177855D01*
X39825584Y-52054487D01*
X39825581Y-52054485D01*
X39825579Y-52054483D01*
X39684421Y-51951926D01*
X39528956Y-51872712D01*
X39528953Y-51872711D01*
X39528951Y-51872710D01*
X39363017Y-51818796D01*
X39363014Y-51818795D01*
X39190681Y-51791500D01*
X39016199Y-51791500D01*
X38843866Y-51818795D01*
X38843863Y-51818795D01*
X38843862Y-51818796D01*
X38677928Y-51872710D01*
X38677922Y-51872713D01*
X38522455Y-51951928D01*
X38381298Y-52054485D01*
X38381295Y-52054487D01*
X38257927Y-52177855D01*
X38257925Y-52177858D01*
X38155368Y-52319015D01*
X38076153Y-52474482D01*
X38076150Y-52474488D01*
X38022236Y-52640422D01*
X38022235Y-52640426D01*
X37994940Y-52812759D01*
X37671940Y-52812759D01*
X37644645Y-52640426D01*
X37590728Y-52474484D01*
X37511514Y-52319019D01*
X37408957Y-52177861D01*
X37408954Y-52177858D01*
X37408952Y-52177855D01*
X37285584Y-52054487D01*
X37285581Y-52054485D01*
X37285579Y-52054483D01*
X37144421Y-51951926D01*
X36988956Y-51872712D01*
X36988953Y-51872711D01*
X36988951Y-51872710D01*
X36823017Y-51818796D01*
X36823014Y-51818795D01*
X36650681Y-51791500D01*
X36476199Y-51791500D01*
X36303866Y-51818795D01*
X36303863Y-51818795D01*
X36303862Y-51818796D01*
X36137928Y-51872710D01*
X36137922Y-51872713D01*
X35982455Y-51951928D01*
X35841298Y-52054485D01*
X35841295Y-52054487D01*
X35717927Y-52177855D01*
X35717925Y-52177858D01*
X35615368Y-52319015D01*
X35536153Y-52474482D01*
X35536150Y-52474488D01*
X35482236Y-52640422D01*
X35482235Y-52640426D01*
X35454940Y-52812759D01*
X35131940Y-52812759D01*
X35104645Y-52640426D01*
X35050728Y-52474484D01*
X34971514Y-52319019D01*
X34868957Y-52177861D01*
X34868954Y-52177858D01*
X34868952Y-52177855D01*
X34745584Y-52054487D01*
X34745581Y-52054485D01*
X34745579Y-52054483D01*
X34604421Y-51951926D01*
X34448956Y-51872712D01*
X34448953Y-51872711D01*
X34448951Y-51872710D01*
X34283017Y-51818796D01*
X34283014Y-51818795D01*
X34110681Y-51791500D01*
X33936199Y-51791500D01*
X33763866Y-51818795D01*
X33763863Y-51818795D01*
X33763862Y-51818796D01*
X33597928Y-51872710D01*
X33597922Y-51872713D01*
X33442455Y-51951928D01*
X33301298Y-52054485D01*
X33301295Y-52054487D01*
X33177927Y-52177855D01*
X33177925Y-52177858D01*
X33075368Y-52319015D01*
X32996153Y-52474482D01*
X32996150Y-52474488D01*
X32942236Y-52640422D01*
X32942235Y-52640426D01*
X32914940Y-52812759D01*
X32591940Y-52812759D01*
X32564645Y-52640426D01*
X32510728Y-52474484D01*
X32431514Y-52319019D01*
X32328957Y-52177861D01*
X32328954Y-52177858D01*
X32328952Y-52177855D01*
X32205584Y-52054487D01*
X32205581Y-52054485D01*
X32205579Y-52054483D01*
X32064421Y-51951926D01*
X31908956Y-51872712D01*
X31908953Y-51872711D01*
X31908951Y-51872710D01*
X31743017Y-51818796D01*
X31743014Y-51818795D01*
X31570681Y-51791500D01*
X31396199Y-51791500D01*
X31223866Y-51818795D01*
X31223863Y-51818795D01*
X31223862Y-51818796D01*
X31057928Y-51872710D01*
X31057922Y-51872713D01*
X30902455Y-51951928D01*
X30761298Y-52054485D01*
X30761295Y-52054487D01*
X30637927Y-52177855D01*
X30637925Y-52177858D01*
X30535368Y-52319015D01*
X30456153Y-52474482D01*
X30456150Y-52474488D01*
X30402236Y-52640422D01*
X30402235Y-52640426D01*
X30374940Y-52812759D01*
X30025500Y-52812759D01*
X30025500Y-49151500D01*
X30045502Y-49083379D01*
X30099158Y-49036886D01*
X30151500Y-49025500D01*
X124848500Y-49025500D01*
X124916621Y-49045502D01*
G37*
G04 #@! TD.AperFunction*
M02*
