G04 #@! TF.GenerationSoftware,KiCad,Pcbnew,10.0.1-10.0.1~ubuntu25.10.1*
G04 #@! TF.CreationDate,2026-06-20T18:39:01+00:00*
G04 #@! TF.ProjectId,LoconetEsp32Craddle,4c6f636f-6e65-4744-9573-703332437261,0.0.1*
G04 #@! TF.SameCoordinates,Original*
G04 #@! TF.FileFunction,Soldermask,Top*
G04 #@! TF.FilePolarity,Negative*
%FSLAX46Y46*%
G04 Gerber Fmt 4.6, Leading zero omitted, Abs format (unit mm)*
G04 Created by KiCad (PCBNEW 10.0.1-10.0.1~ubuntu25.10.1) date 2026-06-20 18:39:01*
%MOMM*%
%LPD*%
G01*
G04 APERTURE LIST*
%ADD10C,3.450000*%
%ADD11R,1.398000X1.398000*%
%ADD12C,1.398000*%
%ADD13C,5.700000*%
%ADD14R,1.200000X2.000000*%
%ADD15O,1.200000X2.000000*%
%ADD16R,0.650000X0.850000*%
%ADD17R,1.500000X1.500000*%
%ADD18O,1.600000X2.000000*%
G04 APERTURE END LIST*
G36*
G01*
X108341956Y-116735000D02*
X107429456Y-116735000D01*
G75*
G02*
X107185706Y-116491250I0J243750D01*
G01*
X107185706Y-116003750D01*
G75*
G02*
X107429456Y-115760000I243750J0D01*
G01*
X108341956Y-115760000D01*
G75*
G02*
X108585706Y-116003750I0J-243750D01*
G01*
X108585706Y-116491250D01*
G75*
G02*
X108341956Y-116735000I-243750J0D01*
G01*
G37*
G36*
G01*
X108341956Y-114860000D02*
X107429456Y-114860000D01*
G75*
G02*
X107185706Y-114616250I0J243750D01*
G01*
X107185706Y-114128750D01*
G75*
G02*
X107429456Y-113885000I243750J0D01*
G01*
X108341956Y-113885000D01*
G75*
G02*
X108585706Y-114128750I0J-243750D01*
G01*
X108585706Y-114616250D01*
G75*
G02*
X108341956Y-114860000I-243750J0D01*
G01*
G37*
D10*
X38000000Y-83237500D03*
X38000000Y-92762500D03*
D11*
X43080000Y-90540000D03*
D12*
X41050000Y-89524000D03*
X43080000Y-88508000D03*
X41048000Y-87492000D03*
X43080000Y-86476000D03*
X41050000Y-85460000D03*
D10*
X38000000Y-97237500D03*
X38000000Y-106762500D03*
D11*
X43080000Y-104540000D03*
D12*
X41050000Y-103524000D03*
X43080000Y-102508000D03*
X41048000Y-101492000D03*
X43080000Y-100476000D03*
X41050000Y-99460000D03*
G36*
G01*
X52069800Y-110556800D02*
X52069800Y-109656800D01*
G75*
G02*
X52319800Y-109406800I250000J0D01*
G01*
X52844800Y-109406800D01*
G75*
G02*
X53094800Y-109656800I0J-250000D01*
G01*
X53094800Y-110556800D01*
G75*
G02*
X52844800Y-110806800I-250000J0D01*
G01*
X52319800Y-110806800D01*
G75*
G02*
X52069800Y-110556800I0J250000D01*
G01*
G37*
G36*
G01*
X53894800Y-110556800D02*
X53894800Y-109656800D01*
G75*
G02*
X54144800Y-109406800I250000J0D01*
G01*
X54669800Y-109406800D01*
G75*
G02*
X54919800Y-109656800I0J-250000D01*
G01*
X54919800Y-110556800D01*
G75*
G02*
X54669800Y-110806800I-250000J0D01*
G01*
X54144800Y-110806800D01*
G75*
G02*
X53894800Y-110556800I0J250000D01*
G01*
G37*
G36*
G01*
X54919800Y-111657800D02*
X54919800Y-112557800D01*
G75*
G02*
X54669800Y-112807800I-250000J0D01*
G01*
X54144800Y-112807800D01*
G75*
G02*
X53894800Y-112557800I0J250000D01*
G01*
X53894800Y-111657800D01*
G75*
G02*
X54144800Y-111407800I250000J0D01*
G01*
X54669800Y-111407800D01*
G75*
G02*
X54919800Y-111657800I0J-250000D01*
G01*
G37*
G36*
G01*
X53094800Y-111657800D02*
X53094800Y-112557800D01*
G75*
G02*
X52844800Y-112807800I-250000J0D01*
G01*
X52319800Y-112807800D01*
G75*
G02*
X52069800Y-112557800I0J250000D01*
G01*
X52069800Y-111657800D01*
G75*
G02*
X52319800Y-111407800I250000J0D01*
G01*
X52844800Y-111407800D01*
G75*
G02*
X53094800Y-111657800I0J-250000D01*
G01*
G37*
G36*
G01*
X61727000Y-103225000D02*
X61727000Y-104125000D01*
G75*
G02*
X61477000Y-104375000I-250000J0D01*
G01*
X60952000Y-104375000D01*
G75*
G02*
X60702000Y-104125000I0J250000D01*
G01*
X60702000Y-103225000D01*
G75*
G02*
X60952000Y-102975000I250000J0D01*
G01*
X61477000Y-102975000D01*
G75*
G02*
X61727000Y-103225000I0J-250000D01*
G01*
G37*
G36*
G01*
X59902000Y-103225000D02*
X59902000Y-104125000D01*
G75*
G02*
X59652000Y-104375000I-250000J0D01*
G01*
X59127000Y-104375000D01*
G75*
G02*
X58877000Y-104125000I0J250000D01*
G01*
X58877000Y-103225000D01*
G75*
G02*
X59127000Y-102975000I250000J0D01*
G01*
X59652000Y-102975000D01*
G75*
G02*
X59902000Y-103225000I0J-250000D01*
G01*
G37*
G36*
G01*
X52052500Y-108559000D02*
X52052500Y-107659000D01*
G75*
G02*
X52302500Y-107409000I250000J0D01*
G01*
X52827500Y-107409000D01*
G75*
G02*
X53077500Y-107659000I0J-250000D01*
G01*
X53077500Y-108559000D01*
G75*
G02*
X52827500Y-108809000I-250000J0D01*
G01*
X52302500Y-108809000D01*
G75*
G02*
X52052500Y-108559000I0J250000D01*
G01*
G37*
G36*
G01*
X53877500Y-108559000D02*
X53877500Y-107659000D01*
G75*
G02*
X54127500Y-107409000I250000J0D01*
G01*
X54652500Y-107409000D01*
G75*
G02*
X54902500Y-107659000I0J-250000D01*
G01*
X54902500Y-108559000D01*
G75*
G02*
X54652500Y-108809000I-250000J0D01*
G01*
X54127500Y-108809000D01*
G75*
G02*
X53877500Y-108559000I0J250000D01*
G01*
G37*
G36*
G01*
X54869000Y-105511000D02*
X54869000Y-106411000D01*
G75*
G02*
X54619000Y-106661000I-250000J0D01*
G01*
X54094000Y-106661000D01*
G75*
G02*
X53844000Y-106411000I0J250000D01*
G01*
X53844000Y-105511000D01*
G75*
G02*
X54094000Y-105261000I250000J0D01*
G01*
X54619000Y-105261000D01*
G75*
G02*
X54869000Y-105511000I0J-250000D01*
G01*
G37*
G36*
G01*
X53044000Y-105511000D02*
X53044000Y-106411000D01*
G75*
G02*
X52794000Y-106661000I-250000J0D01*
G01*
X52269000Y-106661000D01*
G75*
G02*
X52019000Y-106411000I0J250000D01*
G01*
X52019000Y-105511000D01*
G75*
G02*
X52269000Y-105261000I250000J0D01*
G01*
X52794000Y-105261000D01*
G75*
G02*
X53044000Y-105511000I0J-250000D01*
G01*
G37*
G36*
G01*
X108335706Y-112846500D02*
X107435706Y-112846500D01*
G75*
G02*
X107185706Y-112596500I0J250000D01*
G01*
X107185706Y-112071500D01*
G75*
G02*
X107435706Y-111821500I250000J0D01*
G01*
X108335706Y-111821500D01*
G75*
G02*
X108585706Y-112071500I0J-250000D01*
G01*
X108585706Y-112596500D01*
G75*
G02*
X108335706Y-112846500I-250000J0D01*
G01*
G37*
G36*
G01*
X108335706Y-111021500D02*
X107435706Y-111021500D01*
G75*
G02*
X107185706Y-110771500I0J250000D01*
G01*
X107185706Y-110246500D01*
G75*
G02*
X107435706Y-109996500I250000J0D01*
G01*
X108335706Y-109996500D01*
G75*
G02*
X108585706Y-110246500I0J-250000D01*
G01*
X108585706Y-110771500D01*
G75*
G02*
X108335706Y-111021500I-250000J0D01*
G01*
G37*
G36*
G01*
X61727500Y-105257000D02*
X61727500Y-106157000D01*
G75*
G02*
X61477500Y-106407000I-250000J0D01*
G01*
X60952500Y-106407000D01*
G75*
G02*
X60702500Y-106157000I0J250000D01*
G01*
X60702500Y-105257000D01*
G75*
G02*
X60952500Y-105007000I250000J0D01*
G01*
X61477500Y-105007000D01*
G75*
G02*
X61727500Y-105257000I0J-250000D01*
G01*
G37*
G36*
G01*
X59902500Y-105257000D02*
X59902500Y-106157000D01*
G75*
G02*
X59652500Y-106407000I-250000J0D01*
G01*
X59127500Y-106407000D01*
G75*
G02*
X58877500Y-106157000I0J250000D01*
G01*
X58877500Y-105257000D01*
G75*
G02*
X59127500Y-105007000I250000J0D01*
G01*
X59652500Y-105007000D01*
G75*
G02*
X59902500Y-105257000I0J-250000D01*
G01*
G37*
G36*
G01*
X111002706Y-112821000D02*
X110102706Y-112821000D01*
G75*
G02*
X109852706Y-112571000I0J250000D01*
G01*
X109852706Y-112046000D01*
G75*
G02*
X110102706Y-111796000I250000J0D01*
G01*
X111002706Y-111796000D01*
G75*
G02*
X111252706Y-112046000I0J-250000D01*
G01*
X111252706Y-112571000D01*
G75*
G02*
X111002706Y-112821000I-250000J0D01*
G01*
G37*
G36*
G01*
X111002706Y-110996000D02*
X110102706Y-110996000D01*
G75*
G02*
X109852706Y-110746000I0J250000D01*
G01*
X109852706Y-110221000D01*
G75*
G02*
X110102706Y-109971000I250000J0D01*
G01*
X111002706Y-109971000D01*
G75*
G02*
X111252706Y-110221000I0J-250000D01*
G01*
X111252706Y-110746000D01*
G75*
G02*
X111002706Y-110996000I-250000J0D01*
G01*
G37*
G36*
G01*
X112642706Y-109971000D02*
X113542706Y-109971000D01*
G75*
G02*
X113792706Y-110221000I0J-250000D01*
G01*
X113792706Y-110746000D01*
G75*
G02*
X113542706Y-110996000I-250000J0D01*
G01*
X112642706Y-110996000D01*
G75*
G02*
X112392706Y-110746000I0J250000D01*
G01*
X112392706Y-110221000D01*
G75*
G02*
X112642706Y-109971000I250000J0D01*
G01*
G37*
G36*
G01*
X112642706Y-111796000D02*
X113542706Y-111796000D01*
G75*
G02*
X113792706Y-112046000I0J-250000D01*
G01*
X113792706Y-112571000D01*
G75*
G02*
X113542706Y-112821000I-250000J0D01*
G01*
X112642706Y-112821000D01*
G75*
G02*
X112392706Y-112571000I0J250000D01*
G01*
X112392706Y-112046000D01*
G75*
G02*
X112642706Y-111796000I250000J0D01*
G01*
G37*
G36*
G01*
X58171000Y-114147000D02*
X58171000Y-115047000D01*
G75*
G02*
X57921000Y-115297000I-250000J0D01*
G01*
X57396000Y-115297000D01*
G75*
G02*
X57146000Y-115047000I0J250000D01*
G01*
X57146000Y-114147000D01*
G75*
G02*
X57396000Y-113897000I250000J0D01*
G01*
X57921000Y-113897000D01*
G75*
G02*
X58171000Y-114147000I0J-250000D01*
G01*
G37*
G36*
G01*
X56346000Y-114147000D02*
X56346000Y-115047000D01*
G75*
G02*
X56096000Y-115297000I-250000J0D01*
G01*
X55571000Y-115297000D01*
G75*
G02*
X55321000Y-115047000I0J250000D01*
G01*
X55321000Y-114147000D01*
G75*
G02*
X55571000Y-113897000I250000J0D01*
G01*
X56096000Y-113897000D01*
G75*
G02*
X56346000Y-114147000I0J-250000D01*
G01*
G37*
G36*
G01*
X58171000Y-116147000D02*
X58171000Y-117047000D01*
G75*
G02*
X57921000Y-117297000I-250000J0D01*
G01*
X57396000Y-117297000D01*
G75*
G02*
X57146000Y-117047000I0J250000D01*
G01*
X57146000Y-116147000D01*
G75*
G02*
X57396000Y-115897000I250000J0D01*
G01*
X57921000Y-115897000D01*
G75*
G02*
X58171000Y-116147000I0J-250000D01*
G01*
G37*
G36*
G01*
X56346000Y-116147000D02*
X56346000Y-117047000D01*
G75*
G02*
X56096000Y-117297000I-250000J0D01*
G01*
X55571000Y-117297000D01*
G75*
G02*
X55321000Y-117047000I0J250000D01*
G01*
X55321000Y-116147000D01*
G75*
G02*
X55571000Y-115897000I250000J0D01*
G01*
X56096000Y-115897000D01*
G75*
G02*
X56346000Y-116147000I0J-250000D01*
G01*
G37*
G36*
G01*
X56940000Y-108354000D02*
X56940000Y-108054000D01*
G75*
G02*
X57090000Y-107904000I150000J0D01*
G01*
X58740000Y-107904000D01*
G75*
G02*
X58890000Y-108054000I0J-150000D01*
G01*
X58890000Y-108354000D01*
G75*
G02*
X58740000Y-108504000I-150000J0D01*
G01*
X57090000Y-108504000D01*
G75*
G02*
X56940000Y-108354000I0J150000D01*
G01*
G37*
G36*
G01*
X56940000Y-109624000D02*
X56940000Y-109324000D01*
G75*
G02*
X57090000Y-109174000I150000J0D01*
G01*
X58740000Y-109174000D01*
G75*
G02*
X58890000Y-109324000I0J-150000D01*
G01*
X58890000Y-109624000D01*
G75*
G02*
X58740000Y-109774000I-150000J0D01*
G01*
X57090000Y-109774000D01*
G75*
G02*
X56940000Y-109624000I0J150000D01*
G01*
G37*
G36*
G01*
X56940000Y-110894000D02*
X56940000Y-110594000D01*
G75*
G02*
X57090000Y-110444000I150000J0D01*
G01*
X58740000Y-110444000D01*
G75*
G02*
X58890000Y-110594000I0J-150000D01*
G01*
X58890000Y-110894000D01*
G75*
G02*
X58740000Y-111044000I-150000J0D01*
G01*
X57090000Y-111044000D01*
G75*
G02*
X56940000Y-110894000I0J150000D01*
G01*
G37*
G36*
G01*
X56940000Y-112164000D02*
X56940000Y-111864000D01*
G75*
G02*
X57090000Y-111714000I150000J0D01*
G01*
X58740000Y-111714000D01*
G75*
G02*
X58890000Y-111864000I0J-150000D01*
G01*
X58890000Y-112164000D01*
G75*
G02*
X58740000Y-112314000I-150000J0D01*
G01*
X57090000Y-112314000D01*
G75*
G02*
X56940000Y-112164000I0J150000D01*
G01*
G37*
G36*
G01*
X61890000Y-112164000D02*
X61890000Y-111864000D01*
G75*
G02*
X62040000Y-111714000I150000J0D01*
G01*
X63690000Y-111714000D01*
G75*
G02*
X63840000Y-111864000I0J-150000D01*
G01*
X63840000Y-112164000D01*
G75*
G02*
X63690000Y-112314000I-150000J0D01*
G01*
X62040000Y-112314000D01*
G75*
G02*
X61890000Y-112164000I0J150000D01*
G01*
G37*
G36*
G01*
X61890000Y-110894000D02*
X61890000Y-110594000D01*
G75*
G02*
X62040000Y-110444000I150000J0D01*
G01*
X63690000Y-110444000D01*
G75*
G02*
X63840000Y-110594000I0J-150000D01*
G01*
X63840000Y-110894000D01*
G75*
G02*
X63690000Y-111044000I-150000J0D01*
G01*
X62040000Y-111044000D01*
G75*
G02*
X61890000Y-110894000I0J150000D01*
G01*
G37*
G36*
G01*
X61890000Y-109624000D02*
X61890000Y-109324000D01*
G75*
G02*
X62040000Y-109174000I150000J0D01*
G01*
X63690000Y-109174000D01*
G75*
G02*
X63840000Y-109324000I0J-150000D01*
G01*
X63840000Y-109624000D01*
G75*
G02*
X63690000Y-109774000I-150000J0D01*
G01*
X62040000Y-109774000D01*
G75*
G02*
X61890000Y-109624000I0J150000D01*
G01*
G37*
G36*
G01*
X61890000Y-108354000D02*
X61890000Y-108054000D01*
G75*
G02*
X62040000Y-107904000I150000J0D01*
G01*
X63690000Y-107904000D01*
G75*
G02*
X63840000Y-108054000I0J-150000D01*
G01*
X63840000Y-108354000D01*
G75*
G02*
X63690000Y-108504000I-150000J0D01*
G01*
X62040000Y-108504000D01*
G75*
G02*
X61890000Y-108354000I0J150000D01*
G01*
G37*
D13*
X35000000Y-65000000D03*
X35000000Y-115000000D03*
X120000000Y-115000000D03*
X120000000Y-54000000D03*
G36*
G01*
X111008956Y-116679500D02*
X110096456Y-116679500D01*
G75*
G02*
X109852706Y-116435750I0J243750D01*
G01*
X109852706Y-115948250D01*
G75*
G02*
X110096456Y-115704500I243750J0D01*
G01*
X111008956Y-115704500D01*
G75*
G02*
X111252706Y-115948250I0J-243750D01*
G01*
X111252706Y-116435750D01*
G75*
G02*
X111008956Y-116679500I-243750J0D01*
G01*
G37*
G36*
G01*
X111008956Y-114804500D02*
X110096456Y-114804500D01*
G75*
G02*
X109852706Y-114560750I0J243750D01*
G01*
X109852706Y-114073250D01*
G75*
G02*
X110096456Y-113829500I243750J0D01*
G01*
X111008956Y-113829500D01*
G75*
G02*
X111252706Y-114073250I0J-243750D01*
G01*
X111252706Y-114560750D01*
G75*
G02*
X111008956Y-114804500I-243750J0D01*
G01*
G37*
G36*
G01*
X114781706Y-113658000D02*
X115081706Y-113658000D01*
G75*
G02*
X115231706Y-113808000I0J-150000D01*
G01*
X115231706Y-114983000D01*
G75*
G02*
X115081706Y-115133000I-150000J0D01*
G01*
X114781706Y-115133000D01*
G75*
G02*
X114631706Y-114983000I0J150000D01*
G01*
X114631706Y-113808000D01*
G75*
G02*
X114781706Y-113658000I150000J0D01*
G01*
G37*
G36*
G01*
X112881706Y-113658000D02*
X113181706Y-113658000D01*
G75*
G02*
X113331706Y-113808000I0J-150000D01*
G01*
X113331706Y-114983000D01*
G75*
G02*
X113181706Y-115133000I-150000J0D01*
G01*
X112881706Y-115133000D01*
G75*
G02*
X112731706Y-114983000I0J150000D01*
G01*
X112731706Y-113808000D01*
G75*
G02*
X112881706Y-113658000I150000J0D01*
G01*
G37*
G36*
G01*
X113831706Y-115533000D02*
X114131706Y-115533000D01*
G75*
G02*
X114281706Y-115683000I0J-150000D01*
G01*
X114281706Y-116858000D01*
G75*
G02*
X114131706Y-117008000I-150000J0D01*
G01*
X113831706Y-117008000D01*
G75*
G02*
X113681706Y-116858000I0J150000D01*
G01*
X113681706Y-115683000D01*
G75*
G02*
X113831706Y-115533000I150000J0D01*
G01*
G37*
G36*
G01*
X54508500Y-116397000D02*
X54508500Y-116697000D01*
G75*
G02*
X54358500Y-116847000I-150000J0D01*
G01*
X53183500Y-116847000D01*
G75*
G02*
X53033500Y-116697000I0J150000D01*
G01*
X53033500Y-116397000D01*
G75*
G02*
X53183500Y-116247000I150000J0D01*
G01*
X54358500Y-116247000D01*
G75*
G02*
X54508500Y-116397000I0J-150000D01*
G01*
G37*
G36*
G01*
X54508500Y-114497000D02*
X54508500Y-114797000D01*
G75*
G02*
X54358500Y-114947000I-150000J0D01*
G01*
X53183500Y-114947000D01*
G75*
G02*
X53033500Y-114797000I0J150000D01*
G01*
X53033500Y-114497000D01*
G75*
G02*
X53183500Y-114347000I150000J0D01*
G01*
X54358500Y-114347000D01*
G75*
G02*
X54508500Y-114497000I0J-150000D01*
G01*
G37*
G36*
G01*
X52633500Y-115447000D02*
X52633500Y-115747000D01*
G75*
G02*
X52483500Y-115897000I-150000J0D01*
G01*
X51308500Y-115897000D01*
G75*
G02*
X51158500Y-115747000I0J150000D01*
G01*
X51158500Y-115447000D01*
G75*
G02*
X51308500Y-115297000I150000J0D01*
G01*
X52483500Y-115297000D01*
G75*
G02*
X52633500Y-115447000I0J-150000D01*
G01*
G37*
G36*
G01*
X102112500Y-102050000D02*
X102112500Y-102950000D01*
G75*
G02*
X101862500Y-103200000I-250000J0D01*
G01*
X101337500Y-103200000D01*
G75*
G02*
X101087500Y-102950000I0J250000D01*
G01*
X101087500Y-102050000D01*
G75*
G02*
X101337500Y-101800000I250000J0D01*
G01*
X101862500Y-101800000D01*
G75*
G02*
X102112500Y-102050000I0J-250000D01*
G01*
G37*
G36*
G01*
X100287500Y-102050000D02*
X100287500Y-102950000D01*
G75*
G02*
X100037500Y-103200000I-250000J0D01*
G01*
X99512500Y-103200000D01*
G75*
G02*
X99262500Y-102950000I0J250000D01*
G01*
X99262500Y-102050000D01*
G75*
G02*
X99512500Y-101800000I250000J0D01*
G01*
X100037500Y-101800000D01*
G75*
G02*
X100287500Y-102050000I0J-250000D01*
G01*
G37*
G36*
G01*
X114075000Y-105250000D02*
X114075000Y-105550000D01*
G75*
G02*
X113925000Y-105700000I-150000J0D01*
G01*
X112750000Y-105700000D01*
G75*
G02*
X112600000Y-105550000I0J150000D01*
G01*
X112600000Y-105250000D01*
G75*
G02*
X112750000Y-105100000I150000J0D01*
G01*
X113925000Y-105100000D01*
G75*
G02*
X114075000Y-105250000I0J-150000D01*
G01*
G37*
G36*
G01*
X114075000Y-103350000D02*
X114075000Y-103650000D01*
G75*
G02*
X113925000Y-103800000I-150000J0D01*
G01*
X112750000Y-103800000D01*
G75*
G02*
X112600000Y-103650000I0J150000D01*
G01*
X112600000Y-103350000D01*
G75*
G02*
X112750000Y-103200000I150000J0D01*
G01*
X113925000Y-103200000D01*
G75*
G02*
X114075000Y-103350000I0J-150000D01*
G01*
G37*
G36*
G01*
X112200000Y-104300000D02*
X112200000Y-104600000D01*
G75*
G02*
X112050000Y-104750000I-150000J0D01*
G01*
X110875000Y-104750000D01*
G75*
G02*
X110725000Y-104600000I0J150000D01*
G01*
X110725000Y-104300000D01*
G75*
G02*
X110875000Y-104150000I150000J0D01*
G01*
X112050000Y-104150000D01*
G75*
G02*
X112200000Y-104300000I0J-150000D01*
G01*
G37*
G36*
G01*
X58475000Y-101500000D02*
X57525000Y-101500000D01*
G75*
G02*
X57275000Y-101250000I0J250000D01*
G01*
X57275000Y-100750000D01*
G75*
G02*
X57525000Y-100500000I250000J0D01*
G01*
X58475000Y-100500000D01*
G75*
G02*
X58725000Y-100750000I0J-250000D01*
G01*
X58725000Y-101250000D01*
G75*
G02*
X58475000Y-101500000I-250000J0D01*
G01*
G37*
G36*
G01*
X58475000Y-99600000D02*
X57525000Y-99600000D01*
G75*
G02*
X57275000Y-99350000I0J250000D01*
G01*
X57275000Y-98850000D01*
G75*
G02*
X57525000Y-98600000I250000J0D01*
G01*
X58475000Y-98600000D01*
G75*
G02*
X58725000Y-98850000I0J-250000D01*
G01*
X58725000Y-99350000D01*
G75*
G02*
X58475000Y-99600000I-250000J0D01*
G01*
G37*
D14*
X77203440Y-53300000D03*
D15*
X74663440Y-53300000D03*
X72123440Y-53300000D03*
X69583440Y-53300000D03*
X67043440Y-53300000D03*
X64503440Y-53300000D03*
X61963440Y-53300000D03*
X59423440Y-53300000D03*
X56883440Y-53300000D03*
X54343440Y-53300000D03*
X51803440Y-53300000D03*
X49263440Y-53300000D03*
X46723440Y-53300000D03*
X44183440Y-53300000D03*
X41643440Y-53300000D03*
X39103440Y-53300000D03*
X36563440Y-53300000D03*
X34023440Y-53300000D03*
X31483440Y-53300000D03*
X31486160Y-78696320D03*
X34026160Y-78696320D03*
X36563440Y-78700000D03*
X39103440Y-78700000D03*
X41643440Y-78700000D03*
X44183440Y-78700000D03*
X46723440Y-78700000D03*
X49263440Y-78700000D03*
X51803440Y-78700000D03*
X54343440Y-78700000D03*
X56883440Y-78700000D03*
X59423440Y-78700000D03*
X61963440Y-78700000D03*
X64503440Y-78700000D03*
X67043440Y-78700000D03*
X69583440Y-78700000D03*
X72123440Y-78700000D03*
X74663440Y-78700000D03*
X77203440Y-78700000D03*
G36*
G01*
X67900000Y-110050000D02*
X66600000Y-110050000D01*
G75*
G02*
X66350000Y-109800000I0J250000D01*
G01*
X66350000Y-107800000D01*
G75*
G02*
X66600000Y-107550000I250000J0D01*
G01*
X67900000Y-107550000D01*
G75*
G02*
X68150000Y-107800000I0J-250000D01*
G01*
X68150000Y-109800000D01*
G75*
G02*
X67900000Y-110050000I-250000J0D01*
G01*
G37*
G36*
G01*
X67900000Y-106050000D02*
X66600000Y-106050000D01*
G75*
G02*
X66350000Y-105800000I0J250000D01*
G01*
X66350000Y-103800000D01*
G75*
G02*
X66600000Y-103550000I250000J0D01*
G01*
X67900000Y-103550000D01*
G75*
G02*
X68150000Y-103800000I0J-250000D01*
G01*
X68150000Y-105800000D01*
G75*
G02*
X67900000Y-106050000I-250000J0D01*
G01*
G37*
D16*
X95575000Y-114980000D03*
X96425000Y-114980000D03*
X96425000Y-116430000D03*
X95575000Y-116430000D03*
G36*
G01*
X92650000Y-108850000D02*
X91350000Y-108850000D01*
G75*
G02*
X91100000Y-108600000I0J250000D01*
G01*
X91100000Y-106600000D01*
G75*
G02*
X91350000Y-106350000I250000J0D01*
G01*
X92650000Y-106350000D01*
G75*
G02*
X92900000Y-106600000I0J-250000D01*
G01*
X92900000Y-108600000D01*
G75*
G02*
X92650000Y-108850000I-250000J0D01*
G01*
G37*
G36*
G01*
X92650000Y-104850000D02*
X91350000Y-104850000D01*
G75*
G02*
X91100000Y-104600000I0J250000D01*
G01*
X91100000Y-102600000D01*
G75*
G02*
X91350000Y-102350000I250000J0D01*
G01*
X92650000Y-102350000D01*
G75*
G02*
X92900000Y-102600000I0J-250000D01*
G01*
X92900000Y-104600000D01*
G75*
G02*
X92650000Y-104850000I-250000J0D01*
G01*
G37*
G36*
G01*
X101101000Y-111337500D02*
X100201000Y-111337500D01*
G75*
G02*
X99951000Y-111087500I0J250000D01*
G01*
X99951000Y-110562500D01*
G75*
G02*
X100201000Y-110312500I250000J0D01*
G01*
X101101000Y-110312500D01*
G75*
G02*
X101351000Y-110562500I0J-250000D01*
G01*
X101351000Y-111087500D01*
G75*
G02*
X101101000Y-111337500I-250000J0D01*
G01*
G37*
G36*
G01*
X101101000Y-109512500D02*
X100201000Y-109512500D01*
G75*
G02*
X99951000Y-109262500I0J250000D01*
G01*
X99951000Y-108737500D01*
G75*
G02*
X100201000Y-108487500I250000J0D01*
G01*
X101101000Y-108487500D01*
G75*
G02*
X101351000Y-108737500I0J-250000D01*
G01*
X101351000Y-109262500D01*
G75*
G02*
X101101000Y-109512500I-250000J0D01*
G01*
G37*
G36*
G01*
X89250000Y-101150000D02*
X87250000Y-101150000D01*
G75*
G02*
X87000000Y-100900000I0J250000D01*
G01*
X87000000Y-97000000D01*
G75*
G02*
X87250000Y-96750000I250000J0D01*
G01*
X89250000Y-96750000D01*
G75*
G02*
X89500000Y-97000000I0J-250000D01*
G01*
X89500000Y-100900000D01*
G75*
G02*
X89250000Y-101150000I-250000J0D01*
G01*
G37*
G36*
G01*
X89250000Y-93750000D02*
X87250000Y-93750000D01*
G75*
G02*
X87000000Y-93500000I0J250000D01*
G01*
X87000000Y-89600000D01*
G75*
G02*
X87250000Y-89350000I250000J0D01*
G01*
X89250000Y-89350000D01*
G75*
G02*
X89500000Y-89600000I0J-250000D01*
G01*
X89500000Y-93500000D01*
G75*
G02*
X89250000Y-93750000I-250000J0D01*
G01*
G37*
G36*
G01*
X103369750Y-116687500D02*
X102457250Y-116687500D01*
G75*
G02*
X102213500Y-116443750I0J243750D01*
G01*
X102213500Y-115956250D01*
G75*
G02*
X102457250Y-115712500I243750J0D01*
G01*
X103369750Y-115712500D01*
G75*
G02*
X103613500Y-115956250I0J-243750D01*
G01*
X103613500Y-116443750D01*
G75*
G02*
X103369750Y-116687500I-243750J0D01*
G01*
G37*
G36*
G01*
X103369750Y-114812500D02*
X102457250Y-114812500D01*
G75*
G02*
X102213500Y-114568750I0J243750D01*
G01*
X102213500Y-114081250D01*
G75*
G02*
X102457250Y-113837500I243750J0D01*
G01*
X103369750Y-113837500D01*
G75*
G02*
X103613500Y-114081250I0J-243750D01*
G01*
X103613500Y-114568750D01*
G75*
G02*
X103369750Y-114812500I-243750J0D01*
G01*
G37*
G36*
G01*
X57250000Y-94350000D02*
X57250000Y-95650000D01*
G75*
G02*
X57000000Y-95900000I-250000J0D01*
G01*
X55000000Y-95900000D01*
G75*
G02*
X54750000Y-95650000I0J250000D01*
G01*
X54750000Y-94350000D01*
G75*
G02*
X55000000Y-94100000I250000J0D01*
G01*
X57000000Y-94100000D01*
G75*
G02*
X57250000Y-94350000I0J-250000D01*
G01*
G37*
G36*
G01*
X53250000Y-94350000D02*
X53250000Y-95650000D01*
G75*
G02*
X53000000Y-95900000I-250000J0D01*
G01*
X51000000Y-95900000D01*
G75*
G02*
X50750000Y-95650000I0J250000D01*
G01*
X50750000Y-94350000D01*
G75*
G02*
X51000000Y-94100000I250000J0D01*
G01*
X53000000Y-94100000D01*
G75*
G02*
X53250000Y-94350000I0J-250000D01*
G01*
G37*
G36*
G01*
X103412500Y-94850000D02*
X103412500Y-93950000D01*
G75*
G02*
X103662500Y-93700000I250000J0D01*
G01*
X104187500Y-93700000D01*
G75*
G02*
X104437500Y-93950000I0J-250000D01*
G01*
X104437500Y-94850000D01*
G75*
G02*
X104187500Y-95100000I-250000J0D01*
G01*
X103662500Y-95100000D01*
G75*
G02*
X103412500Y-94850000I0J250000D01*
G01*
G37*
G36*
G01*
X105237500Y-94850000D02*
X105237500Y-93950000D01*
G75*
G02*
X105487500Y-93700000I250000J0D01*
G01*
X106012500Y-93700000D01*
G75*
G02*
X106262500Y-93950000I0J-250000D01*
G01*
X106262500Y-94850000D01*
G75*
G02*
X106012500Y-95100000I-250000J0D01*
G01*
X105487500Y-95100000D01*
G75*
G02*
X105237500Y-94850000I0J250000D01*
G01*
G37*
G36*
G01*
X108137500Y-106950000D02*
X108137500Y-107250000D01*
G75*
G02*
X107987500Y-107400000I-150000J0D01*
G01*
X106812500Y-107400000D01*
G75*
G02*
X106662500Y-107250000I0J150000D01*
G01*
X106662500Y-106950000D01*
G75*
G02*
X106812500Y-106800000I150000J0D01*
G01*
X107987500Y-106800000D01*
G75*
G02*
X108137500Y-106950000I0J-150000D01*
G01*
G37*
G36*
G01*
X108137500Y-105050000D02*
X108137500Y-105350000D01*
G75*
G02*
X107987500Y-105500000I-150000J0D01*
G01*
X106812500Y-105500000D01*
G75*
G02*
X106662500Y-105350000I0J150000D01*
G01*
X106662500Y-105050000D01*
G75*
G02*
X106812500Y-104900000I150000J0D01*
G01*
X107987500Y-104900000D01*
G75*
G02*
X108137500Y-105050000I0J-150000D01*
G01*
G37*
G36*
G01*
X106262500Y-106000000D02*
X106262500Y-106300000D01*
G75*
G02*
X106112500Y-106450000I-150000J0D01*
G01*
X104937500Y-106450000D01*
G75*
G02*
X104787500Y-106300000I0J150000D01*
G01*
X104787500Y-106000000D01*
G75*
G02*
X104937500Y-105850000I150000J0D01*
G01*
X106112500Y-105850000D01*
G75*
G02*
X106262500Y-106000000I0J-150000D01*
G01*
G37*
G36*
G01*
X73900000Y-101250000D02*
X73300000Y-101250000D01*
G75*
G02*
X73050000Y-101000000I0J250000D01*
G01*
X73050000Y-96900000D01*
G75*
G02*
X73300000Y-96650000I250000J0D01*
G01*
X73900000Y-96650000D01*
G75*
G02*
X74150000Y-96900000I0J-250000D01*
G01*
X74150000Y-101000000D01*
G75*
G02*
X73900000Y-101250000I-250000J0D01*
G01*
G37*
G36*
G01*
X75600000Y-101250000D02*
X75000000Y-101250000D01*
G75*
G02*
X74750000Y-101000000I0J250000D01*
G01*
X74750000Y-96900000D01*
G75*
G02*
X75000000Y-96650000I250000J0D01*
G01*
X75600000Y-96650000D01*
G75*
G02*
X75850000Y-96900000I0J-250000D01*
G01*
X75850000Y-101000000D01*
G75*
G02*
X75600000Y-101250000I-250000J0D01*
G01*
G37*
G36*
G01*
X77300000Y-101250000D02*
X76700000Y-101250000D01*
G75*
G02*
X76450000Y-101000000I0J250000D01*
G01*
X76450000Y-96900000D01*
G75*
G02*
X76700000Y-96650000I250000J0D01*
G01*
X77300000Y-96650000D01*
G75*
G02*
X77550000Y-96900000I0J-250000D01*
G01*
X77550000Y-101000000D01*
G75*
G02*
X77300000Y-101250000I-250000J0D01*
G01*
G37*
G36*
G01*
X82149998Y-94500000D02*
X71850002Y-94500000D01*
G75*
G02*
X71600000Y-94249998I0J250002D01*
G01*
X71600000Y-85350002D01*
G75*
G02*
X71850002Y-85100000I250002J0D01*
G01*
X82149998Y-85100000D01*
G75*
G02*
X82400000Y-85350002I0J-250002D01*
G01*
X82400000Y-94249998D01*
G75*
G02*
X82149998Y-94500000I-250002J0D01*
G01*
G37*
G36*
G01*
X79000000Y-101250000D02*
X78400000Y-101250000D01*
G75*
G02*
X78150000Y-101000000I0J250000D01*
G01*
X78150000Y-96900000D01*
G75*
G02*
X78400000Y-96650000I250000J0D01*
G01*
X79000000Y-96650000D01*
G75*
G02*
X79250000Y-96900000I0J-250000D01*
G01*
X79250000Y-101000000D01*
G75*
G02*
X79000000Y-101250000I-250000J0D01*
G01*
G37*
G36*
G01*
X80700000Y-101250000D02*
X80100000Y-101250000D01*
G75*
G02*
X79850000Y-101000000I0J250000D01*
G01*
X79850000Y-96900000D01*
G75*
G02*
X80100000Y-96650000I250000J0D01*
G01*
X80700000Y-96650000D01*
G75*
G02*
X80950000Y-96900000I0J-250000D01*
G01*
X80950000Y-101000000D01*
G75*
G02*
X80700000Y-101250000I-250000J0D01*
G01*
G37*
G36*
G01*
X101083750Y-116687500D02*
X100171250Y-116687500D01*
G75*
G02*
X99927500Y-116443750I0J243750D01*
G01*
X99927500Y-115956250D01*
G75*
G02*
X100171250Y-115712500I243750J0D01*
G01*
X101083750Y-115712500D01*
G75*
G02*
X101327500Y-115956250I0J-243750D01*
G01*
X101327500Y-116443750D01*
G75*
G02*
X101083750Y-116687500I-243750J0D01*
G01*
G37*
G36*
G01*
X101083750Y-114812500D02*
X100171250Y-114812500D01*
G75*
G02*
X99927500Y-114568750I0J243750D01*
G01*
X99927500Y-114081250D01*
G75*
G02*
X100171250Y-113837500I243750J0D01*
G01*
X101083750Y-113837500D01*
G75*
G02*
X101327500Y-114081250I0J-243750D01*
G01*
X101327500Y-114568750D01*
G75*
G02*
X101083750Y-114812500I-243750J0D01*
G01*
G37*
G36*
G01*
X118025000Y-106750000D02*
X118025000Y-107650000D01*
G75*
G02*
X117775000Y-107900000I-250000J0D01*
G01*
X117250000Y-107900000D01*
G75*
G02*
X117000000Y-107650000I0J250000D01*
G01*
X117000000Y-106750000D01*
G75*
G02*
X117250000Y-106500000I250000J0D01*
G01*
X117775000Y-106500000D01*
G75*
G02*
X118025000Y-106750000I0J-250000D01*
G01*
G37*
G36*
G01*
X116200000Y-106750000D02*
X116200000Y-107650000D01*
G75*
G02*
X115950000Y-107900000I-250000J0D01*
G01*
X115425000Y-107900000D01*
G75*
G02*
X115175000Y-107650000I0J250000D01*
G01*
X115175000Y-106750000D01*
G75*
G02*
X115425000Y-106500000I250000J0D01*
G01*
X115950000Y-106500000D01*
G75*
G02*
X116200000Y-106750000I0J-250000D01*
G01*
G37*
D17*
X97950000Y-90750000D03*
X105750000Y-90750000D03*
G36*
G01*
X102112500Y-106050000D02*
X102112500Y-106950000D01*
G75*
G02*
X101862500Y-107200000I-250000J0D01*
G01*
X101337500Y-107200000D01*
G75*
G02*
X101087500Y-106950000I0J250000D01*
G01*
X101087500Y-106050000D01*
G75*
G02*
X101337500Y-105800000I250000J0D01*
G01*
X101862500Y-105800000D01*
G75*
G02*
X102112500Y-106050000I0J-250000D01*
G01*
G37*
G36*
G01*
X100287500Y-106050000D02*
X100287500Y-106950000D01*
G75*
G02*
X100037500Y-107200000I-250000J0D01*
G01*
X99512500Y-107200000D01*
G75*
G02*
X99262500Y-106950000I0J250000D01*
G01*
X99262500Y-106050000D01*
G75*
G02*
X99512500Y-105800000I250000J0D01*
G01*
X100037500Y-105800000D01*
G75*
G02*
X100287500Y-106050000I0J-250000D01*
G01*
G37*
G36*
G01*
X57250000Y-90350000D02*
X57250000Y-91650000D01*
G75*
G02*
X57000000Y-91900000I-250000J0D01*
G01*
X55000000Y-91900000D01*
G75*
G02*
X54750000Y-91650000I0J250000D01*
G01*
X54750000Y-90350000D01*
G75*
G02*
X55000000Y-90100000I250000J0D01*
G01*
X57000000Y-90100000D01*
G75*
G02*
X57250000Y-90350000I0J-250000D01*
G01*
G37*
G36*
G01*
X53250000Y-90350000D02*
X53250000Y-91650000D01*
G75*
G02*
X53000000Y-91900000I-250000J0D01*
G01*
X51000000Y-91900000D01*
G75*
G02*
X50750000Y-91650000I0J250000D01*
G01*
X50750000Y-90350000D01*
G75*
G02*
X51000000Y-90100000I250000J0D01*
G01*
X53000000Y-90100000D01*
G75*
G02*
X53250000Y-90350000I0J-250000D01*
G01*
G37*
G36*
G01*
X118025000Y-103950000D02*
X118025000Y-104850000D01*
G75*
G02*
X117775000Y-105100000I-250000J0D01*
G01*
X117250000Y-105100000D01*
G75*
G02*
X117000000Y-104850000I0J250000D01*
G01*
X117000000Y-103950000D01*
G75*
G02*
X117250000Y-103700000I250000J0D01*
G01*
X117775000Y-103700000D01*
G75*
G02*
X118025000Y-103950000I0J-250000D01*
G01*
G37*
G36*
G01*
X116200000Y-103950000D02*
X116200000Y-104850000D01*
G75*
G02*
X115950000Y-105100000I-250000J0D01*
G01*
X115425000Y-105100000D01*
G75*
G02*
X115175000Y-104850000I0J250000D01*
G01*
X115175000Y-103950000D01*
G75*
G02*
X115425000Y-103700000I250000J0D01*
G01*
X115950000Y-103700000D01*
G75*
G02*
X116200000Y-103950000I0J-250000D01*
G01*
G37*
G36*
G01*
X118025000Y-101150000D02*
X118025000Y-102050000D01*
G75*
G02*
X117775000Y-102300000I-250000J0D01*
G01*
X117250000Y-102300000D01*
G75*
G02*
X117000000Y-102050000I0J250000D01*
G01*
X117000000Y-101150000D01*
G75*
G02*
X117250000Y-100900000I250000J0D01*
G01*
X117775000Y-100900000D01*
G75*
G02*
X118025000Y-101150000I0J-250000D01*
G01*
G37*
G36*
G01*
X116200000Y-101150000D02*
X116200000Y-102050000D01*
G75*
G02*
X115950000Y-102300000I-250000J0D01*
G01*
X115425000Y-102300000D01*
G75*
G02*
X115175000Y-102050000I0J250000D01*
G01*
X115175000Y-101150000D01*
G75*
G02*
X115425000Y-100900000I250000J0D01*
G01*
X115950000Y-100900000D01*
G75*
G02*
X116200000Y-101150000I0J-250000D01*
G01*
G37*
G36*
G01*
X102112500Y-104050000D02*
X102112500Y-104950000D01*
G75*
G02*
X101862500Y-105200000I-250000J0D01*
G01*
X101337500Y-105200000D01*
G75*
G02*
X101087500Y-104950000I0J250000D01*
G01*
X101087500Y-104050000D01*
G75*
G02*
X101337500Y-103800000I250000J0D01*
G01*
X101862500Y-103800000D01*
G75*
G02*
X102112500Y-104050000I0J-250000D01*
G01*
G37*
G36*
G01*
X100287500Y-104050000D02*
X100287500Y-104950000D01*
G75*
G02*
X100037500Y-105200000I-250000J0D01*
G01*
X99512500Y-105200000D01*
G75*
G02*
X99262500Y-104950000I0J250000D01*
G01*
X99262500Y-104050000D01*
G75*
G02*
X99512500Y-103800000I250000J0D01*
G01*
X100037500Y-103800000D01*
G75*
G02*
X100287500Y-104050000I0J-250000D01*
G01*
G37*
G36*
G01*
X65250000Y-101200000D02*
X63250000Y-101200000D01*
G75*
G02*
X63000000Y-100950000I0J250000D01*
G01*
X63000000Y-97050000D01*
G75*
G02*
X63250000Y-96800000I250000J0D01*
G01*
X65250000Y-96800000D01*
G75*
G02*
X65500000Y-97050000I0J-250000D01*
G01*
X65500000Y-100950000D01*
G75*
G02*
X65250000Y-101200000I-250000J0D01*
G01*
G37*
G36*
G01*
X65250000Y-93800000D02*
X63250000Y-93800000D01*
G75*
G02*
X63000000Y-93550000I0J250000D01*
G01*
X63000000Y-89650000D01*
G75*
G02*
X63250000Y-89400000I250000J0D01*
G01*
X65250000Y-89400000D01*
G75*
G02*
X65500000Y-89650000I0J-250000D01*
G01*
X65500000Y-93550000D01*
G75*
G02*
X65250000Y-93800000I-250000J0D01*
G01*
G37*
G36*
G01*
X69750000Y-111300000D02*
X69750000Y-106300000D01*
G75*
G02*
X70000000Y-106050000I250000J0D01*
G01*
X72750000Y-106050000D01*
G75*
G02*
X73000000Y-106300000I0J-250000D01*
G01*
X73000000Y-111300000D01*
G75*
G02*
X72750000Y-111550000I-250000J0D01*
G01*
X70000000Y-111550000D01*
G75*
G02*
X69750000Y-111300000I0J250000D01*
G01*
G37*
G36*
G01*
X81000000Y-111300000D02*
X81000000Y-106300000D01*
G75*
G02*
X81250000Y-106050000I250000J0D01*
G01*
X84000000Y-106050000D01*
G75*
G02*
X84250000Y-106300000I0J-250000D01*
G01*
X84250000Y-111300000D01*
G75*
G02*
X84000000Y-111550000I-250000J0D01*
G01*
X81250000Y-111550000D01*
G75*
G02*
X81000000Y-111300000I0J250000D01*
G01*
G37*
G36*
G01*
X103363500Y-111337500D02*
X102463500Y-111337500D01*
G75*
G02*
X102213500Y-111087500I0J250000D01*
G01*
X102213500Y-110562500D01*
G75*
G02*
X102463500Y-110312500I250000J0D01*
G01*
X103363500Y-110312500D01*
G75*
G02*
X103613500Y-110562500I0J-250000D01*
G01*
X103613500Y-111087500D01*
G75*
G02*
X103363500Y-111337500I-250000J0D01*
G01*
G37*
G36*
G01*
X103363500Y-109512500D02*
X102463500Y-109512500D01*
G75*
G02*
X102213500Y-109262500I0J250000D01*
G01*
X102213500Y-108737500D01*
G75*
G02*
X102463500Y-108487500I250000J0D01*
G01*
X103363500Y-108487500D01*
G75*
G02*
X103613500Y-108737500I0J-250000D01*
G01*
X103613500Y-109262500D01*
G75*
G02*
X103363500Y-109512500I-250000J0D01*
G01*
G37*
G36*
G01*
X113587500Y-93950000D02*
X113587500Y-94850000D01*
G75*
G02*
X113337500Y-95100000I-250000J0D01*
G01*
X112812500Y-95100000D01*
G75*
G02*
X112562500Y-94850000I0J250000D01*
G01*
X112562500Y-93950000D01*
G75*
G02*
X112812500Y-93700000I250000J0D01*
G01*
X113337500Y-93700000D01*
G75*
G02*
X113587500Y-93950000I0J-250000D01*
G01*
G37*
G36*
G01*
X111762500Y-93950000D02*
X111762500Y-94850000D01*
G75*
G02*
X111512500Y-95100000I-250000J0D01*
G01*
X110987500Y-95100000D01*
G75*
G02*
X110737500Y-94850000I0J250000D01*
G01*
X110737500Y-93950000D01*
G75*
G02*
X110987500Y-93700000I250000J0D01*
G01*
X111512500Y-93700000D01*
G75*
G02*
X111762500Y-93950000I0J-250000D01*
G01*
G37*
G36*
G01*
X108275000Y-103200000D02*
X108275000Y-103500000D01*
G75*
G02*
X108125000Y-103650000I-150000J0D01*
G01*
X106950000Y-103650000D01*
G75*
G02*
X106800000Y-103500000I0J150000D01*
G01*
X106800000Y-103200000D01*
G75*
G02*
X106950000Y-103050000I150000J0D01*
G01*
X108125000Y-103050000D01*
G75*
G02*
X108275000Y-103200000I0J-150000D01*
G01*
G37*
G36*
G01*
X108275000Y-101300000D02*
X108275000Y-101600000D01*
G75*
G02*
X108125000Y-101750000I-150000J0D01*
G01*
X106950000Y-101750000D01*
G75*
G02*
X106800000Y-101600000I0J150000D01*
G01*
X106800000Y-101300000D01*
G75*
G02*
X106950000Y-101150000I150000J0D01*
G01*
X108125000Y-101150000D01*
G75*
G02*
X108275000Y-101300000I0J-150000D01*
G01*
G37*
G36*
G01*
X106400000Y-102250000D02*
X106400000Y-102550000D01*
G75*
G02*
X106250000Y-102700000I-150000J0D01*
G01*
X105075000Y-102700000D01*
G75*
G02*
X104925000Y-102550000I0J150000D01*
G01*
X104925000Y-102250000D01*
G75*
G02*
X105075000Y-102100000I150000J0D01*
G01*
X106250000Y-102100000D01*
G75*
G02*
X106400000Y-102250000I0J-150000D01*
G01*
G37*
D18*
X104380000Y-61000000D03*
X106920000Y-61000000D03*
X109460000Y-61000000D03*
X112000000Y-61000000D03*
D17*
X119000000Y-90750000D03*
X111200000Y-90750000D03*
M02*
