G04 #@! TF.GenerationSoftware,KiCad,Pcbnew,10.0.1-10.0.1~ubuntu25.10.1*
G04 #@! TF.CreationDate,2026-06-20T18:39:01+00:00*
G04 #@! TF.ProjectId,LoconetEsp32Craddle,4c6f636f-6e65-4744-9573-703332437261,0.0.1*
G04 #@! TF.SameCoordinates,Original*
G04 #@! TF.FileFunction,Soldermask,Bot*
G04 #@! TF.FilePolarity,Negative*
%FSLAX46Y46*%
G04 Gerber Fmt 4.6, Leading zero omitted, Abs format (unit mm)*
G04 Created by KiCad (PCBNEW 10.0.1-10.0.1~ubuntu25.10.1) date 2026-06-20 18:39:01*
%MOMM*%
%LPD*%
G01*
G04 APERTURE LIST*
%ADD10C,3.450000*%
%ADD11R,1.398000X1.398000*%
%ADD12C,1.398000*%
%ADD13C,5.700000*%
%ADD14R,1.200000X2.000000*%
%ADD15O,1.200000X2.000000*%
%ADD16O,1.600000X2.000000*%
G04 APERTURE END LIST*
G36*
X50350000Y-94250000D02*
G01*
X50650000Y-94250000D01*
X50650000Y-95750000D01*
X50350000Y-95750000D01*
X50350000Y-94250000D01*
G37*
G36*
X50350000Y-99750000D02*
G01*
X50650000Y-99750000D01*
X50650000Y-101250000D01*
X50350000Y-101250000D01*
X50350000Y-99750000D01*
G37*
D10*
X38000000Y-83237500D03*
X38000000Y-92762500D03*
D11*
X43080000Y-90540000D03*
D12*
X41050000Y-89524000D03*
X43080000Y-88508000D03*
X41048000Y-87492000D03*
X43080000Y-86476000D03*
X41050000Y-85460000D03*
D10*
X38000000Y-97237500D03*
X38000000Y-106762500D03*
D11*
X43080000Y-104540000D03*
D12*
X41050000Y-103524000D03*
X43080000Y-102508000D03*
X41048000Y-101492000D03*
X43080000Y-100476000D03*
X41050000Y-99460000D03*
D13*
X35000000Y-65000000D03*
X35000000Y-115000000D03*
X120000000Y-115000000D03*
X120000000Y-54000000D03*
D14*
X77203440Y-53300000D03*
D15*
X74663440Y-53300000D03*
X72123440Y-53300000D03*
X69583440Y-53300000D03*
X67043440Y-53300000D03*
X64503440Y-53300000D03*
X61963440Y-53300000D03*
X59423440Y-53300000D03*
X56883440Y-53300000D03*
X54343440Y-53300000D03*
X51803440Y-53300000D03*
X49263440Y-53300000D03*
X46723440Y-53300000D03*
X44183440Y-53300000D03*
X41643440Y-53300000D03*
X39103440Y-53300000D03*
X36563440Y-53300000D03*
X34023440Y-53300000D03*
X31483440Y-53300000D03*
X31486160Y-78696320D03*
X34026160Y-78696320D03*
X36563440Y-78700000D03*
X39103440Y-78700000D03*
X41643440Y-78700000D03*
X44183440Y-78700000D03*
X46723440Y-78700000D03*
X49263440Y-78700000D03*
X51803440Y-78700000D03*
X54343440Y-78700000D03*
X56883440Y-78700000D03*
X59423440Y-78700000D03*
X61963440Y-78700000D03*
X64503440Y-78700000D03*
X67043440Y-78700000D03*
X69583440Y-78700000D03*
X72123440Y-78700000D03*
X74663440Y-78700000D03*
X77203440Y-78700000D03*
D16*
X104380000Y-61000000D03*
X106920000Y-61000000D03*
X109460000Y-61000000D03*
X112000000Y-61000000D03*
G36*
X50650000Y-94250000D02*
G01*
X51150000Y-94250000D01*
X51150000Y-94254278D01*
X51215263Y-94254278D01*
X51341342Y-94288060D01*
X51454381Y-94353323D01*
X51546677Y-94445619D01*
X51611940Y-94558658D01*
X51645722Y-94684737D01*
X51645722Y-94750000D01*
X51650000Y-94750000D01*
X51650000Y-95250000D01*
X51645722Y-95250000D01*
X51645722Y-95315263D01*
X51611940Y-95441342D01*
X51546677Y-95554381D01*
X51454381Y-95646677D01*
X51341342Y-95711940D01*
X51215263Y-95745722D01*
X51150000Y-95745722D01*
X51150000Y-95750000D01*
X50650000Y-95750000D01*
X50650000Y-94250000D01*
G37*
G36*
X49850000Y-95745722D02*
G01*
X49784737Y-95745722D01*
X49658658Y-95711940D01*
X49545619Y-95646677D01*
X49453323Y-95554381D01*
X49388060Y-95441342D01*
X49354278Y-95315263D01*
X49354278Y-95250000D01*
X49350000Y-95250000D01*
X49350000Y-94750000D01*
X49354278Y-94750000D01*
X49354278Y-94684737D01*
X49388060Y-94558658D01*
X49453323Y-94445619D01*
X49545619Y-94353323D01*
X49658658Y-94288060D01*
X49784737Y-94254278D01*
X49850000Y-94254278D01*
X49850000Y-94250000D01*
X50350000Y-94250000D01*
X50350000Y-95750000D01*
X49850000Y-95750000D01*
X49850000Y-95745722D01*
G37*
G36*
X50650000Y-99750000D02*
G01*
X51150000Y-99750000D01*
X51150000Y-99754278D01*
X51215263Y-99754278D01*
X51341342Y-99788060D01*
X51454381Y-99853323D01*
X51546677Y-99945619D01*
X51611940Y-100058658D01*
X51645722Y-100184737D01*
X51645722Y-100250000D01*
X51650000Y-100250000D01*
X51650000Y-100750000D01*
X51645722Y-100750000D01*
X51645722Y-100815263D01*
X51611940Y-100941342D01*
X51546677Y-101054381D01*
X51454381Y-101146677D01*
X51341342Y-101211940D01*
X51215263Y-101245722D01*
X51150000Y-101245722D01*
X51150000Y-101250000D01*
X50650000Y-101250000D01*
X50650000Y-99750000D01*
G37*
G36*
X49850000Y-101245722D02*
G01*
X49784737Y-101245722D01*
X49658658Y-101211940D01*
X49545619Y-101146677D01*
X49453323Y-101054381D01*
X49388060Y-100941342D01*
X49354278Y-100815263D01*
X49354278Y-100750000D01*
X49350000Y-100750000D01*
X49350000Y-100250000D01*
X49354278Y-100250000D01*
X49354278Y-100184737D01*
X49388060Y-100058658D01*
X49453323Y-99945619D01*
X49545619Y-99853323D01*
X49658658Y-99788060D01*
X49784737Y-99754278D01*
X49850000Y-99754278D01*
X49850000Y-99750000D01*
X50350000Y-99750000D01*
X50350000Y-101250000D01*
X49850000Y-101250000D01*
X49850000Y-101245722D01*
G37*
M02*
