G04 #@! TF.GenerationSoftware,KiCad,Pcbnew,10.0.1-10.0.1~ubuntu25.10.1*
G04 #@! TF.CreationDate,2026-06-20T18:39:01+00:00*
G04 #@! TF.ProjectId,LoconetEsp32Craddle,4c6f636f-6e65-4744-9573-703332437261,0.0.1*
G04 #@! TF.SameCoordinates,Original*
G04 #@! TF.FileFunction,Legend,Bot*
G04 #@! TF.FilePolarity,Positive*
%FSLAX46Y46*%
G04 Gerber Fmt 4.6, Leading zero omitted, Abs format (unit mm)*
G04 Created by KiCad (PCBNEW 10.0.1-10.0.1~ubuntu25.10.1) date 2026-06-20 18:39:01*
%MOMM*%
%LPD*%
G01*
G04 APERTURE LIST*
%ADD10C,0.150000*%
%ADD11C,0.120000*%
%ADD12C,3.450000*%
%ADD13R,1.398000X1.398000*%
%ADD14C,1.398000*%
%ADD15C,5.700000*%
%ADD16R,1.200000X2.000000*%
%ADD17O,1.200000X2.000000*%
%ADD18O,1.600000X2.000000*%
G04 APERTURE END LIST*
D10*
X88656077Y-77238177D02*
X88656077Y-77845320D01*
X88656077Y-77845320D02*
X88696554Y-77966748D01*
X88696554Y-77966748D02*
X88777506Y-78047701D01*
X88777506Y-78047701D02*
X88898935Y-78088177D01*
X88898935Y-78088177D02*
X88979887Y-78088177D01*
X87846554Y-78088177D02*
X88251316Y-78088177D01*
X88251316Y-78088177D02*
X88251316Y-77238177D01*
X87077506Y-78007224D02*
X87117982Y-78047701D01*
X87117982Y-78047701D02*
X87239411Y-78088177D01*
X87239411Y-78088177D02*
X87320363Y-78088177D01*
X87320363Y-78088177D02*
X87441792Y-78047701D01*
X87441792Y-78047701D02*
X87522744Y-77966748D01*
X87522744Y-77966748D02*
X87563221Y-77885796D01*
X87563221Y-77885796D02*
X87603697Y-77723891D01*
X87603697Y-77723891D02*
X87603697Y-77602462D01*
X87603697Y-77602462D02*
X87563221Y-77440558D01*
X87563221Y-77440558D02*
X87522744Y-77359605D01*
X87522744Y-77359605D02*
X87441792Y-77278653D01*
X87441792Y-77278653D02*
X87320363Y-77238177D01*
X87320363Y-77238177D02*
X87239411Y-77238177D01*
X87239411Y-77238177D02*
X87117982Y-77278653D01*
X87117982Y-77278653D02*
X87077506Y-77319129D01*
X86470363Y-77238177D02*
X86470363Y-77845320D01*
X86470363Y-77845320D02*
X86510840Y-77966748D01*
X86510840Y-77966748D02*
X86591792Y-78047701D01*
X86591792Y-78047701D02*
X86713221Y-78088177D01*
X86713221Y-78088177D02*
X86794173Y-78088177D01*
X85660840Y-78088177D02*
X86065602Y-78088177D01*
X86065602Y-78088177D02*
X86065602Y-77238177D01*
X84891792Y-78007224D02*
X84932268Y-78047701D01*
X84932268Y-78047701D02*
X85053697Y-78088177D01*
X85053697Y-78088177D02*
X85134649Y-78088177D01*
X85134649Y-78088177D02*
X85256078Y-78047701D01*
X85256078Y-78047701D02*
X85337030Y-77966748D01*
X85337030Y-77966748D02*
X85377507Y-77885796D01*
X85377507Y-77885796D02*
X85417983Y-77723891D01*
X85417983Y-77723891D02*
X85417983Y-77602462D01*
X85417983Y-77602462D02*
X85377507Y-77440558D01*
X85377507Y-77440558D02*
X85337030Y-77359605D01*
X85337030Y-77359605D02*
X85256078Y-77278653D01*
X85256078Y-77278653D02*
X85134649Y-77238177D01*
X85134649Y-77238177D02*
X85053697Y-77238177D01*
X85053697Y-77238177D02*
X84932268Y-77278653D01*
X84932268Y-77278653D02*
X84891792Y-77319129D01*
X84284649Y-77238177D02*
X84284649Y-77845320D01*
X84284649Y-77845320D02*
X84325126Y-77966748D01*
X84325126Y-77966748D02*
X84406078Y-78047701D01*
X84406078Y-78047701D02*
X84527507Y-78088177D01*
X84527507Y-78088177D02*
X84608459Y-78088177D01*
X83475126Y-78088177D02*
X83879888Y-78088177D01*
X83879888Y-78088177D02*
X83879888Y-77238177D01*
X82706078Y-78007224D02*
X82746554Y-78047701D01*
X82746554Y-78047701D02*
X82867983Y-78088177D01*
X82867983Y-78088177D02*
X82948935Y-78088177D01*
X82948935Y-78088177D02*
X83070364Y-78047701D01*
X83070364Y-78047701D02*
X83151316Y-77966748D01*
X83151316Y-77966748D02*
X83191793Y-77885796D01*
X83191793Y-77885796D02*
X83232269Y-77723891D01*
X83232269Y-77723891D02*
X83232269Y-77602462D01*
X83232269Y-77602462D02*
X83191793Y-77440558D01*
X83191793Y-77440558D02*
X83151316Y-77359605D01*
X83151316Y-77359605D02*
X83070364Y-77278653D01*
X83070364Y-77278653D02*
X82948935Y-77238177D01*
X82948935Y-77238177D02*
X82867983Y-77238177D01*
X82867983Y-77238177D02*
X82746554Y-77278653D01*
X82746554Y-77278653D02*
X82706078Y-77319129D01*
X82098935Y-77238177D02*
X82098935Y-77845320D01*
X82098935Y-77845320D02*
X82139412Y-77966748D01*
X82139412Y-77966748D02*
X82220364Y-78047701D01*
X82220364Y-78047701D02*
X82341793Y-78088177D01*
X82341793Y-78088177D02*
X82422745Y-78088177D01*
X81289412Y-78088177D02*
X81694174Y-78088177D01*
X81694174Y-78088177D02*
X81694174Y-77238177D01*
X80520364Y-78007224D02*
X80560840Y-78047701D01*
X80560840Y-78047701D02*
X80682269Y-78088177D01*
X80682269Y-78088177D02*
X80763221Y-78088177D01*
X80763221Y-78088177D02*
X80884650Y-78047701D01*
X80884650Y-78047701D02*
X80965602Y-77966748D01*
X80965602Y-77966748D02*
X81006079Y-77885796D01*
X81006079Y-77885796D02*
X81046555Y-77723891D01*
X81046555Y-77723891D02*
X81046555Y-77602462D01*
X81046555Y-77602462D02*
X81006079Y-77440558D01*
X81006079Y-77440558D02*
X80965602Y-77359605D01*
X80965602Y-77359605D02*
X80884650Y-77278653D01*
X80884650Y-77278653D02*
X80763221Y-77238177D01*
X80763221Y-77238177D02*
X80682269Y-77238177D01*
X80682269Y-77238177D02*
X80560840Y-77278653D01*
X80560840Y-77278653D02*
X80520364Y-77319129D01*
X85937030Y-72759875D02*
X86413220Y-72759875D01*
X86413220Y-72759875D02*
X86413220Y-71759875D01*
X85460839Y-72759875D02*
X85556077Y-72712256D01*
X85556077Y-72712256D02*
X85603696Y-72664636D01*
X85603696Y-72664636D02*
X85651315Y-72569398D01*
X85651315Y-72569398D02*
X85651315Y-72283684D01*
X85651315Y-72283684D02*
X85603696Y-72188446D01*
X85603696Y-72188446D02*
X85556077Y-72140827D01*
X85556077Y-72140827D02*
X85460839Y-72093208D01*
X85460839Y-72093208D02*
X85317982Y-72093208D01*
X85317982Y-72093208D02*
X85222744Y-72140827D01*
X85222744Y-72140827D02*
X85175125Y-72188446D01*
X85175125Y-72188446D02*
X85127506Y-72283684D01*
X85127506Y-72283684D02*
X85127506Y-72569398D01*
X85127506Y-72569398D02*
X85175125Y-72664636D01*
X85175125Y-72664636D02*
X85222744Y-72712256D01*
X85222744Y-72712256D02*
X85317982Y-72759875D01*
X85317982Y-72759875D02*
X85460839Y-72759875D01*
X84270363Y-72712256D02*
X84365601Y-72759875D01*
X84365601Y-72759875D02*
X84556077Y-72759875D01*
X84556077Y-72759875D02*
X84651315Y-72712256D01*
X84651315Y-72712256D02*
X84698934Y-72664636D01*
X84698934Y-72664636D02*
X84746553Y-72569398D01*
X84746553Y-72569398D02*
X84746553Y-72283684D01*
X84746553Y-72283684D02*
X84698934Y-72188446D01*
X84698934Y-72188446D02*
X84651315Y-72140827D01*
X84651315Y-72140827D02*
X84556077Y-72093208D01*
X84556077Y-72093208D02*
X84365601Y-72093208D01*
X84365601Y-72093208D02*
X84270363Y-72140827D01*
X83698934Y-72759875D02*
X83794172Y-72712256D01*
X83794172Y-72712256D02*
X83841791Y-72664636D01*
X83841791Y-72664636D02*
X83889410Y-72569398D01*
X83889410Y-72569398D02*
X83889410Y-72283684D01*
X83889410Y-72283684D02*
X83841791Y-72188446D01*
X83841791Y-72188446D02*
X83794172Y-72140827D01*
X83794172Y-72140827D02*
X83698934Y-72093208D01*
X83698934Y-72093208D02*
X83556077Y-72093208D01*
X83556077Y-72093208D02*
X83460839Y-72140827D01*
X83460839Y-72140827D02*
X83413220Y-72188446D01*
X83413220Y-72188446D02*
X83365601Y-72283684D01*
X83365601Y-72283684D02*
X83365601Y-72569398D01*
X83365601Y-72569398D02*
X83413220Y-72664636D01*
X83413220Y-72664636D02*
X83460839Y-72712256D01*
X83460839Y-72712256D02*
X83556077Y-72759875D01*
X83556077Y-72759875D02*
X83698934Y-72759875D01*
X82937029Y-72759875D02*
X82937029Y-71759875D01*
X82937029Y-71759875D02*
X82365601Y-72759875D01*
X82365601Y-72759875D02*
X82365601Y-71759875D01*
X81508458Y-72712256D02*
X81603696Y-72759875D01*
X81603696Y-72759875D02*
X81794172Y-72759875D01*
X81794172Y-72759875D02*
X81889410Y-72712256D01*
X81889410Y-72712256D02*
X81937029Y-72617017D01*
X81937029Y-72617017D02*
X81937029Y-72236065D01*
X81937029Y-72236065D02*
X81889410Y-72140827D01*
X81889410Y-72140827D02*
X81794172Y-72093208D01*
X81794172Y-72093208D02*
X81603696Y-72093208D01*
X81603696Y-72093208D02*
X81508458Y-72140827D01*
X81508458Y-72140827D02*
X81460839Y-72236065D01*
X81460839Y-72236065D02*
X81460839Y-72331303D01*
X81460839Y-72331303D02*
X81937029Y-72426541D01*
X81175124Y-72093208D02*
X80794172Y-72093208D01*
X81032267Y-71759875D02*
X81032267Y-72617017D01*
X81032267Y-72617017D02*
X80984648Y-72712256D01*
X80984648Y-72712256D02*
X80889410Y-72759875D01*
X80889410Y-72759875D02*
X80794172Y-72759875D01*
X79365600Y-72236065D02*
X79222743Y-72283684D01*
X79222743Y-72283684D02*
X79175124Y-72331303D01*
X79175124Y-72331303D02*
X79127505Y-72426541D01*
X79127505Y-72426541D02*
X79127505Y-72569398D01*
X79127505Y-72569398D02*
X79175124Y-72664636D01*
X79175124Y-72664636D02*
X79222743Y-72712256D01*
X79222743Y-72712256D02*
X79317981Y-72759875D01*
X79317981Y-72759875D02*
X79698933Y-72759875D01*
X79698933Y-72759875D02*
X79698933Y-71759875D01*
X79698933Y-71759875D02*
X79365600Y-71759875D01*
X79365600Y-71759875D02*
X79270362Y-71807494D01*
X79270362Y-71807494D02*
X79222743Y-71855113D01*
X79222743Y-71855113D02*
X79175124Y-71950351D01*
X79175124Y-71950351D02*
X79175124Y-72045589D01*
X79175124Y-72045589D02*
X79222743Y-72140827D01*
X79222743Y-72140827D02*
X79270362Y-72188446D01*
X79270362Y-72188446D02*
X79365600Y-72236065D01*
X79365600Y-72236065D02*
X79698933Y-72236065D01*
X78270362Y-72093208D02*
X78270362Y-72759875D01*
X78698933Y-72093208D02*
X78698933Y-72617017D01*
X78698933Y-72617017D02*
X78651314Y-72712256D01*
X78651314Y-72712256D02*
X78556076Y-72759875D01*
X78556076Y-72759875D02*
X78413219Y-72759875D01*
X78413219Y-72759875D02*
X78317981Y-72712256D01*
X78317981Y-72712256D02*
X78270362Y-72664636D01*
X77937028Y-72093208D02*
X77556076Y-72093208D01*
X77794171Y-72759875D02*
X77794171Y-71902732D01*
X77794171Y-71902732D02*
X77746552Y-71807494D01*
X77746552Y-71807494D02*
X77651314Y-71759875D01*
X77651314Y-71759875D02*
X77556076Y-71759875D01*
X77365599Y-72093208D02*
X76984647Y-72093208D01*
X77222742Y-72759875D02*
X77222742Y-71902732D01*
X77222742Y-71902732D02*
X77175123Y-71807494D01*
X77175123Y-71807494D02*
X77079885Y-71759875D01*
X77079885Y-71759875D02*
X76984647Y-71759875D01*
X76270361Y-72712256D02*
X76365599Y-72759875D01*
X76365599Y-72759875D02*
X76556075Y-72759875D01*
X76556075Y-72759875D02*
X76651313Y-72712256D01*
X76651313Y-72712256D02*
X76698932Y-72617017D01*
X76698932Y-72617017D02*
X76698932Y-72236065D01*
X76698932Y-72236065D02*
X76651313Y-72140827D01*
X76651313Y-72140827D02*
X76556075Y-72093208D01*
X76556075Y-72093208D02*
X76365599Y-72093208D01*
X76365599Y-72093208D02*
X76270361Y-72140827D01*
X76270361Y-72140827D02*
X76222742Y-72236065D01*
X76222742Y-72236065D02*
X76222742Y-72331303D01*
X76222742Y-72331303D02*
X76698932Y-72426541D01*
X75794170Y-72759875D02*
X75794170Y-72093208D01*
X75794170Y-72283684D02*
X75746551Y-72188446D01*
X75746551Y-72188446D02*
X75698932Y-72140827D01*
X75698932Y-72140827D02*
X75603694Y-72093208D01*
X75603694Y-72093208D02*
X75508456Y-72093208D01*
X74413217Y-72236065D02*
X74079884Y-72236065D01*
X73937027Y-72759875D02*
X74413217Y-72759875D01*
X74413217Y-72759875D02*
X74413217Y-71759875D01*
X74413217Y-71759875D02*
X73937027Y-71759875D01*
X73556074Y-72712256D02*
X73413217Y-72759875D01*
X73413217Y-72759875D02*
X73175122Y-72759875D01*
X73175122Y-72759875D02*
X73079884Y-72712256D01*
X73079884Y-72712256D02*
X73032265Y-72664636D01*
X73032265Y-72664636D02*
X72984646Y-72569398D01*
X72984646Y-72569398D02*
X72984646Y-72474160D01*
X72984646Y-72474160D02*
X73032265Y-72378922D01*
X73032265Y-72378922D02*
X73079884Y-72331303D01*
X73079884Y-72331303D02*
X73175122Y-72283684D01*
X73175122Y-72283684D02*
X73365598Y-72236065D01*
X73365598Y-72236065D02*
X73460836Y-72188446D01*
X73460836Y-72188446D02*
X73508455Y-72140827D01*
X73508455Y-72140827D02*
X73556074Y-72045589D01*
X73556074Y-72045589D02*
X73556074Y-71950351D01*
X73556074Y-71950351D02*
X73508455Y-71855113D01*
X73508455Y-71855113D02*
X73460836Y-71807494D01*
X73460836Y-71807494D02*
X73365598Y-71759875D01*
X73365598Y-71759875D02*
X73127503Y-71759875D01*
X73127503Y-71759875D02*
X72984646Y-71807494D01*
X72556074Y-72759875D02*
X72556074Y-71759875D01*
X72556074Y-71759875D02*
X72175122Y-71759875D01*
X72175122Y-71759875D02*
X72079884Y-71807494D01*
X72079884Y-71807494D02*
X72032265Y-71855113D01*
X72032265Y-71855113D02*
X71984646Y-71950351D01*
X71984646Y-71950351D02*
X71984646Y-72093208D01*
X71984646Y-72093208D02*
X72032265Y-72188446D01*
X72032265Y-72188446D02*
X72079884Y-72236065D01*
X72079884Y-72236065D02*
X72175122Y-72283684D01*
X72175122Y-72283684D02*
X72556074Y-72283684D01*
X71651312Y-71759875D02*
X71032265Y-71759875D01*
X71032265Y-71759875D02*
X71365598Y-72140827D01*
X71365598Y-72140827D02*
X71222741Y-72140827D01*
X71222741Y-72140827D02*
X71127503Y-72188446D01*
X71127503Y-72188446D02*
X71079884Y-72236065D01*
X71079884Y-72236065D02*
X71032265Y-72331303D01*
X71032265Y-72331303D02*
X71032265Y-72569398D01*
X71032265Y-72569398D02*
X71079884Y-72664636D01*
X71079884Y-72664636D02*
X71127503Y-72712256D01*
X71127503Y-72712256D02*
X71222741Y-72759875D01*
X71222741Y-72759875D02*
X71508455Y-72759875D01*
X71508455Y-72759875D02*
X71603693Y-72712256D01*
X71603693Y-72712256D02*
X71651312Y-72664636D01*
X70651312Y-71855113D02*
X70603693Y-71807494D01*
X70603693Y-71807494D02*
X70508455Y-71759875D01*
X70508455Y-71759875D02*
X70270360Y-71759875D01*
X70270360Y-71759875D02*
X70175122Y-71807494D01*
X70175122Y-71807494D02*
X70127503Y-71855113D01*
X70127503Y-71855113D02*
X70079884Y-71950351D01*
X70079884Y-71950351D02*
X70079884Y-72045589D01*
X70079884Y-72045589D02*
X70127503Y-72188446D01*
X70127503Y-72188446D02*
X70698931Y-72759875D01*
X70698931Y-72759875D02*
X70079884Y-72759875D01*
X86556077Y-73369819D02*
X86222744Y-74369819D01*
X86222744Y-74369819D02*
X85889411Y-73369819D01*
X84603696Y-73369819D02*
X84508458Y-73369819D01*
X84508458Y-73369819D02*
X84413220Y-73417438D01*
X84413220Y-73417438D02*
X84365601Y-73465057D01*
X84365601Y-73465057D02*
X84317982Y-73560295D01*
X84317982Y-73560295D02*
X84270363Y-73750771D01*
X84270363Y-73750771D02*
X84270363Y-73988866D01*
X84270363Y-73988866D02*
X84317982Y-74179342D01*
X84317982Y-74179342D02*
X84365601Y-74274580D01*
X84365601Y-74274580D02*
X84413220Y-74322200D01*
X84413220Y-74322200D02*
X84508458Y-74369819D01*
X84508458Y-74369819D02*
X84603696Y-74369819D01*
X84603696Y-74369819D02*
X84698934Y-74322200D01*
X84698934Y-74322200D02*
X84746553Y-74274580D01*
X84746553Y-74274580D02*
X84794172Y-74179342D01*
X84794172Y-74179342D02*
X84841791Y-73988866D01*
X84841791Y-73988866D02*
X84841791Y-73750771D01*
X84841791Y-73750771D02*
X84794172Y-73560295D01*
X84794172Y-73560295D02*
X84746553Y-73465057D01*
X84746553Y-73465057D02*
X84698934Y-73417438D01*
X84698934Y-73417438D02*
X84603696Y-73369819D01*
X83841791Y-74274580D02*
X83794172Y-74322200D01*
X83794172Y-74322200D02*
X83841791Y-74369819D01*
X83841791Y-74369819D02*
X83889410Y-74322200D01*
X83889410Y-74322200D02*
X83841791Y-74274580D01*
X83841791Y-74274580D02*
X83841791Y-74369819D01*
X83175125Y-73369819D02*
X83079887Y-73369819D01*
X83079887Y-73369819D02*
X82984649Y-73417438D01*
X82984649Y-73417438D02*
X82937030Y-73465057D01*
X82937030Y-73465057D02*
X82889411Y-73560295D01*
X82889411Y-73560295D02*
X82841792Y-73750771D01*
X82841792Y-73750771D02*
X82841792Y-73988866D01*
X82841792Y-73988866D02*
X82889411Y-74179342D01*
X82889411Y-74179342D02*
X82937030Y-74274580D01*
X82937030Y-74274580D02*
X82984649Y-74322200D01*
X82984649Y-74322200D02*
X83079887Y-74369819D01*
X83079887Y-74369819D02*
X83175125Y-74369819D01*
X83175125Y-74369819D02*
X83270363Y-74322200D01*
X83270363Y-74322200D02*
X83317982Y-74274580D01*
X83317982Y-74274580D02*
X83365601Y-74179342D01*
X83365601Y-74179342D02*
X83413220Y-73988866D01*
X83413220Y-73988866D02*
X83413220Y-73750771D01*
X83413220Y-73750771D02*
X83365601Y-73560295D01*
X83365601Y-73560295D02*
X83317982Y-73465057D01*
X83317982Y-73465057D02*
X83270363Y-73417438D01*
X83270363Y-73417438D02*
X83175125Y-73369819D01*
X82413220Y-74274580D02*
X82365601Y-74322200D01*
X82365601Y-74322200D02*
X82413220Y-74369819D01*
X82413220Y-74369819D02*
X82460839Y-74322200D01*
X82460839Y-74322200D02*
X82413220Y-74274580D01*
X82413220Y-74274580D02*
X82413220Y-74369819D01*
X81984649Y-73465057D02*
X81937030Y-73417438D01*
X81937030Y-73417438D02*
X81841792Y-73369819D01*
X81841792Y-73369819D02*
X81603697Y-73369819D01*
X81603697Y-73369819D02*
X81508459Y-73417438D01*
X81508459Y-73417438D02*
X81460840Y-73465057D01*
X81460840Y-73465057D02*
X81413221Y-73560295D01*
X81413221Y-73560295D02*
X81413221Y-73655533D01*
X81413221Y-73655533D02*
X81460840Y-73798390D01*
X81460840Y-73798390D02*
X82032268Y-74369819D01*
X82032268Y-74369819D02*
X81413221Y-74369819D01*
X80984649Y-73988866D02*
X80222745Y-73988866D01*
X79413221Y-73846009D02*
X79270364Y-73893628D01*
X79270364Y-73893628D02*
X79222745Y-73941247D01*
X79222745Y-73941247D02*
X79175126Y-74036485D01*
X79175126Y-74036485D02*
X79175126Y-74179342D01*
X79175126Y-74179342D02*
X79222745Y-74274580D01*
X79222745Y-74274580D02*
X79270364Y-74322200D01*
X79270364Y-74322200D02*
X79365602Y-74369819D01*
X79365602Y-74369819D02*
X79746554Y-74369819D01*
X79746554Y-74369819D02*
X79746554Y-73369819D01*
X79746554Y-73369819D02*
X79413221Y-73369819D01*
X79413221Y-73369819D02*
X79317983Y-73417438D01*
X79317983Y-73417438D02*
X79270364Y-73465057D01*
X79270364Y-73465057D02*
X79222745Y-73560295D01*
X79222745Y-73560295D02*
X79222745Y-73655533D01*
X79222745Y-73655533D02*
X79270364Y-73750771D01*
X79270364Y-73750771D02*
X79317983Y-73798390D01*
X79317983Y-73798390D02*
X79413221Y-73846009D01*
X79413221Y-73846009D02*
X79746554Y-73846009D01*
X47604819Y-94166666D02*
X48319104Y-94166666D01*
X48319104Y-94166666D02*
X48461961Y-94119047D01*
X48461961Y-94119047D02*
X48557200Y-94023809D01*
X48557200Y-94023809D02*
X48604819Y-93880952D01*
X48604819Y-93880952D02*
X48604819Y-93785714D01*
X48604819Y-94642857D02*
X47604819Y-94642857D01*
X47604819Y-94642857D02*
X47604819Y-95023809D01*
X47604819Y-95023809D02*
X47652438Y-95119047D01*
X47652438Y-95119047D02*
X47700057Y-95166666D01*
X47700057Y-95166666D02*
X47795295Y-95214285D01*
X47795295Y-95214285D02*
X47938152Y-95214285D01*
X47938152Y-95214285D02*
X48033390Y-95166666D01*
X48033390Y-95166666D02*
X48081009Y-95119047D01*
X48081009Y-95119047D02*
X48128628Y-95023809D01*
X48128628Y-95023809D02*
X48128628Y-94642857D01*
X47700057Y-95595238D02*
X47652438Y-95642857D01*
X47652438Y-95642857D02*
X47604819Y-95738095D01*
X47604819Y-95738095D02*
X47604819Y-95976190D01*
X47604819Y-95976190D02*
X47652438Y-96071428D01*
X47652438Y-96071428D02*
X47700057Y-96119047D01*
X47700057Y-96119047D02*
X47795295Y-96166666D01*
X47795295Y-96166666D02*
X47890533Y-96166666D01*
X47890533Y-96166666D02*
X48033390Y-96119047D01*
X48033390Y-96119047D02*
X48604819Y-95547619D01*
X48604819Y-95547619D02*
X48604819Y-96166666D01*
X47554819Y-99666666D02*
X48269104Y-99666666D01*
X48269104Y-99666666D02*
X48411961Y-99619047D01*
X48411961Y-99619047D02*
X48507200Y-99523809D01*
X48507200Y-99523809D02*
X48554819Y-99380952D01*
X48554819Y-99380952D02*
X48554819Y-99285714D01*
X48554819Y-100142857D02*
X47554819Y-100142857D01*
X47554819Y-100142857D02*
X47554819Y-100523809D01*
X47554819Y-100523809D02*
X47602438Y-100619047D01*
X47602438Y-100619047D02*
X47650057Y-100666666D01*
X47650057Y-100666666D02*
X47745295Y-100714285D01*
X47745295Y-100714285D02*
X47888152Y-100714285D01*
X47888152Y-100714285D02*
X47983390Y-100666666D01*
X47983390Y-100666666D02*
X48031009Y-100619047D01*
X48031009Y-100619047D02*
X48078628Y-100523809D01*
X48078628Y-100523809D02*
X48078628Y-100142857D01*
X48554819Y-101666666D02*
X48554819Y-101095238D01*
X48554819Y-101380952D02*
X47554819Y-101380952D01*
X47554819Y-101380952D02*
X47697676Y-101285714D01*
X47697676Y-101285714D02*
X47792914Y-101190476D01*
X47792914Y-101190476D02*
X47840533Y-101095238D01*
D11*
X49100000Y-94700000D02*
X49100000Y-95300000D01*
X49800000Y-96000000D02*
X51200000Y-96000000D01*
X51200000Y-94000000D02*
X49800000Y-94000000D01*
X51900000Y-95300000D02*
X51900000Y-94700000D01*
X49100000Y-94700000D02*
G75*
G02*
X49800000Y-94000000I700000J0D01*
G01*
X49800000Y-96000000D02*
G75*
G02*
X49100000Y-95300000I0J700000D01*
G01*
X51200000Y-94000000D02*
G75*
G02*
X51900000Y-94700000I1J-699999D01*
G01*
X51900000Y-95300000D02*
G75*
G02*
X51200000Y-96000000I-699999J-1D01*
G01*
X49100000Y-100200000D02*
X49100000Y-100800000D01*
X49800000Y-101500000D02*
X51200000Y-101500000D01*
X51200000Y-99500000D02*
X49800000Y-99500000D01*
X51900000Y-100800000D02*
X51900000Y-100200000D01*
X49100000Y-100200000D02*
G75*
G02*
X49800000Y-99500000I700000J0D01*
G01*
X49800000Y-101500000D02*
G75*
G02*
X49100000Y-100800000I0J700000D01*
G01*
X51200000Y-99500000D02*
G75*
G02*
X51900000Y-100200000I1J-699999D01*
G01*
X51900000Y-100800000D02*
G75*
G02*
X51200000Y-101500000I-699999J-1D01*
G01*
%LPC*%
G36*
X50350000Y-94250000D02*
G01*
X50650000Y-94250000D01*
X50650000Y-95750000D01*
X50350000Y-95750000D01*
X50350000Y-94250000D01*
G37*
G36*
X50350000Y-99750000D02*
G01*
X50650000Y-99750000D01*
X50650000Y-101250000D01*
X50350000Y-101250000D01*
X50350000Y-99750000D01*
G37*
D12*
X38000000Y-83237500D03*
X38000000Y-92762500D03*
D13*
X43080000Y-90540000D03*
D14*
X41050000Y-89524000D03*
X43080000Y-88508000D03*
X41048000Y-87492000D03*
X43080000Y-86476000D03*
X41050000Y-85460000D03*
D12*
X38000000Y-97237500D03*
X38000000Y-106762500D03*
D13*
X43080000Y-104540000D03*
D14*
X41050000Y-103524000D03*
X43080000Y-102508000D03*
X41048000Y-101492000D03*
X43080000Y-100476000D03*
X41050000Y-99460000D03*
D15*
X35000000Y-65000000D03*
X35000000Y-115000000D03*
X120000000Y-115000000D03*
X120000000Y-54000000D03*
D16*
X77203440Y-53300000D03*
D17*
X74663440Y-53300000D03*
X72123440Y-53300000D03*
X69583440Y-53300000D03*
X67043440Y-53300000D03*
X64503440Y-53300000D03*
X61963440Y-53300000D03*
X59423440Y-53300000D03*
X56883440Y-53300000D03*
X54343440Y-53300000D03*
X51803440Y-53300000D03*
X49263440Y-53300000D03*
X46723440Y-53300000D03*
X44183440Y-53300000D03*
X41643440Y-53300000D03*
X39103440Y-53300000D03*
X36563440Y-53300000D03*
X34023440Y-53300000D03*
X31483440Y-53300000D03*
X31486160Y-78696320D03*
X34026160Y-78696320D03*
X36563440Y-78700000D03*
X39103440Y-78700000D03*
X41643440Y-78700000D03*
X44183440Y-78700000D03*
X46723440Y-78700000D03*
X49263440Y-78700000D03*
X51803440Y-78700000D03*
X54343440Y-78700000D03*
X56883440Y-78700000D03*
X59423440Y-78700000D03*
X61963440Y-78700000D03*
X64503440Y-78700000D03*
X67043440Y-78700000D03*
X69583440Y-78700000D03*
X72123440Y-78700000D03*
X74663440Y-78700000D03*
X77203440Y-78700000D03*
D18*
X104380000Y-61000000D03*
X106920000Y-61000000D03*
X109460000Y-61000000D03*
X112000000Y-61000000D03*
G36*
X50650000Y-94250000D02*
G01*
X51150000Y-94250000D01*
X51150000Y-94254278D01*
X51215263Y-94254278D01*
X51341342Y-94288060D01*
X51454381Y-94353323D01*
X51546677Y-94445619D01*
X51611940Y-94558658D01*
X51645722Y-94684737D01*
X51645722Y-94750000D01*
X51650000Y-94750000D01*
X51650000Y-95250000D01*
X51645722Y-95250000D01*
X51645722Y-95315263D01*
X51611940Y-95441342D01*
X51546677Y-95554381D01*
X51454381Y-95646677D01*
X51341342Y-95711940D01*
X51215263Y-95745722D01*
X51150000Y-95745722D01*
X51150000Y-95750000D01*
X50650000Y-95750000D01*
X50650000Y-94250000D01*
G37*
G36*
X49850000Y-95745722D02*
G01*
X49784737Y-95745722D01*
X49658658Y-95711940D01*
X49545619Y-95646677D01*
X49453323Y-95554381D01*
X49388060Y-95441342D01*
X49354278Y-95315263D01*
X49354278Y-95250000D01*
X49350000Y-95250000D01*
X49350000Y-94750000D01*
X49354278Y-94750000D01*
X49354278Y-94684737D01*
X49388060Y-94558658D01*
X49453323Y-94445619D01*
X49545619Y-94353323D01*
X49658658Y-94288060D01*
X49784737Y-94254278D01*
X49850000Y-94254278D01*
X49850000Y-94250000D01*
X50350000Y-94250000D01*
X50350000Y-95750000D01*
X49850000Y-95750000D01*
X49850000Y-95745722D01*
G37*
G36*
X50650000Y-99750000D02*
G01*
X51150000Y-99750000D01*
X51150000Y-99754278D01*
X51215263Y-99754278D01*
X51341342Y-99788060D01*
X51454381Y-99853323D01*
X51546677Y-99945619D01*
X51611940Y-100058658D01*
X51645722Y-100184737D01*
X51645722Y-100250000D01*
X51650000Y-100250000D01*
X51650000Y-100750000D01*
X51645722Y-100750000D01*
X51645722Y-100815263D01*
X51611940Y-100941342D01*
X51546677Y-101054381D01*
X51454381Y-101146677D01*
X51341342Y-101211940D01*
X51215263Y-101245722D01*
X51150000Y-101245722D01*
X51150000Y-101250000D01*
X50650000Y-101250000D01*
X50650000Y-99750000D01*
G37*
G36*
X49850000Y-101245722D02*
G01*
X49784737Y-101245722D01*
X49658658Y-101211940D01*
X49545619Y-101146677D01*
X49453323Y-101054381D01*
X49388060Y-100941342D01*
X49354278Y-100815263D01*
X49354278Y-100750000D01*
X49350000Y-100750000D01*
X49350000Y-100250000D01*
X49354278Y-100250000D01*
X49354278Y-100184737D01*
X49388060Y-100058658D01*
X49453323Y-99945619D01*
X49545619Y-99853323D01*
X49658658Y-99788060D01*
X49784737Y-99754278D01*
X49850000Y-99754278D01*
X49850000Y-99750000D01*
X50350000Y-99750000D01*
X50350000Y-101250000D01*
X49850000Y-101250000D01*
X49850000Y-101245722D01*
G37*
%LPD*%
M02*
