M48
; DRILL file KiCad 10.0.1-10.0.1~ubuntu25.10.1 date 2026-06-20T18:39:01
; FORMAT={-:-/ absolute / inch / decimal}
; #@! TF.CreationDate,2026-06-20T18:39:01+00:00
; #@! TF.GenerationSoftware,Kicad,Pcbnew,10.0.1-10.0.1~ubuntu25.10.1
; #@! TF.FileFunction,Plated,1,4,PTH
FMAT,2
INCH
; #@! TA.AperFunction,Plated,PTH,ViaDrill
T1C0.0157
; #@! TA.AperFunction,Plated,PTH,ComponentDrill
T2C0.0315
; #@! TA.AperFunction,Plated,PTH,ComponentDrill
T3C0.0350
; #@! TA.AperFunction,Plated,PTH,ComponentDrill
T4C0.0394
; #@! TA.AperFunction,Plated,PTH,ComponentDrill
T5C0.1260
%
G90
G05
T1
X2.0Y-4.335
X2.0079Y-3.8189
X2.0079Y-3.8819
X2.2741Y-4.0817
X2.3858Y-4.5906
X2.475Y-4.205
X2.4961Y-4.0787
X2.564Y-4.4409
X3.6693Y-4.3228
X3.7244Y-4.0787
X3.9606Y-4.252
X4.0295Y-3.7165
X4.1267Y-4.2923
X4.1732Y-4.5748
X4.2362Y-3.4409
X4.2475Y-4.2666
X4.315Y-3.5748
X4.4921Y-3.7146
X4.527Y-4.3507
X4.7087Y-4.2205
X4.748Y-4.1102
X4.7953Y-4.0
T2
X1.2395Y-2.0984
X1.2396Y-3.0983
X1.3395Y-2.0984
X1.3396Y-3.0983
X1.4395Y-2.0984
X1.4395Y-3.0984
X1.5395Y-2.0984
X1.5395Y-3.0984
X1.6395Y-2.0984
X1.6395Y-3.0984
X1.7395Y-2.0984
X1.7395Y-3.0984
X1.8395Y-2.0984
X1.8395Y-3.0984
X1.9395Y-2.0984
X1.9395Y-3.0984
X2.0395Y-2.0984
X2.0395Y-3.0984
X2.1395Y-2.0984
X2.1395Y-3.0984
X2.2395Y-2.0984
X2.2395Y-3.0984
X2.3395Y-2.0984
X2.3395Y-3.0984
X2.4395Y-2.0984
X2.4395Y-3.0984
X2.5395Y-2.0984
X2.5395Y-3.0984
X2.6395Y-2.0984
X2.6395Y-3.0984
X2.7395Y-2.0984
X2.7395Y-3.0984
X2.8395Y-2.0984
X2.8395Y-3.0984
X2.9395Y-2.0984
X2.9395Y-3.0984
X3.0395Y-2.0984
X3.0395Y-3.0984
T3
X1.6161Y-3.4446
X1.6161Y-3.9957
X1.6161Y-3.3646
X1.6161Y-3.5246
X1.6161Y-3.9157
X1.6161Y-4.0757
X1.6961Y-3.4046
X1.6961Y-3.4846
X1.6961Y-3.5646
X1.6961Y-3.9557
X1.6961Y-4.0357
X1.6961Y-4.1157
T4
X4.1094Y-2.4016
X4.2094Y-2.4016
X4.3094Y-2.4016
X4.4094Y-2.4016
T5
X1.378Y-2.5591
X1.378Y-4.5276
X4.7244Y-2.126
X4.7244Y-4.5276
M30
